%TF.GenerationSoftware,KiCad,Pcbnew,6.0.11-2627ca5db0~126~ubuntu22.04.1*%
%TF.CreationDate,2023-03-18T13:02:39+01:00*%
%TF.ProjectId,MiSTdon,4d695354-646f-46e2-9e6b-696361645f70,rev?*%
%TF.SameCoordinates,Original*%
%TF.FileFunction,Legend,Top*%
%TF.FilePolarity,Positive*%
%FSLAX46Y46*%
G04 Gerber Fmt 4.6, Leading zero omitted, Abs format (unit mm)*
G04 Created by KiCad (PCBNEW 6.0.11-2627ca5db0~126~ubuntu22.04.1) date 2023-03-18 13:02:39*
%MOMM*%
%LPD*%
G01*
G04 APERTURE LIST*
G04 Aperture macros list*
%AMRoundRect*
0 Rectangle with rounded corners*
0 $1 Rounding radius*
0 $2 $3 $4 $5 $6 $7 $8 $9 X,Y pos of 4 corners*
0 Add a 4 corners polygon primitive as box body*
4,1,4,$2,$3,$4,$5,$6,$7,$8,$9,$2,$3,0*
0 Add four circle primitives for the rounded corners*
1,1,$1+$1,$2,$3*
1,1,$1+$1,$4,$5*
1,1,$1+$1,$6,$7*
1,1,$1+$1,$8,$9*
0 Add four rect primitives between the rounded corners*
20,1,$1+$1,$2,$3,$4,$5,0*
20,1,$1+$1,$4,$5,$6,$7,0*
20,1,$1+$1,$6,$7,$8,$9,0*
20,1,$1+$1,$8,$9,$2,$3,0*%
%AMFreePoly0*
4,1,37,0.585355,0.785355,0.600000,0.750000,0.600000,-0.750000,0.585355,-0.785355,0.550000,-0.800000,0.000000,-0.800000,-0.012524,-0.794812,-0.080857,-0.793560,-0.094851,-0.791293,-0.230166,-0.749018,-0.242962,-0.742915,-0.360972,-0.664360,-0.371540,-0.654911,-0.462760,-0.546392,-0.470252,-0.534356,-0.527347,-0.404597,-0.531159,-0.390943,-0.548742,-0.256483,-0.547388,-0.256306,-0.550000,-0.250000,
-0.550000,0.250000,-0.549522,0.251153,-0.549368,0.263802,-0.527557,0.403879,-0.523412,0.417435,-0.463164,0.545760,-0.455381,0.557609,-0.361537,0.663867,-0.350741,0.673055,-0.230846,0.748703,-0.217905,0.754492,-0.081598,0.793449,-0.067552,0.795373,-0.011991,0.795033,0.000000,0.800000,0.550000,0.800000,0.585355,0.785355,0.585355,0.785355,$1*%
%AMFreePoly1*
4,1,37,0.012350,0.794884,0.074210,0.794507,0.088231,0.792412,0.224052,0.751793,0.236921,0.745846,0.355883,0.668739,0.366566,0.659420,0.459104,0.552023,0.466742,0.540080,0.525419,0.411028,0.529398,0.397421,0.549495,0.257088,0.550000,0.250000,0.550000,-0.250000,0.549996,-0.250610,0.549847,-0.262826,0.549158,-0.270511,0.525638,-0.410312,0.521328,-0.423818,0.459516,-0.551397,
0.451589,-0.563150,0.356454,-0.668254,0.345546,-0.677309,0.224736,-0.751486,0.211726,-0.757116,0.074953,-0.794405,0.060885,-0.796158,0.011462,-0.795252,0.000000,-0.800000,-0.550000,-0.800000,-0.585355,-0.785355,-0.600000,-0.750000,-0.600000,0.750000,-0.585355,0.785355,-0.550000,0.800000,0.000000,0.800000,0.012350,0.794884,0.012350,0.794884,$1*%
G04 Aperture macros list end*
%ADD10C,0.150000*%
%ADD11C,0.329000*%
%ADD12C,0.120000*%
%ADD13C,0.010000*%
%ADD14C,4.100000*%
%ADD15RoundRect,0.050000X-0.800000X0.800000X-0.800000X-0.800000X0.800000X-0.800000X0.800000X0.800000X0*%
%ADD16C,1.700000*%
%ADD17RoundRect,0.300000X-0.325000X-0.450000X0.325000X-0.450000X0.325000X0.450000X-0.325000X0.450000X0*%
%ADD18RoundRect,0.050000X0.850000X-0.850000X0.850000X0.850000X-0.850000X0.850000X-0.850000X-0.850000X0*%
%ADD19O,1.800000X1.800000*%
%ADD20RoundRect,0.050000X0.850000X0.850000X-0.850000X0.850000X-0.850000X-0.850000X0.850000X-0.850000X0*%
%ADD21RoundRect,0.300000X-0.350000X-0.450000X0.350000X-0.450000X0.350000X0.450000X-0.350000X0.450000X0*%
%ADD22RoundRect,0.050000X-0.850000X-0.850000X0.850000X-0.850000X0.850000X0.850000X-0.850000X0.850000X0*%
%ADD23C,2.100000*%
%ADD24RoundRect,0.300000X-0.450000X0.350000X-0.450000X-0.350000X0.450000X-0.350000X0.450000X0.350000X0*%
%ADD25FreePoly0,0.000000*%
%ADD26RoundRect,0.050000X-0.500000X-0.750000X0.500000X-0.750000X0.500000X0.750000X-0.500000X0.750000X0*%
%ADD27FreePoly1,0.000000*%
%ADD28RoundRect,0.300000X0.350000X0.450000X-0.350000X0.450000X-0.350000X-0.450000X0.350000X-0.450000X0*%
%ADD29RoundRect,0.300000X0.450000X-0.350000X0.450000X0.350000X-0.450000X0.350000X-0.450000X-0.350000X0*%
G04 APERTURE END LIST*
D10*
X115832000Y-113141095D02*
X115784380Y-113236333D01*
X115784380Y-113379190D01*
X115832000Y-113522047D01*
X115927238Y-113617285D01*
X116022476Y-113664904D01*
X116212952Y-113712523D01*
X116355809Y-113712523D01*
X116546285Y-113664904D01*
X116641523Y-113617285D01*
X116736761Y-113522047D01*
X116784380Y-113379190D01*
X116784380Y-113283952D01*
X116736761Y-113141095D01*
X116689142Y-113093476D01*
X116355809Y-113093476D01*
X116355809Y-113283952D01*
X116784380Y-112664904D02*
X115784380Y-112664904D01*
X115784380Y-112426809D01*
X115832000Y-112283952D01*
X115927238Y-112188714D01*
X116022476Y-112141095D01*
X116212952Y-112093476D01*
X116355809Y-112093476D01*
X116546285Y-112141095D01*
X116641523Y-112188714D01*
X116736761Y-112283952D01*
X116784380Y-112426809D01*
X116784380Y-112664904D01*
X115784380Y-110680476D02*
X115784380Y-111156666D01*
X116260571Y-111204285D01*
X116212952Y-111156666D01*
X116165333Y-111061428D01*
X116165333Y-110823333D01*
X116212952Y-110728095D01*
X116260571Y-110680476D01*
X116355809Y-110632857D01*
X116593904Y-110632857D01*
X116689142Y-110680476D01*
X116736761Y-110728095D01*
X116784380Y-110823333D01*
X116784380Y-111061428D01*
X116736761Y-111156666D01*
X116689142Y-111204285D01*
X115784380Y-110347142D02*
X116784380Y-110013809D01*
X115784380Y-109680476D01*
X132088095Y-101263380D02*
X132088095Y-102072904D01*
X132135714Y-102168142D01*
X132183333Y-102215761D01*
X132278571Y-102263380D01*
X132469047Y-102263380D01*
X132564285Y-102215761D01*
X132611904Y-102168142D01*
X132659523Y-102072904D01*
X132659523Y-101263380D01*
X133088095Y-102215761D02*
X133230952Y-102263380D01*
X133469047Y-102263380D01*
X133564285Y-102215761D01*
X133611904Y-102168142D01*
X133659523Y-102072904D01*
X133659523Y-101977666D01*
X133611904Y-101882428D01*
X133564285Y-101834809D01*
X133469047Y-101787190D01*
X133278571Y-101739571D01*
X133183333Y-101691952D01*
X133135714Y-101644333D01*
X133088095Y-101549095D01*
X133088095Y-101453857D01*
X133135714Y-101358619D01*
X133183333Y-101311000D01*
X133278571Y-101263380D01*
X133516666Y-101263380D01*
X133659523Y-101311000D01*
X134421428Y-101739571D02*
X134564285Y-101787190D01*
X134611904Y-101834809D01*
X134659523Y-101930047D01*
X134659523Y-102072904D01*
X134611904Y-102168142D01*
X134564285Y-102215761D01*
X134469047Y-102263380D01*
X134088095Y-102263380D01*
X134088095Y-101263380D01*
X134421428Y-101263380D01*
X134516666Y-101311000D01*
X134564285Y-101358619D01*
X134611904Y-101453857D01*
X134611904Y-101549095D01*
X134564285Y-101644333D01*
X134516666Y-101691952D01*
X134421428Y-101739571D01*
X134088095Y-101739571D01*
X131873809Y-103825761D02*
X132016666Y-103873380D01*
X132254761Y-103873380D01*
X132350000Y-103825761D01*
X132397619Y-103778142D01*
X132445238Y-103682904D01*
X132445238Y-103587666D01*
X132397619Y-103492428D01*
X132350000Y-103444809D01*
X132254761Y-103397190D01*
X132064285Y-103349571D01*
X131969047Y-103301952D01*
X131921428Y-103254333D01*
X131873809Y-103159095D01*
X131873809Y-103063857D01*
X131921428Y-102968619D01*
X131969047Y-102921000D01*
X132064285Y-102873380D01*
X132302380Y-102873380D01*
X132445238Y-102921000D01*
X132873809Y-103873380D02*
X132873809Y-102873380D01*
X133350000Y-103873380D02*
X133350000Y-102873380D01*
X133588095Y-102873380D01*
X133730952Y-102921000D01*
X133826190Y-103016238D01*
X133873809Y-103111476D01*
X133921428Y-103301952D01*
X133921428Y-103444809D01*
X133873809Y-103635285D01*
X133826190Y-103730523D01*
X133730952Y-103825761D01*
X133588095Y-103873380D01*
X133350000Y-103873380D01*
X134350000Y-103349571D02*
X134683333Y-103349571D01*
X134826190Y-103873380D02*
X134350000Y-103873380D01*
X134350000Y-102873380D01*
X134826190Y-102873380D01*
D11*
X151294500Y-112014000D02*
G75*
G03*
X151294500Y-112014000I-164500J0D01*
G01*
X141261500Y-104394000D02*
G75*
G03*
X141261500Y-104394000I-164500J0D01*
G01*
X151675500Y-104648000D02*
G75*
G03*
X151675500Y-104648000I-164500J0D01*
G01*
D10*
X144788000Y-93628595D02*
X144740380Y-93723833D01*
X144740380Y-93866690D01*
X144788000Y-94009547D01*
X144883238Y-94104785D01*
X144978476Y-94152404D01*
X145168952Y-94200023D01*
X145311809Y-94200023D01*
X145502285Y-94152404D01*
X145597523Y-94104785D01*
X145692761Y-94009547D01*
X145740380Y-93866690D01*
X145740380Y-93771452D01*
X145692761Y-93628595D01*
X145645142Y-93580976D01*
X145311809Y-93580976D01*
X145311809Y-93771452D01*
X145740380Y-93152404D02*
X144740380Y-93152404D01*
X145740380Y-92580976D01*
X144740380Y-92580976D01*
X145740380Y-92104785D02*
X144740380Y-92104785D01*
X144740380Y-91866690D01*
X144788000Y-91723833D01*
X144883238Y-91628595D01*
X144978476Y-91580976D01*
X145168952Y-91533357D01*
X145311809Y-91533357D01*
X145502285Y-91580976D01*
X145597523Y-91628595D01*
X145692761Y-91723833D01*
X145740380Y-91866690D01*
X145740380Y-92104785D01*
X144740380Y-90945642D02*
X144740380Y-90326595D01*
X145121333Y-90659928D01*
X145121333Y-90517071D01*
X145168952Y-90421833D01*
X145216571Y-90374214D01*
X145311809Y-90326595D01*
X145549904Y-90326595D01*
X145645142Y-90374214D01*
X145692761Y-90421833D01*
X145740380Y-90517071D01*
X145740380Y-90802785D01*
X145692761Y-90898023D01*
X145645142Y-90945642D01*
X144740380Y-90040880D02*
X145740380Y-89707547D01*
X144740380Y-89374214D01*
X144740380Y-89136119D02*
X144740380Y-88517071D01*
X145121333Y-88850404D01*
X145121333Y-88707547D01*
X145168952Y-88612309D01*
X145216571Y-88564690D01*
X145311809Y-88517071D01*
X145549904Y-88517071D01*
X145645142Y-88564690D01*
X145692761Y-88612309D01*
X145740380Y-88707547D01*
X145740380Y-88993261D01*
X145692761Y-89088500D01*
X145645142Y-89136119D01*
X168410000Y-96920595D02*
X168362380Y-97015833D01*
X168362380Y-97158690D01*
X168410000Y-97301547D01*
X168505238Y-97396785D01*
X168600476Y-97444404D01*
X168790952Y-97492023D01*
X168933809Y-97492023D01*
X169124285Y-97444404D01*
X169219523Y-97396785D01*
X169314761Y-97301547D01*
X169362380Y-97158690D01*
X169362380Y-97063452D01*
X169314761Y-96920595D01*
X169267142Y-96872976D01*
X168933809Y-96872976D01*
X168933809Y-97063452D01*
X169362380Y-96444404D02*
X168362380Y-96444404D01*
X169362380Y-95872976D01*
X168362380Y-95872976D01*
X169362380Y-95396785D02*
X168362380Y-95396785D01*
X168362380Y-95158690D01*
X168410000Y-95015833D01*
X168505238Y-94920595D01*
X168600476Y-94872976D01*
X168790952Y-94825357D01*
X168933809Y-94825357D01*
X169124285Y-94872976D01*
X169219523Y-94920595D01*
X169314761Y-95015833D01*
X169362380Y-95158690D01*
X169362380Y-95396785D01*
X119713809Y-57872380D02*
X119713809Y-58681904D01*
X119761428Y-58777142D01*
X119809047Y-58824761D01*
X119904285Y-58872380D01*
X120094761Y-58872380D01*
X120190000Y-58824761D01*
X120237619Y-58777142D01*
X120285238Y-58681904D01*
X120285238Y-57872380D01*
X120713809Y-58586666D02*
X121190000Y-58586666D01*
X120618571Y-58872380D02*
X120951904Y-57872380D01*
X121285238Y-58872380D01*
X122190000Y-58872380D02*
X121856666Y-58396190D01*
X121618571Y-58872380D02*
X121618571Y-57872380D01*
X121999523Y-57872380D01*
X122094761Y-57920000D01*
X122142380Y-57967619D01*
X122190000Y-58062857D01*
X122190000Y-58205714D01*
X122142380Y-58300952D01*
X122094761Y-58348571D01*
X121999523Y-58396190D01*
X121618571Y-58396190D01*
X122475714Y-57872380D02*
X123047142Y-57872380D01*
X122761428Y-58872380D02*
X122761428Y-57872380D01*
X124142380Y-58872380D02*
X124142380Y-57872380D01*
X124380476Y-57872380D01*
X124523333Y-57920000D01*
X124618571Y-58015238D01*
X124666190Y-58110476D01*
X124713809Y-58300952D01*
X124713809Y-58443809D01*
X124666190Y-58634285D01*
X124618571Y-58729523D01*
X124523333Y-58824761D01*
X124380476Y-58872380D01*
X124142380Y-58872380D01*
X125475714Y-58348571D02*
X125618571Y-58396190D01*
X125666190Y-58443809D01*
X125713809Y-58539047D01*
X125713809Y-58681904D01*
X125666190Y-58777142D01*
X125618571Y-58824761D01*
X125523333Y-58872380D01*
X125142380Y-58872380D01*
X125142380Y-57872380D01*
X125475714Y-57872380D01*
X125570952Y-57920000D01*
X125618571Y-57967619D01*
X125666190Y-58062857D01*
X125666190Y-58158095D01*
X125618571Y-58253333D01*
X125570952Y-58300952D01*
X125475714Y-58348571D01*
X125142380Y-58348571D01*
X126666190Y-57920000D02*
X126570952Y-57872380D01*
X126428095Y-57872380D01*
X126285238Y-57920000D01*
X126190000Y-58015238D01*
X126142380Y-58110476D01*
X126094761Y-58300952D01*
X126094761Y-58443809D01*
X126142380Y-58634285D01*
X126190000Y-58729523D01*
X126285238Y-58824761D01*
X126428095Y-58872380D01*
X126523333Y-58872380D01*
X126666190Y-58824761D01*
X126713809Y-58777142D01*
X126713809Y-58443809D01*
X126523333Y-58443809D01*
X145677285Y-114279071D02*
X145677285Y-112779071D01*
X146248714Y-112779071D01*
X146391571Y-112850500D01*
X146463000Y-112921928D01*
X146534428Y-113064785D01*
X146534428Y-113279071D01*
X146463000Y-113421928D01*
X146391571Y-113493357D01*
X146248714Y-113564785D01*
X145677285Y-113564785D01*
X147177285Y-114279071D02*
X147177285Y-112779071D01*
X147677285Y-113850500D01*
X148177285Y-112779071D01*
X148177285Y-114279071D01*
X149177285Y-112779071D02*
X149463000Y-112779071D01*
X149605857Y-112850500D01*
X149748714Y-112993357D01*
X149820142Y-113279071D01*
X149820142Y-113779071D01*
X149748714Y-114064785D01*
X149605857Y-114207642D01*
X149463000Y-114279071D01*
X149177285Y-114279071D01*
X149034428Y-114207642D01*
X148891571Y-114064785D01*
X148820142Y-113779071D01*
X148820142Y-113279071D01*
X148891571Y-112993357D01*
X149034428Y-112850500D01*
X149177285Y-112779071D01*
X150463000Y-114279071D02*
X150463000Y-112779071D01*
X150820142Y-112779071D01*
X151034428Y-112850500D01*
X151177285Y-112993357D01*
X151248714Y-113136214D01*
X151320142Y-113421928D01*
X151320142Y-113636214D01*
X151248714Y-113921928D01*
X151177285Y-114064785D01*
X151034428Y-114207642D01*
X150820142Y-114279071D01*
X150463000Y-114279071D01*
X146534428Y-115908357D02*
X146034428Y-115908357D01*
X146034428Y-116694071D02*
X146034428Y-115194071D01*
X146748714Y-115194071D01*
X147320142Y-116694071D02*
X147320142Y-115194071D01*
X147891571Y-115194071D01*
X148034428Y-115265500D01*
X148105857Y-115336928D01*
X148177285Y-115479785D01*
X148177285Y-115694071D01*
X148105857Y-115836928D01*
X148034428Y-115908357D01*
X147891571Y-115979785D01*
X147320142Y-115979785D01*
X149605857Y-115265500D02*
X149463000Y-115194071D01*
X149248714Y-115194071D01*
X149034428Y-115265500D01*
X148891571Y-115408357D01*
X148820142Y-115551214D01*
X148748714Y-115836928D01*
X148748714Y-116051214D01*
X148820142Y-116336928D01*
X148891571Y-116479785D01*
X149034428Y-116622642D01*
X149248714Y-116694071D01*
X149391571Y-116694071D01*
X149605857Y-116622642D01*
X149677285Y-116551214D01*
X149677285Y-116051214D01*
X149391571Y-116051214D01*
X150248714Y-116265500D02*
X150963000Y-116265500D01*
X150105857Y-116694071D02*
X150605857Y-115194071D01*
X151105857Y-116694071D01*
X164282380Y-95167857D02*
X163282380Y-95167857D01*
X163282380Y-94786904D01*
X163330000Y-94691666D01*
X163377619Y-94644047D01*
X163472857Y-94596428D01*
X163615714Y-94596428D01*
X163710952Y-94644047D01*
X163758571Y-94691666D01*
X163806190Y-94786904D01*
X163806190Y-95167857D01*
X163996666Y-94215476D02*
X163996666Y-93739285D01*
X164282380Y-94310714D02*
X163282380Y-93977380D01*
X164282380Y-93644047D01*
X164234761Y-93358333D02*
X164282380Y-93215476D01*
X164282380Y-92977380D01*
X164234761Y-92882142D01*
X164187142Y-92834523D01*
X164091904Y-92786904D01*
X163996666Y-92786904D01*
X163901428Y-92834523D01*
X163853809Y-92882142D01*
X163806190Y-92977380D01*
X163758571Y-93167857D01*
X163710952Y-93263095D01*
X163663333Y-93310714D01*
X163568095Y-93358333D01*
X163472857Y-93358333D01*
X163377619Y-93310714D01*
X163330000Y-93263095D01*
X163282380Y-93167857D01*
X163282380Y-92929761D01*
X163330000Y-92786904D01*
X164234761Y-92405952D02*
X164282380Y-92263095D01*
X164282380Y-92025000D01*
X164234761Y-91929761D01*
X164187142Y-91882142D01*
X164091904Y-91834523D01*
X163996666Y-91834523D01*
X163901428Y-91882142D01*
X163853809Y-91929761D01*
X163806190Y-92025000D01*
X163758571Y-92215476D01*
X163710952Y-92310714D01*
X163663333Y-92358333D01*
X163568095Y-92405952D01*
X163472857Y-92405952D01*
X163377619Y-92358333D01*
X163330000Y-92310714D01*
X163282380Y-92215476D01*
X163282380Y-91977380D01*
X163330000Y-91834523D01*
X164282380Y-91405952D02*
X163282380Y-91405952D01*
X163282380Y-91072619D02*
X164282380Y-90739285D01*
X163282380Y-90405952D01*
X163758571Y-90072619D02*
X163758571Y-89739285D01*
X164282380Y-89596428D02*
X164282380Y-90072619D01*
X163282380Y-90072619D01*
X163282380Y-89596428D01*
X164234761Y-88453571D02*
X164282380Y-88310714D01*
X164282380Y-88072619D01*
X164234761Y-87977380D01*
X164187142Y-87929761D01*
X164091904Y-87882142D01*
X163996666Y-87882142D01*
X163901428Y-87929761D01*
X163853809Y-87977380D01*
X163806190Y-88072619D01*
X163758571Y-88263095D01*
X163710952Y-88358333D01*
X163663333Y-88405952D01*
X163568095Y-88453571D01*
X163472857Y-88453571D01*
X163377619Y-88405952D01*
X163330000Y-88358333D01*
X163282380Y-88263095D01*
X163282380Y-88025000D01*
X163330000Y-87882142D01*
X163758571Y-87453571D02*
X163758571Y-87120238D01*
X164282380Y-86977380D02*
X164282380Y-87453571D01*
X163282380Y-87453571D01*
X163282380Y-86977380D01*
X164282380Y-85977380D02*
X163806190Y-86310714D01*
X164282380Y-86548809D02*
X163282380Y-86548809D01*
X163282380Y-86167857D01*
X163330000Y-86072619D01*
X163377619Y-86025000D01*
X163472857Y-85977380D01*
X163615714Y-85977380D01*
X163710952Y-86025000D01*
X163758571Y-86072619D01*
X163806190Y-86167857D01*
X163806190Y-86548809D01*
X164282380Y-85548809D02*
X163282380Y-85548809D01*
X163996666Y-85120238D02*
X163996666Y-84644047D01*
X164282380Y-85215476D02*
X163282380Y-84882142D01*
X164282380Y-84548809D01*
X164282380Y-83739285D02*
X164282380Y-84215476D01*
X163282380Y-84215476D01*
X146058095Y-70937380D02*
X146058095Y-69937380D01*
X146296190Y-69937380D01*
X146439047Y-69985000D01*
X146534285Y-70080238D01*
X146581904Y-70175476D01*
X146629523Y-70365952D01*
X146629523Y-70508809D01*
X146581904Y-70699285D01*
X146534285Y-70794523D01*
X146439047Y-70889761D01*
X146296190Y-70937380D01*
X146058095Y-70937380D01*
X147391428Y-70413571D02*
X147534285Y-70461190D01*
X147581904Y-70508809D01*
X147629523Y-70604047D01*
X147629523Y-70746904D01*
X147581904Y-70842142D01*
X147534285Y-70889761D01*
X147439047Y-70937380D01*
X147058095Y-70937380D01*
X147058095Y-69937380D01*
X147391428Y-69937380D01*
X147486666Y-69985000D01*
X147534285Y-70032619D01*
X147581904Y-70127857D01*
X147581904Y-70223095D01*
X147534285Y-70318333D01*
X147486666Y-70365952D01*
X147391428Y-70413571D01*
X147058095Y-70413571D01*
X148581904Y-69985000D02*
X148486666Y-69937380D01*
X148343809Y-69937380D01*
X148200952Y-69985000D01*
X148105714Y-70080238D01*
X148058095Y-70175476D01*
X148010476Y-70365952D01*
X148010476Y-70508809D01*
X148058095Y-70699285D01*
X148105714Y-70794523D01*
X148200952Y-70889761D01*
X148343809Y-70937380D01*
X148439047Y-70937380D01*
X148581904Y-70889761D01*
X148629523Y-70842142D01*
X148629523Y-70508809D01*
X148439047Y-70508809D01*
X159893095Y-111529761D02*
X160035952Y-111577380D01*
X160274047Y-111577380D01*
X160369285Y-111529761D01*
X160416904Y-111482142D01*
X160464523Y-111386904D01*
X160464523Y-111291666D01*
X160416904Y-111196428D01*
X160369285Y-111148809D01*
X160274047Y-111101190D01*
X160083571Y-111053571D01*
X159988333Y-111005952D01*
X159940714Y-110958333D01*
X159893095Y-110863095D01*
X159893095Y-110767857D01*
X159940714Y-110672619D01*
X159988333Y-110625000D01*
X160083571Y-110577380D01*
X160321666Y-110577380D01*
X160464523Y-110625000D01*
X160845476Y-110672619D02*
X160893095Y-110625000D01*
X160988333Y-110577380D01*
X161226428Y-110577380D01*
X161321666Y-110625000D01*
X161369285Y-110672619D01*
X161416904Y-110767857D01*
X161416904Y-110863095D01*
X161369285Y-111005952D01*
X160797857Y-111577380D01*
X161416904Y-111577380D01*
X160845714Y-73747380D02*
X160845714Y-74556904D01*
X160893333Y-74652142D01*
X160940952Y-74699761D01*
X161036190Y-74747380D01*
X161226666Y-74747380D01*
X161321904Y-74699761D01*
X161369523Y-74652142D01*
X161417142Y-74556904D01*
X161417142Y-73747380D01*
X161845714Y-74699761D02*
X161988571Y-74747380D01*
X162226666Y-74747380D01*
X162321904Y-74699761D01*
X162369523Y-74652142D01*
X162417142Y-74556904D01*
X162417142Y-74461666D01*
X162369523Y-74366428D01*
X162321904Y-74318809D01*
X162226666Y-74271190D01*
X162036190Y-74223571D01*
X161940952Y-74175952D01*
X161893333Y-74128333D01*
X161845714Y-74033095D01*
X161845714Y-73937857D01*
X161893333Y-73842619D01*
X161940952Y-73795000D01*
X162036190Y-73747380D01*
X162274285Y-73747380D01*
X162417142Y-73795000D01*
X162845714Y-74223571D02*
X163179047Y-74223571D01*
X163321904Y-74747380D02*
X162845714Y-74747380D01*
X162845714Y-73747380D01*
X163321904Y-73747380D01*
X164321904Y-74747380D02*
X163988571Y-74271190D01*
X163750476Y-74747380D02*
X163750476Y-73747380D01*
X164131428Y-73747380D01*
X164226666Y-73795000D01*
X164274285Y-73842619D01*
X164321904Y-73937857D01*
X164321904Y-74080714D01*
X164274285Y-74175952D01*
X164226666Y-74223571D01*
X164131428Y-74271190D01*
X163750476Y-74271190D01*
X157376904Y-111577380D02*
X157376904Y-110577380D01*
X157615000Y-110577380D01*
X157757857Y-110625000D01*
X157853095Y-110720238D01*
X157900714Y-110815476D01*
X157948333Y-111005952D01*
X157948333Y-111148809D01*
X157900714Y-111339285D01*
X157853095Y-111434523D01*
X157757857Y-111529761D01*
X157615000Y-111577380D01*
X157376904Y-111577380D01*
X158567380Y-110577380D02*
X158662619Y-110577380D01*
X158757857Y-110625000D01*
X158805476Y-110672619D01*
X158853095Y-110767857D01*
X158900714Y-110958333D01*
X158900714Y-111196428D01*
X158853095Y-111386904D01*
X158805476Y-111482142D01*
X158757857Y-111529761D01*
X158662619Y-111577380D01*
X158567380Y-111577380D01*
X158472142Y-111529761D01*
X158424523Y-111482142D01*
X158376904Y-111386904D01*
X158329285Y-111196428D01*
X158329285Y-110958333D01*
X158376904Y-110767857D01*
X158424523Y-110672619D01*
X158472142Y-110625000D01*
X158567380Y-110577380D01*
X152273095Y-118514761D02*
X152415952Y-118562380D01*
X152654047Y-118562380D01*
X152749285Y-118514761D01*
X152796904Y-118467142D01*
X152844523Y-118371904D01*
X152844523Y-118276666D01*
X152796904Y-118181428D01*
X152749285Y-118133809D01*
X152654047Y-118086190D01*
X152463571Y-118038571D01*
X152368333Y-117990952D01*
X152320714Y-117943333D01*
X152273095Y-117848095D01*
X152273095Y-117752857D01*
X152320714Y-117657619D01*
X152368333Y-117610000D01*
X152463571Y-117562380D01*
X152701666Y-117562380D01*
X152844523Y-117610000D01*
X153177857Y-117562380D02*
X153796904Y-117562380D01*
X153463571Y-117943333D01*
X153606428Y-117943333D01*
X153701666Y-117990952D01*
X153749285Y-118038571D01*
X153796904Y-118133809D01*
X153796904Y-118371904D01*
X153749285Y-118467142D01*
X153701666Y-118514761D01*
X153606428Y-118562380D01*
X153320714Y-118562380D01*
X153225476Y-118514761D01*
X153177857Y-118467142D01*
X115657380Y-82501904D02*
X116371666Y-82501904D01*
X116514523Y-82549523D01*
X116609761Y-82644761D01*
X116657380Y-82787619D01*
X116657380Y-82882857D01*
X115657380Y-81835238D02*
X115657380Y-81644761D01*
X115705000Y-81549523D01*
X115800238Y-81454285D01*
X115990714Y-81406666D01*
X116324047Y-81406666D01*
X116514523Y-81454285D01*
X116609761Y-81549523D01*
X116657380Y-81644761D01*
X116657380Y-81835238D01*
X116609761Y-81930476D01*
X116514523Y-82025714D01*
X116324047Y-82073333D01*
X115990714Y-82073333D01*
X115800238Y-82025714D01*
X115705000Y-81930476D01*
X115657380Y-81835238D01*
X116181190Y-80787619D02*
X116657380Y-80787619D01*
X115657380Y-81120952D02*
X116181190Y-80787619D01*
X115657380Y-80454285D01*
X116609761Y-80168571D02*
X116657380Y-80025714D01*
X116657380Y-79787619D01*
X116609761Y-79692380D01*
X116562142Y-79644761D01*
X116466904Y-79597142D01*
X116371666Y-79597142D01*
X116276428Y-79644761D01*
X116228809Y-79692380D01*
X116181190Y-79787619D01*
X116133571Y-79978095D01*
X116085952Y-80073333D01*
X116038333Y-80120952D01*
X115943095Y-80168571D01*
X115847857Y-80168571D01*
X115752619Y-80120952D01*
X115705000Y-80073333D01*
X115657380Y-79978095D01*
X115657380Y-79740000D01*
X115705000Y-79597142D01*
X115657380Y-79311428D02*
X115657380Y-78740000D01*
X116657380Y-79025714D02*
X115657380Y-79025714D01*
X116657380Y-78406666D02*
X115657380Y-78406666D01*
X116562142Y-77359047D02*
X116609761Y-77406666D01*
X116657380Y-77549523D01*
X116657380Y-77644761D01*
X116609761Y-77787619D01*
X116514523Y-77882857D01*
X116419285Y-77930476D01*
X116228809Y-77978095D01*
X116085952Y-77978095D01*
X115895476Y-77930476D01*
X115800238Y-77882857D01*
X115705000Y-77787619D01*
X115657380Y-77644761D01*
X115657380Y-77549523D01*
X115705000Y-77406666D01*
X115752619Y-77359047D01*
X116657380Y-76930476D02*
X115657380Y-76930476D01*
X116657380Y-76359047D02*
X116085952Y-76787619D01*
X115657380Y-76359047D02*
X116228809Y-76930476D01*
X115657380Y-74978095D02*
X115657380Y-74882857D01*
X115705000Y-74787619D01*
X115752619Y-74740000D01*
X115847857Y-74692380D01*
X116038333Y-74644761D01*
X116276428Y-74644761D01*
X116466904Y-74692380D01*
X116562142Y-74740000D01*
X116609761Y-74787619D01*
X116657380Y-74882857D01*
X116657380Y-74978095D01*
X116609761Y-75073333D01*
X116562142Y-75120952D01*
X116466904Y-75168571D01*
X116276428Y-75216190D01*
X116038333Y-75216190D01*
X115847857Y-75168571D01*
X115752619Y-75120952D01*
X115705000Y-75073333D01*
X115657380Y-74978095D01*
X123023333Y-53157380D02*
X122690000Y-52681190D01*
X122451904Y-53157380D02*
X122451904Y-52157380D01*
X122832857Y-52157380D01*
X122928095Y-52205000D01*
X122975714Y-52252619D01*
X123023333Y-52347857D01*
X123023333Y-52490714D01*
X122975714Y-52585952D01*
X122928095Y-52633571D01*
X122832857Y-52681190D01*
X122451904Y-52681190D01*
X123356666Y-52157380D02*
X124023333Y-53157380D01*
X124023333Y-52157380D02*
X123356666Y-53157380D01*
X123620785Y-109942380D02*
X123144595Y-109942380D01*
X123096976Y-110418571D01*
X123144595Y-110370952D01*
X123239833Y-110323333D01*
X123477928Y-110323333D01*
X123573166Y-110370952D01*
X123620785Y-110418571D01*
X123668404Y-110513809D01*
X123668404Y-110751904D01*
X123620785Y-110847142D01*
X123573166Y-110894761D01*
X123477928Y-110942380D01*
X123239833Y-110942380D01*
X123144595Y-110894761D01*
X123096976Y-110847142D01*
X123954119Y-109942380D02*
X124287452Y-110942380D01*
X124620785Y-109942380D01*
X131802142Y-85742976D02*
X131849761Y-85790595D01*
X131897380Y-85933452D01*
X131897380Y-86028690D01*
X131849761Y-86171547D01*
X131754523Y-86266785D01*
X131659285Y-86314404D01*
X131468809Y-86362023D01*
X131325952Y-86362023D01*
X131135476Y-86314404D01*
X131040238Y-86266785D01*
X130945000Y-86171547D01*
X130897380Y-86028690D01*
X130897380Y-85933452D01*
X130945000Y-85790595D01*
X130992619Y-85742976D01*
X131897380Y-85314404D02*
X130897380Y-85314404D01*
X130897380Y-85076309D01*
X130945000Y-84933452D01*
X131040238Y-84838214D01*
X131135476Y-84790595D01*
X131325952Y-84742976D01*
X131468809Y-84742976D01*
X131659285Y-84790595D01*
X131754523Y-84838214D01*
X131849761Y-84933452D01*
X131897380Y-85076309D01*
X131897380Y-85314404D01*
X123144595Y-116022380D02*
X123144595Y-115022380D01*
X123716023Y-116022380D01*
X123716023Y-115022380D01*
X124763642Y-116022380D02*
X124430309Y-115546190D01*
X124192214Y-116022380D02*
X124192214Y-115022380D01*
X124573166Y-115022380D01*
X124668404Y-115070000D01*
X124716023Y-115117619D01*
X124763642Y-115212857D01*
X124763642Y-115355714D01*
X124716023Y-115450952D01*
X124668404Y-115498571D01*
X124573166Y-115546190D01*
X124192214Y-115546190D01*
X125144595Y-115974761D02*
X125287452Y-116022380D01*
X125525547Y-116022380D01*
X125620785Y-115974761D01*
X125668404Y-115927142D01*
X125716023Y-115831904D01*
X125716023Y-115736666D01*
X125668404Y-115641428D01*
X125620785Y-115593809D01*
X125525547Y-115546190D01*
X125335071Y-115498571D01*
X125239833Y-115450952D01*
X125192214Y-115403333D01*
X125144595Y-115308095D01*
X125144595Y-115212857D01*
X125192214Y-115117619D01*
X125239833Y-115070000D01*
X125335071Y-115022380D01*
X125573166Y-115022380D01*
X125716023Y-115070000D01*
X126001738Y-115022380D02*
X126573166Y-115022380D01*
X126287452Y-116022380D02*
X126287452Y-115022380D01*
X147101547Y-62520714D02*
X145401547Y-62520714D01*
X146615833Y-61954047D01*
X145401547Y-61387380D01*
X147101547Y-61387380D01*
X147101547Y-60577857D02*
X145968214Y-60577857D01*
X145401547Y-60577857D02*
X145482500Y-60658809D01*
X145563452Y-60577857D01*
X145482500Y-60496904D01*
X145401547Y-60577857D01*
X145563452Y-60577857D01*
X147020595Y-59849285D02*
X147101547Y-59606428D01*
X147101547Y-59201666D01*
X147020595Y-59039761D01*
X146939642Y-58958809D01*
X146777738Y-58877857D01*
X146615833Y-58877857D01*
X146453928Y-58958809D01*
X146372976Y-59039761D01*
X146292023Y-59201666D01*
X146211071Y-59525476D01*
X146130119Y-59687380D01*
X146049166Y-59768333D01*
X145887261Y-59849285D01*
X145725357Y-59849285D01*
X145563452Y-59768333D01*
X145482500Y-59687380D01*
X145401547Y-59525476D01*
X145401547Y-59120714D01*
X145482500Y-58877857D01*
X145401547Y-58392142D02*
X145401547Y-57420714D01*
X147101547Y-57906428D02*
X145401547Y-57906428D01*
X147101547Y-56125476D02*
X145401547Y-56125476D01*
X147020595Y-56125476D02*
X147101547Y-56287380D01*
X147101547Y-56611190D01*
X147020595Y-56773095D01*
X146939642Y-56854047D01*
X146777738Y-56935000D01*
X146292023Y-56935000D01*
X146130119Y-56854047D01*
X146049166Y-56773095D01*
X145968214Y-56611190D01*
X145968214Y-56287380D01*
X146049166Y-56125476D01*
X147101547Y-55073095D02*
X147020595Y-55235000D01*
X146939642Y-55315952D01*
X146777738Y-55396904D01*
X146292023Y-55396904D01*
X146130119Y-55315952D01*
X146049166Y-55235000D01*
X145968214Y-55073095D01*
X145968214Y-54830238D01*
X146049166Y-54668333D01*
X146130119Y-54587380D01*
X146292023Y-54506428D01*
X146777738Y-54506428D01*
X146939642Y-54587380D01*
X147020595Y-54668333D01*
X147101547Y-54830238D01*
X147101547Y-55073095D01*
X145968214Y-53777857D02*
X147101547Y-53777857D01*
X146130119Y-53777857D02*
X146049166Y-53696904D01*
X145968214Y-53535000D01*
X145968214Y-53292142D01*
X146049166Y-53130238D01*
X146211071Y-53049285D01*
X147101547Y-53049285D01*
X148705214Y-60213571D02*
X149838547Y-59808809D01*
X148705214Y-59404047D01*
X148138547Y-58432619D02*
X148138547Y-58270714D01*
X148219500Y-58108809D01*
X148300452Y-58027857D01*
X148462357Y-57946904D01*
X148786166Y-57865952D01*
X149190928Y-57865952D01*
X149514738Y-57946904D01*
X149676642Y-58027857D01*
X149757595Y-58108809D01*
X149838547Y-58270714D01*
X149838547Y-58432619D01*
X149757595Y-58594523D01*
X149676642Y-58675476D01*
X149514738Y-58756428D01*
X149190928Y-58837380D01*
X148786166Y-58837380D01*
X148462357Y-58756428D01*
X148300452Y-58675476D01*
X148219500Y-58594523D01*
X148138547Y-58432619D01*
X149676642Y-57137380D02*
X149757595Y-57056428D01*
X149838547Y-57137380D01*
X149757595Y-57218333D01*
X149676642Y-57137380D01*
X149838547Y-57137380D01*
X148867119Y-56085000D02*
X148786166Y-56246904D01*
X148705214Y-56327857D01*
X148543309Y-56408809D01*
X148462357Y-56408809D01*
X148300452Y-56327857D01*
X148219500Y-56246904D01*
X148138547Y-56085000D01*
X148138547Y-55761190D01*
X148219500Y-55599285D01*
X148300452Y-55518333D01*
X148462357Y-55437380D01*
X148543309Y-55437380D01*
X148705214Y-55518333D01*
X148786166Y-55599285D01*
X148867119Y-55761190D01*
X148867119Y-56085000D01*
X148948071Y-56246904D01*
X149029023Y-56327857D01*
X149190928Y-56408809D01*
X149514738Y-56408809D01*
X149676642Y-56327857D01*
X149757595Y-56246904D01*
X149838547Y-56085000D01*
X149838547Y-55761190D01*
X149757595Y-55599285D01*
X149676642Y-55518333D01*
X149514738Y-55437380D01*
X149190928Y-55437380D01*
X149029023Y-55518333D01*
X148948071Y-55599285D01*
X148867119Y-55761190D01*
X136742619Y-53157380D02*
X136409285Y-52681190D01*
X136171190Y-53157380D02*
X136171190Y-52157380D01*
X136552142Y-52157380D01*
X136647380Y-52205000D01*
X136695000Y-52252619D01*
X136742619Y-52347857D01*
X136742619Y-52490714D01*
X136695000Y-52585952D01*
X136647380Y-52633571D01*
X136552142Y-52681190D01*
X136171190Y-52681190D01*
X137171190Y-52633571D02*
X137504523Y-52633571D01*
X137647380Y-53157380D02*
X137171190Y-53157380D01*
X137171190Y-52157380D01*
X137647380Y-52157380D01*
X138028333Y-53109761D02*
X138171190Y-53157380D01*
X138409285Y-53157380D01*
X138504523Y-53109761D01*
X138552142Y-53062142D01*
X138599761Y-52966904D01*
X138599761Y-52871666D01*
X138552142Y-52776428D01*
X138504523Y-52728809D01*
X138409285Y-52681190D01*
X138218809Y-52633571D01*
X138123571Y-52585952D01*
X138075952Y-52538333D01*
X138028333Y-52443095D01*
X138028333Y-52347857D01*
X138075952Y-52252619D01*
X138123571Y-52205000D01*
X138218809Y-52157380D01*
X138456904Y-52157380D01*
X138599761Y-52205000D01*
X139028333Y-52633571D02*
X139361666Y-52633571D01*
X139504523Y-53157380D02*
X139028333Y-53157380D01*
X139028333Y-52157380D01*
X139504523Y-52157380D01*
X139790238Y-52157380D02*
X140361666Y-52157380D01*
X140075952Y-53157380D02*
X140075952Y-52157380D01*
X115657380Y-94566904D02*
X116371666Y-94566904D01*
X116514523Y-94614523D01*
X116609761Y-94709761D01*
X116657380Y-94852619D01*
X116657380Y-94947857D01*
X115657380Y-93900238D02*
X115657380Y-93709761D01*
X115705000Y-93614523D01*
X115800238Y-93519285D01*
X115990714Y-93471666D01*
X116324047Y-93471666D01*
X116514523Y-93519285D01*
X116609761Y-93614523D01*
X116657380Y-93709761D01*
X116657380Y-93900238D01*
X116609761Y-93995476D01*
X116514523Y-94090714D01*
X116324047Y-94138333D01*
X115990714Y-94138333D01*
X115800238Y-94090714D01*
X115705000Y-93995476D01*
X115657380Y-93900238D01*
X116181190Y-92852619D02*
X116657380Y-92852619D01*
X115657380Y-93185952D02*
X116181190Y-92852619D01*
X115657380Y-92519285D01*
X116609761Y-92233571D02*
X116657380Y-92090714D01*
X116657380Y-91852619D01*
X116609761Y-91757380D01*
X116562142Y-91709761D01*
X116466904Y-91662142D01*
X116371666Y-91662142D01*
X116276428Y-91709761D01*
X116228809Y-91757380D01*
X116181190Y-91852619D01*
X116133571Y-92043095D01*
X116085952Y-92138333D01*
X116038333Y-92185952D01*
X115943095Y-92233571D01*
X115847857Y-92233571D01*
X115752619Y-92185952D01*
X115705000Y-92138333D01*
X115657380Y-92043095D01*
X115657380Y-91805000D01*
X115705000Y-91662142D01*
X115657380Y-91376428D02*
X115657380Y-90805000D01*
X116657380Y-91090714D02*
X115657380Y-91090714D01*
X116657380Y-90471666D02*
X115657380Y-90471666D01*
X116562142Y-89424047D02*
X116609761Y-89471666D01*
X116657380Y-89614523D01*
X116657380Y-89709761D01*
X116609761Y-89852619D01*
X116514523Y-89947857D01*
X116419285Y-89995476D01*
X116228809Y-90043095D01*
X116085952Y-90043095D01*
X115895476Y-89995476D01*
X115800238Y-89947857D01*
X115705000Y-89852619D01*
X115657380Y-89709761D01*
X115657380Y-89614523D01*
X115705000Y-89471666D01*
X115752619Y-89424047D01*
X116657380Y-88995476D02*
X115657380Y-88995476D01*
X116657380Y-88424047D02*
X116085952Y-88852619D01*
X115657380Y-88424047D02*
X116228809Y-88995476D01*
X116657380Y-86709761D02*
X116657380Y-87281190D01*
X116657380Y-86995476D02*
X115657380Y-86995476D01*
X115800238Y-87090714D01*
X115895476Y-87185952D01*
X115943095Y-87281190D01*
X161488571Y-52157380D02*
X161679047Y-52157380D01*
X161774285Y-52205000D01*
X161869523Y-52300238D01*
X161917142Y-52490714D01*
X161917142Y-52824047D01*
X161869523Y-53014523D01*
X161774285Y-53109761D01*
X161679047Y-53157380D01*
X161488571Y-53157380D01*
X161393333Y-53109761D01*
X161298095Y-53014523D01*
X161250476Y-52824047D01*
X161250476Y-52490714D01*
X161298095Y-52300238D01*
X161393333Y-52205000D01*
X161488571Y-52157380D01*
X162298095Y-53109761D02*
X162440952Y-53157380D01*
X162679047Y-53157380D01*
X162774285Y-53109761D01*
X162821904Y-53062142D01*
X162869523Y-52966904D01*
X162869523Y-52871666D01*
X162821904Y-52776428D01*
X162774285Y-52728809D01*
X162679047Y-52681190D01*
X162488571Y-52633571D01*
X162393333Y-52585952D01*
X162345714Y-52538333D01*
X162298095Y-52443095D01*
X162298095Y-52347857D01*
X162345714Y-52252619D01*
X162393333Y-52205000D01*
X162488571Y-52157380D01*
X162726666Y-52157380D01*
X162869523Y-52205000D01*
X163298095Y-53157380D02*
X163298095Y-52157380D01*
X163536190Y-52157380D01*
X163679047Y-52205000D01*
X163774285Y-52300238D01*
X163821904Y-52395476D01*
X163869523Y-52585952D01*
X163869523Y-52728809D01*
X163821904Y-52919285D01*
X163774285Y-53014523D01*
X163679047Y-53109761D01*
X163536190Y-53157380D01*
X163298095Y-53157380D01*
X123668404Y-112530000D02*
X123573166Y-112482380D01*
X123430309Y-112482380D01*
X123287452Y-112530000D01*
X123192214Y-112625238D01*
X123144595Y-112720476D01*
X123096976Y-112910952D01*
X123096976Y-113053809D01*
X123144595Y-113244285D01*
X123192214Y-113339523D01*
X123287452Y-113434761D01*
X123430309Y-113482380D01*
X123525547Y-113482380D01*
X123668404Y-113434761D01*
X123716023Y-113387142D01*
X123716023Y-113053809D01*
X123525547Y-113053809D01*
X124144595Y-113482380D02*
X124144595Y-112482380D01*
X124716023Y-113482380D01*
X124716023Y-112482380D01*
X125192214Y-113482380D02*
X125192214Y-112482380D01*
X125430309Y-112482380D01*
X125573166Y-112530000D01*
X125668404Y-112625238D01*
X125716023Y-112720476D01*
X125763642Y-112910952D01*
X125763642Y-113053809D01*
X125716023Y-113244285D01*
X125668404Y-113339523D01*
X125573166Y-113434761D01*
X125430309Y-113482380D01*
X125192214Y-113482380D01*
X119634095Y-52205000D02*
X119538857Y-52157380D01*
X119396000Y-52157380D01*
X119253142Y-52205000D01*
X119157904Y-52300238D01*
X119110285Y-52395476D01*
X119062666Y-52585952D01*
X119062666Y-52728809D01*
X119110285Y-52919285D01*
X119157904Y-53014523D01*
X119253142Y-53109761D01*
X119396000Y-53157380D01*
X119491238Y-53157380D01*
X119634095Y-53109761D01*
X119681714Y-53062142D01*
X119681714Y-52728809D01*
X119491238Y-52728809D01*
X120110285Y-53157380D02*
X120110285Y-52157380D01*
X120681714Y-53157380D01*
X120681714Y-52157380D01*
X121157904Y-53157380D02*
X121157904Y-52157380D01*
X121396000Y-52157380D01*
X121538857Y-52205000D01*
X121634095Y-52300238D01*
X121681714Y-52395476D01*
X121729333Y-52585952D01*
X121729333Y-52728809D01*
X121681714Y-52919285D01*
X121634095Y-53014523D01*
X121538857Y-53109761D01*
X121396000Y-53157380D01*
X121157904Y-53157380D01*
X135342380Y-65857380D02*
X135009047Y-65381190D01*
X134770952Y-65857380D02*
X134770952Y-64857380D01*
X135151904Y-64857380D01*
X135247142Y-64905000D01*
X135294761Y-64952619D01*
X135342380Y-65047857D01*
X135342380Y-65190714D01*
X135294761Y-65285952D01*
X135247142Y-65333571D01*
X135151904Y-65381190D01*
X134770952Y-65381190D01*
X135723333Y-65809761D02*
X135866190Y-65857380D01*
X136104285Y-65857380D01*
X136199523Y-65809761D01*
X136247142Y-65762142D01*
X136294761Y-65666904D01*
X136294761Y-65571666D01*
X136247142Y-65476428D01*
X136199523Y-65428809D01*
X136104285Y-65381190D01*
X135913809Y-65333571D01*
X135818571Y-65285952D01*
X135770952Y-65238333D01*
X135723333Y-65143095D01*
X135723333Y-65047857D01*
X135770952Y-64952619D01*
X135818571Y-64905000D01*
X135913809Y-64857380D01*
X136151904Y-64857380D01*
X136294761Y-64905000D01*
X136580476Y-64857380D02*
X137151904Y-64857380D01*
X136866190Y-65857380D02*
X136866190Y-64857380D01*
X128405000Y-86838214D02*
X128357380Y-86933452D01*
X128357380Y-87076309D01*
X128405000Y-87219166D01*
X128500238Y-87314404D01*
X128595476Y-87362023D01*
X128785952Y-87409642D01*
X128928809Y-87409642D01*
X129119285Y-87362023D01*
X129214523Y-87314404D01*
X129309761Y-87219166D01*
X129357380Y-87076309D01*
X129357380Y-86981071D01*
X129309761Y-86838214D01*
X129262142Y-86790595D01*
X128928809Y-86790595D01*
X128928809Y-86981071D01*
X129357380Y-86362023D02*
X128357380Y-86362023D01*
X129357380Y-85790595D01*
X128357380Y-85790595D01*
X129357380Y-85314404D02*
X128357380Y-85314404D01*
X128357380Y-85076309D01*
X128405000Y-84933452D01*
X128500238Y-84838214D01*
X128595476Y-84790595D01*
X128785952Y-84742976D01*
X128928809Y-84742976D01*
X129119285Y-84790595D01*
X129214523Y-84838214D01*
X129309761Y-84933452D01*
X129357380Y-85076309D01*
X129357380Y-85314404D01*
X162695000Y-110900595D02*
X162647380Y-110995833D01*
X162647380Y-111138690D01*
X162695000Y-111281547D01*
X162790238Y-111376785D01*
X162885476Y-111424404D01*
X163075952Y-111472023D01*
X163218809Y-111472023D01*
X163409285Y-111424404D01*
X163504523Y-111376785D01*
X163599761Y-111281547D01*
X163647380Y-111138690D01*
X163647380Y-111043452D01*
X163599761Y-110900595D01*
X163552142Y-110852976D01*
X163218809Y-110852976D01*
X163218809Y-111043452D01*
X163647380Y-110424404D02*
X162647380Y-110424404D01*
X163647380Y-109852976D01*
X162647380Y-109852976D01*
X163647380Y-109376785D02*
X162647380Y-109376785D01*
X162647380Y-109138690D01*
X162695000Y-108995833D01*
X162790238Y-108900595D01*
X162885476Y-108852976D01*
X163075952Y-108805357D01*
X163218809Y-108805357D01*
X163409285Y-108852976D01*
X163504523Y-108900595D01*
X163599761Y-108995833D01*
X163647380Y-109138690D01*
X163647380Y-109376785D01*
X154717857Y-118562380D02*
X154717857Y-117562380D01*
X155051190Y-118276666D01*
X155384523Y-117562380D01*
X155384523Y-118562380D01*
X156051190Y-117562380D02*
X156241666Y-117562380D01*
X156336904Y-117610000D01*
X156432142Y-117705238D01*
X156479761Y-117895714D01*
X156479761Y-118229047D01*
X156432142Y-118419523D01*
X156336904Y-118514761D01*
X156241666Y-118562380D01*
X156051190Y-118562380D01*
X155955952Y-118514761D01*
X155860714Y-118419523D01*
X155813095Y-118229047D01*
X155813095Y-117895714D01*
X155860714Y-117705238D01*
X155955952Y-117610000D01*
X156051190Y-117562380D01*
X147284428Y-106587642D02*
X147498714Y-106659071D01*
X147855857Y-106659071D01*
X147998714Y-106587642D01*
X148070142Y-106516214D01*
X148141571Y-106373357D01*
X148141571Y-106230500D01*
X148070142Y-106087642D01*
X147998714Y-106016214D01*
X147855857Y-105944785D01*
X147570142Y-105873357D01*
X147427285Y-105801928D01*
X147355857Y-105730500D01*
X147284428Y-105587642D01*
X147284428Y-105444785D01*
X147355857Y-105301928D01*
X147427285Y-105230500D01*
X147570142Y-105159071D01*
X147927285Y-105159071D01*
X148141571Y-105230500D01*
X148784428Y-106659071D02*
X148784428Y-105159071D01*
X149141571Y-105159071D01*
X149355857Y-105230500D01*
X149498714Y-105373357D01*
X149570142Y-105516214D01*
X149641571Y-105801928D01*
X149641571Y-106016214D01*
X149570142Y-106301928D01*
X149498714Y-106444785D01*
X149355857Y-106587642D01*
X149141571Y-106659071D01*
X148784428Y-106659071D01*
X146784428Y-108931214D02*
X146713000Y-109002642D01*
X146498714Y-109074071D01*
X146355857Y-109074071D01*
X146141571Y-109002642D01*
X145998714Y-108859785D01*
X145927285Y-108716928D01*
X145855857Y-108431214D01*
X145855857Y-108216928D01*
X145927285Y-107931214D01*
X145998714Y-107788357D01*
X146141571Y-107645500D01*
X146355857Y-107574071D01*
X146498714Y-107574071D01*
X146713000Y-107645500D01*
X146784428Y-107716928D01*
X147355857Y-108645500D02*
X148070142Y-108645500D01*
X147213000Y-109074071D02*
X147713000Y-107574071D01*
X148213000Y-109074071D01*
X149570142Y-109074071D02*
X149070142Y-108359785D01*
X148713000Y-109074071D02*
X148713000Y-107574071D01*
X149284428Y-107574071D01*
X149427285Y-107645500D01*
X149498714Y-107716928D01*
X149570142Y-107859785D01*
X149570142Y-108074071D01*
X149498714Y-108216928D01*
X149427285Y-108288357D01*
X149284428Y-108359785D01*
X148713000Y-108359785D01*
X150213000Y-109074071D02*
X150213000Y-107574071D01*
X150570142Y-107574071D01*
X150784428Y-107645500D01*
X150927285Y-107788357D01*
X150998714Y-107931214D01*
X151070142Y-108216928D01*
X151070142Y-108431214D01*
X150998714Y-108716928D01*
X150927285Y-108859785D01*
X150784428Y-109002642D01*
X150570142Y-109074071D01*
X150213000Y-109074071D01*
X134028571Y-98864857D02*
X132528571Y-98864857D01*
X133600000Y-98364857D01*
X132528571Y-97864857D01*
X134028571Y-97864857D01*
X133600000Y-97222000D02*
X133600000Y-96507714D01*
X134028571Y-97364857D02*
X132528571Y-96864857D01*
X134028571Y-96364857D01*
X132528571Y-96007714D02*
X134028571Y-95007714D01*
X132528571Y-95007714D02*
X134028571Y-96007714D01*
X132528571Y-94579142D02*
X132528571Y-93650571D01*
X133100000Y-94150571D01*
X133100000Y-93936285D01*
X133171428Y-93793428D01*
X133242857Y-93722000D01*
X133385714Y-93650571D01*
X133742857Y-93650571D01*
X133885714Y-93722000D01*
X133957142Y-93793428D01*
X134028571Y-93936285D01*
X134028571Y-94364857D01*
X133957142Y-94507714D01*
X133885714Y-94579142D01*
X133028571Y-92364857D02*
X134028571Y-92364857D01*
X132457142Y-92722000D02*
X133528571Y-93079142D01*
X133528571Y-92150571D01*
X132671428Y-91650571D02*
X132600000Y-91579142D01*
X132528571Y-91436285D01*
X132528571Y-91079142D01*
X132600000Y-90936285D01*
X132671428Y-90864857D01*
X132814285Y-90793428D01*
X132957142Y-90793428D01*
X133171428Y-90864857D01*
X134028571Y-91722000D01*
X134028571Y-90793428D01*
X134028571Y-89364857D02*
X134028571Y-90222000D01*
X134028571Y-89793428D02*
X132528571Y-89793428D01*
X132742857Y-89936285D01*
X132885714Y-90079142D01*
X132957142Y-90222000D01*
X133242857Y-88722000D02*
X133242857Y-88222000D01*
X134028571Y-88007714D02*
X134028571Y-88722000D01*
X132528571Y-88722000D01*
X132528571Y-88007714D01*
X159369285Y-118514761D02*
X159512142Y-118562380D01*
X159750238Y-118562380D01*
X159845476Y-118514761D01*
X159893095Y-118467142D01*
X159940714Y-118371904D01*
X159940714Y-118276666D01*
X159893095Y-118181428D01*
X159845476Y-118133809D01*
X159750238Y-118086190D01*
X159559761Y-118038571D01*
X159464523Y-117990952D01*
X159416904Y-117943333D01*
X159369285Y-117848095D01*
X159369285Y-117752857D01*
X159416904Y-117657619D01*
X159464523Y-117610000D01*
X159559761Y-117562380D01*
X159797857Y-117562380D01*
X159940714Y-117610000D01*
X160940714Y-118467142D02*
X160893095Y-118514761D01*
X160750238Y-118562380D01*
X160655000Y-118562380D01*
X160512142Y-118514761D01*
X160416904Y-118419523D01*
X160369285Y-118324285D01*
X160321666Y-118133809D01*
X160321666Y-117990952D01*
X160369285Y-117800476D01*
X160416904Y-117705238D01*
X160512142Y-117610000D01*
X160655000Y-117562380D01*
X160750238Y-117562380D01*
X160893095Y-117610000D01*
X160940714Y-117657619D01*
X161369285Y-118562380D02*
X161369285Y-117562380D01*
X161940714Y-118562380D02*
X161512142Y-117990952D01*
X161940714Y-117562380D02*
X161369285Y-118133809D01*
X138938095Y-64905000D02*
X138842857Y-64857380D01*
X138700000Y-64857380D01*
X138557142Y-64905000D01*
X138461904Y-65000238D01*
X138414285Y-65095476D01*
X138366666Y-65285952D01*
X138366666Y-65428809D01*
X138414285Y-65619285D01*
X138461904Y-65714523D01*
X138557142Y-65809761D01*
X138700000Y-65857380D01*
X138795238Y-65857380D01*
X138938095Y-65809761D01*
X138985714Y-65762142D01*
X138985714Y-65428809D01*
X138795238Y-65428809D01*
X139414285Y-65857380D02*
X139414285Y-64857380D01*
X139985714Y-65857380D01*
X139985714Y-64857380D01*
X140461904Y-65857380D02*
X140461904Y-64857380D01*
X140700000Y-64857380D01*
X140842857Y-64905000D01*
X140938095Y-65000238D01*
X140985714Y-65095476D01*
X141033333Y-65285952D01*
X141033333Y-65428809D01*
X140985714Y-65619285D01*
X140938095Y-65714523D01*
X140842857Y-65809761D01*
X140700000Y-65857380D01*
X140461904Y-65857380D01*
X165187380Y-111519642D02*
X165187380Y-110900595D01*
X165568333Y-111233928D01*
X165568333Y-111091071D01*
X165615952Y-110995833D01*
X165663571Y-110948214D01*
X165758809Y-110900595D01*
X165996904Y-110900595D01*
X166092142Y-110948214D01*
X166139761Y-110995833D01*
X166187380Y-111091071D01*
X166187380Y-111376785D01*
X166139761Y-111472023D01*
X166092142Y-111519642D01*
X165187380Y-110614880D02*
X166187380Y-110281547D01*
X165187380Y-109948214D01*
X165187380Y-109710119D02*
X165187380Y-109091071D01*
X165568333Y-109424404D01*
X165568333Y-109281547D01*
X165615952Y-109186309D01*
X165663571Y-109138690D01*
X165758809Y-109091071D01*
X165996904Y-109091071D01*
X166092142Y-109138690D01*
X166139761Y-109186309D01*
X166187380Y-109281547D01*
X166187380Y-109567261D01*
X166139761Y-109662500D01*
X166092142Y-109710119D01*
X115784380Y-116889547D02*
X115784380Y-116270500D01*
X116165333Y-116603833D01*
X116165333Y-116460976D01*
X116212952Y-116365738D01*
X116260571Y-116318119D01*
X116355809Y-116270500D01*
X116593904Y-116270500D01*
X116689142Y-116318119D01*
X116736761Y-116365738D01*
X116784380Y-116460976D01*
X116784380Y-116746690D01*
X116736761Y-116841928D01*
X116689142Y-116889547D01*
X115784380Y-115984785D02*
X116784380Y-115651452D01*
X115784380Y-115318119D01*
X115784380Y-115080023D02*
X115784380Y-114460976D01*
X116165333Y-114794309D01*
X116165333Y-114651452D01*
X116212952Y-114556214D01*
X116260571Y-114508595D01*
X116355809Y-114460976D01*
X116593904Y-114460976D01*
X116689142Y-114508595D01*
X116736761Y-114556214D01*
X116784380Y-114651452D01*
X116784380Y-114937166D01*
X116736761Y-115032404D01*
X116689142Y-115080023D01*
X131485000Y-107402380D02*
X131008809Y-107402380D01*
X130961190Y-107878571D01*
X131008809Y-107830952D01*
X131104047Y-107783333D01*
X131342142Y-107783333D01*
X131437380Y-107830952D01*
X131485000Y-107878571D01*
X131532619Y-107973809D01*
X131532619Y-108211904D01*
X131485000Y-108307142D01*
X131437380Y-108354761D01*
X131342142Y-108402380D01*
X131104047Y-108402380D01*
X131008809Y-108354761D01*
X130961190Y-108307142D01*
X131818333Y-107402380D02*
X132151666Y-108402380D01*
X132485000Y-107402380D01*
X133437380Y-107402380D02*
X133770714Y-108402380D01*
X134104047Y-107402380D01*
X134770714Y-107878571D02*
X134913571Y-107926190D01*
X134961190Y-107973809D01*
X135008809Y-108069047D01*
X135008809Y-108211904D01*
X134961190Y-108307142D01*
X134913571Y-108354761D01*
X134818333Y-108402380D01*
X134437380Y-108402380D01*
X134437380Y-107402380D01*
X134770714Y-107402380D01*
X134865952Y-107450000D01*
X134913571Y-107497619D01*
X134961190Y-107592857D01*
X134961190Y-107688095D01*
X134913571Y-107783333D01*
X134865952Y-107830952D01*
X134770714Y-107878571D01*
X134437380Y-107878571D01*
X135437380Y-107402380D02*
X135437380Y-108211904D01*
X135485000Y-108307142D01*
X135532619Y-108354761D01*
X135627857Y-108402380D01*
X135818333Y-108402380D01*
X135913571Y-108354761D01*
X135961190Y-108307142D01*
X136008809Y-108211904D01*
X136008809Y-107402380D01*
X136437380Y-108354761D02*
X136580238Y-108402380D01*
X136818333Y-108402380D01*
X136913571Y-108354761D01*
X136961190Y-108307142D01*
X137008809Y-108211904D01*
X137008809Y-108116666D01*
X136961190Y-108021428D01*
X136913571Y-107973809D01*
X136818333Y-107926190D01*
X136627857Y-107878571D01*
X136532619Y-107830952D01*
X136485000Y-107783333D01*
X136437380Y-107688095D01*
X136437380Y-107592857D01*
X136485000Y-107497619D01*
X136532619Y-107450000D01*
X136627857Y-107402380D01*
X136865952Y-107402380D01*
X137008809Y-107450000D01*
X154813095Y-111529761D02*
X154955952Y-111577380D01*
X155194047Y-111577380D01*
X155289285Y-111529761D01*
X155336904Y-111482142D01*
X155384523Y-111386904D01*
X155384523Y-111291666D01*
X155336904Y-111196428D01*
X155289285Y-111148809D01*
X155194047Y-111101190D01*
X155003571Y-111053571D01*
X154908333Y-111005952D01*
X154860714Y-110958333D01*
X154813095Y-110863095D01*
X154813095Y-110767857D01*
X154860714Y-110672619D01*
X154908333Y-110625000D01*
X155003571Y-110577380D01*
X155241666Y-110577380D01*
X155384523Y-110625000D01*
X156241666Y-110910714D02*
X156241666Y-111577380D01*
X156003571Y-110529761D02*
X155765476Y-111244047D01*
X156384523Y-111244047D01*
X152487380Y-111577380D02*
X152154047Y-111101190D01*
X151915952Y-111577380D02*
X151915952Y-110577380D01*
X152296904Y-110577380D01*
X152392142Y-110625000D01*
X152439761Y-110672619D01*
X152487380Y-110767857D01*
X152487380Y-110910714D01*
X152439761Y-111005952D01*
X152392142Y-111053571D01*
X152296904Y-111101190D01*
X151915952Y-111101190D01*
X152868333Y-111529761D02*
X153011190Y-111577380D01*
X153249285Y-111577380D01*
X153344523Y-111529761D01*
X153392142Y-111482142D01*
X153439761Y-111386904D01*
X153439761Y-111291666D01*
X153392142Y-111196428D01*
X153344523Y-111148809D01*
X153249285Y-111101190D01*
X153058809Y-111053571D01*
X152963571Y-111005952D01*
X152915952Y-110958333D01*
X152868333Y-110863095D01*
X152868333Y-110767857D01*
X152915952Y-110672619D01*
X152963571Y-110625000D01*
X153058809Y-110577380D01*
X153296904Y-110577380D01*
X153439761Y-110625000D01*
X153725476Y-110577380D02*
X154296904Y-110577380D01*
X154011190Y-111577380D02*
X154011190Y-110577380D01*
X157543571Y-118562380D02*
X157543571Y-117562380D01*
X157876904Y-118276666D01*
X158210238Y-117562380D01*
X158210238Y-118562380D01*
X158686428Y-118562380D02*
X158686428Y-117562380D01*
X140128809Y-118562380D02*
X140128809Y-117562380D01*
X140366904Y-117562380D01*
X140509761Y-117610000D01*
X140605000Y-117705238D01*
X140652619Y-117800476D01*
X140700238Y-117990952D01*
X140700238Y-118133809D01*
X140652619Y-118324285D01*
X140605000Y-118419523D01*
X140509761Y-118514761D01*
X140366904Y-118562380D01*
X140128809Y-118562380D01*
X141128809Y-118562380D02*
X141128809Y-117562380D01*
X141557380Y-118514761D02*
X141700238Y-118562380D01*
X141938333Y-118562380D01*
X142033571Y-118514761D01*
X142081190Y-118467142D01*
X142128809Y-118371904D01*
X142128809Y-118276666D01*
X142081190Y-118181428D01*
X142033571Y-118133809D01*
X141938333Y-118086190D01*
X141747857Y-118038571D01*
X141652619Y-117990952D01*
X141605000Y-117943333D01*
X141557380Y-117848095D01*
X141557380Y-117752857D01*
X141605000Y-117657619D01*
X141652619Y-117610000D01*
X141747857Y-117562380D01*
X141985952Y-117562380D01*
X142128809Y-117610000D01*
X142557380Y-118562380D02*
X142557380Y-117562380D01*
X143128809Y-118562380D02*
X142700238Y-117990952D01*
X143128809Y-117562380D02*
X142557380Y-118133809D01*
X149196428Y-84542380D02*
X149434523Y-85542380D01*
X149625000Y-84828095D01*
X149815476Y-85542380D01*
X150053571Y-84542380D01*
X150434523Y-85542380D02*
X150434523Y-84542380D01*
X150815476Y-84542380D01*
X150910714Y-84590000D01*
X150958333Y-84637619D01*
X151005952Y-84732857D01*
X151005952Y-84875714D01*
X150958333Y-84970952D01*
X150910714Y-85018571D01*
X150815476Y-85066190D01*
X150434523Y-85066190D01*
X124968095Y-52157380D02*
X125539523Y-52157380D01*
X125253809Y-53157380D02*
X125253809Y-52157380D01*
X125777619Y-52157380D02*
X126444285Y-53157380D01*
X126444285Y-52157380D02*
X125777619Y-53157380D01*
X145986666Y-65809761D02*
X146129523Y-65857380D01*
X146367619Y-65857380D01*
X146462857Y-65809761D01*
X146510476Y-65762142D01*
X146558095Y-65666904D01*
X146558095Y-65571666D01*
X146510476Y-65476428D01*
X146462857Y-65428809D01*
X146367619Y-65381190D01*
X146177142Y-65333571D01*
X146081904Y-65285952D01*
X146034285Y-65238333D01*
X145986666Y-65143095D01*
X145986666Y-65047857D01*
X146034285Y-64952619D01*
X146081904Y-64905000D01*
X146177142Y-64857380D01*
X146415238Y-64857380D01*
X146558095Y-64905000D01*
X146891428Y-64857380D02*
X147129523Y-65857380D01*
X147320000Y-65143095D01*
X147510476Y-65857380D01*
X147748571Y-64857380D01*
X148081904Y-64952619D02*
X148129523Y-64905000D01*
X148224761Y-64857380D01*
X148462857Y-64857380D01*
X148558095Y-64905000D01*
X148605714Y-64952619D01*
X148653333Y-65047857D01*
X148653333Y-65143095D01*
X148605714Y-65285952D01*
X148034285Y-65857380D01*
X148653333Y-65857380D01*
%TO.C,J9*%
X115657380Y-103203333D02*
X116371666Y-103203333D01*
X116514523Y-103250952D01*
X116609761Y-103346190D01*
X116657380Y-103489047D01*
X116657380Y-103584285D01*
X116657380Y-102679523D02*
X116657380Y-102489047D01*
X116609761Y-102393809D01*
X116562142Y-102346190D01*
X116419285Y-102250952D01*
X116228809Y-102203333D01*
X115847857Y-102203333D01*
X115752619Y-102250952D01*
X115705000Y-102298571D01*
X115657380Y-102393809D01*
X115657380Y-102584285D01*
X115705000Y-102679523D01*
X115752619Y-102727142D01*
X115847857Y-102774761D01*
X116085952Y-102774761D01*
X116181190Y-102727142D01*
X116228809Y-102679523D01*
X116276428Y-102584285D01*
X116276428Y-102393809D01*
X116228809Y-102298571D01*
X116181190Y-102250952D01*
X116085952Y-102203333D01*
%TO.C,D1*%
X140947904Y-115032380D02*
X140947904Y-114032380D01*
X141186000Y-114032380D01*
X141328857Y-114080000D01*
X141424095Y-114175238D01*
X141471714Y-114270476D01*
X141519333Y-114460952D01*
X141519333Y-114603809D01*
X141471714Y-114794285D01*
X141424095Y-114889523D01*
X141328857Y-114984761D01*
X141186000Y-115032380D01*
X140947904Y-115032380D01*
X142471714Y-115032380D02*
X141900285Y-115032380D01*
X142186000Y-115032380D02*
X142186000Y-114032380D01*
X142090761Y-114175238D01*
X141995523Y-114270476D01*
X141900285Y-114318095D01*
%TO.C,J10*%
X117562380Y-56689523D02*
X118276666Y-56689523D01*
X118419523Y-56737142D01*
X118514761Y-56832380D01*
X118562380Y-56975238D01*
X118562380Y-57070476D01*
X118562380Y-55689523D02*
X118562380Y-56260952D01*
X118562380Y-55975238D02*
X117562380Y-55975238D01*
X117705238Y-56070476D01*
X117800476Y-56165714D01*
X117848095Y-56260952D01*
X117562380Y-55070476D02*
X117562380Y-54975238D01*
X117610000Y-54880000D01*
X117657619Y-54832380D01*
X117752857Y-54784761D01*
X117943333Y-54737142D01*
X118181428Y-54737142D01*
X118371904Y-54784761D01*
X118467142Y-54832380D01*
X118514761Y-54880000D01*
X118562380Y-54975238D01*
X118562380Y-55070476D01*
X118514761Y-55165714D01*
X118467142Y-55213333D01*
X118371904Y-55260952D01*
X118181428Y-55308571D01*
X117943333Y-55308571D01*
X117752857Y-55260952D01*
X117657619Y-55213333D01*
X117610000Y-55165714D01*
X117562380Y-55070476D01*
%TO.C,J2*%
X139366666Y-104862380D02*
X139366666Y-105576666D01*
X139319047Y-105719523D01*
X139223809Y-105814761D01*
X139080952Y-105862380D01*
X138985714Y-105862380D01*
X139795238Y-104957619D02*
X139842857Y-104910000D01*
X139938095Y-104862380D01*
X140176190Y-104862380D01*
X140271428Y-104910000D01*
X140319047Y-104957619D01*
X140366666Y-105052857D01*
X140366666Y-105148095D01*
X140319047Y-105290952D01*
X139747619Y-105862380D01*
X140366666Y-105862380D01*
%TO.C,R10*%
X165727142Y-102512380D02*
X165393809Y-102036190D01*
X165155714Y-102512380D02*
X165155714Y-101512380D01*
X165536666Y-101512380D01*
X165631904Y-101560000D01*
X165679523Y-101607619D01*
X165727142Y-101702857D01*
X165727142Y-101845714D01*
X165679523Y-101940952D01*
X165631904Y-101988571D01*
X165536666Y-102036190D01*
X165155714Y-102036190D01*
X166679523Y-102512380D02*
X166108095Y-102512380D01*
X166393809Y-102512380D02*
X166393809Y-101512380D01*
X166298571Y-101655238D01*
X166203333Y-101750476D01*
X166108095Y-101798095D01*
X167298571Y-101512380D02*
X167393809Y-101512380D01*
X167489047Y-101560000D01*
X167536666Y-101607619D01*
X167584285Y-101702857D01*
X167631904Y-101893333D01*
X167631904Y-102131428D01*
X167584285Y-102321904D01*
X167536666Y-102417142D01*
X167489047Y-102464761D01*
X167393809Y-102512380D01*
X167298571Y-102512380D01*
X167203333Y-102464761D01*
X167155714Y-102417142D01*
X167108095Y-102321904D01*
X167060476Y-102131428D01*
X167060476Y-101893333D01*
X167108095Y-101702857D01*
X167155714Y-101607619D01*
X167203333Y-101560000D01*
X167298571Y-101512380D01*
%TO.C,J6*%
X119300666Y-107612380D02*
X119300666Y-108326666D01*
X119253047Y-108469523D01*
X119157809Y-108564761D01*
X119014952Y-108612380D01*
X118919714Y-108612380D01*
X120205428Y-107612380D02*
X120014952Y-107612380D01*
X119919714Y-107660000D01*
X119872095Y-107707619D01*
X119776857Y-107850476D01*
X119729238Y-108040952D01*
X119729238Y-108421904D01*
X119776857Y-108517142D01*
X119824476Y-108564761D01*
X119919714Y-108612380D01*
X120110190Y-108612380D01*
X120205428Y-108564761D01*
X120253047Y-108517142D01*
X120300666Y-108421904D01*
X120300666Y-108183809D01*
X120253047Y-108088571D01*
X120205428Y-108040952D01*
X120110190Y-107993333D01*
X119919714Y-107993333D01*
X119824476Y-108040952D01*
X119776857Y-108088571D01*
X119729238Y-108183809D01*
%TO.C,R12*%
X141043142Y-111197380D02*
X140709809Y-110721190D01*
X140471714Y-111197380D02*
X140471714Y-110197380D01*
X140852666Y-110197380D01*
X140947904Y-110245000D01*
X140995523Y-110292619D01*
X141043142Y-110387857D01*
X141043142Y-110530714D01*
X140995523Y-110625952D01*
X140947904Y-110673571D01*
X140852666Y-110721190D01*
X140471714Y-110721190D01*
X141995523Y-111197380D02*
X141424095Y-111197380D01*
X141709809Y-111197380D02*
X141709809Y-110197380D01*
X141614571Y-110340238D01*
X141519333Y-110435476D01*
X141424095Y-110483095D01*
X142376476Y-110292619D02*
X142424095Y-110245000D01*
X142519333Y-110197380D01*
X142757428Y-110197380D01*
X142852666Y-110245000D01*
X142900285Y-110292619D01*
X142947904Y-110387857D01*
X142947904Y-110483095D01*
X142900285Y-110625952D01*
X142328857Y-111197380D01*
X142947904Y-111197380D01*
%TO.C,SW4*%
X161226666Y-68984761D02*
X161369523Y-69032380D01*
X161607619Y-69032380D01*
X161702857Y-68984761D01*
X161750476Y-68937142D01*
X161798095Y-68841904D01*
X161798095Y-68746666D01*
X161750476Y-68651428D01*
X161702857Y-68603809D01*
X161607619Y-68556190D01*
X161417142Y-68508571D01*
X161321904Y-68460952D01*
X161274285Y-68413333D01*
X161226666Y-68318095D01*
X161226666Y-68222857D01*
X161274285Y-68127619D01*
X161321904Y-68080000D01*
X161417142Y-68032380D01*
X161655238Y-68032380D01*
X161798095Y-68080000D01*
X162131428Y-68032380D02*
X162369523Y-69032380D01*
X162560000Y-68318095D01*
X162750476Y-69032380D01*
X162988571Y-68032380D01*
X163798095Y-68365714D02*
X163798095Y-69032380D01*
X163560000Y-67984761D02*
X163321904Y-68699047D01*
X163940952Y-68699047D01*
%TO.C,R8*%
X153873333Y-68312380D02*
X153540000Y-67836190D01*
X153301904Y-68312380D02*
X153301904Y-67312380D01*
X153682857Y-67312380D01*
X153778095Y-67360000D01*
X153825714Y-67407619D01*
X153873333Y-67502857D01*
X153873333Y-67645714D01*
X153825714Y-67740952D01*
X153778095Y-67788571D01*
X153682857Y-67836190D01*
X153301904Y-67836190D01*
X154444761Y-67740952D02*
X154349523Y-67693333D01*
X154301904Y-67645714D01*
X154254285Y-67550476D01*
X154254285Y-67502857D01*
X154301904Y-67407619D01*
X154349523Y-67360000D01*
X154444761Y-67312380D01*
X154635238Y-67312380D01*
X154730476Y-67360000D01*
X154778095Y-67407619D01*
X154825714Y-67502857D01*
X154825714Y-67550476D01*
X154778095Y-67645714D01*
X154730476Y-67693333D01*
X154635238Y-67740952D01*
X154444761Y-67740952D01*
X154349523Y-67788571D01*
X154301904Y-67836190D01*
X154254285Y-67931428D01*
X154254285Y-68121904D01*
X154301904Y-68217142D01*
X154349523Y-68264761D01*
X154444761Y-68312380D01*
X154635238Y-68312380D01*
X154730476Y-68264761D01*
X154778095Y-68217142D01*
X154825714Y-68121904D01*
X154825714Y-67931428D01*
X154778095Y-67836190D01*
X154730476Y-67788571D01*
X154635238Y-67740952D01*
%TO.C,R9*%
X166203333Y-98917380D02*
X165870000Y-98441190D01*
X165631904Y-98917380D02*
X165631904Y-97917380D01*
X166012857Y-97917380D01*
X166108095Y-97965000D01*
X166155714Y-98012619D01*
X166203333Y-98107857D01*
X166203333Y-98250714D01*
X166155714Y-98345952D01*
X166108095Y-98393571D01*
X166012857Y-98441190D01*
X165631904Y-98441190D01*
X166679523Y-98917380D02*
X166870000Y-98917380D01*
X166965238Y-98869761D01*
X167012857Y-98822142D01*
X167108095Y-98679285D01*
X167155714Y-98488809D01*
X167155714Y-98107857D01*
X167108095Y-98012619D01*
X167060476Y-97965000D01*
X166965238Y-97917380D01*
X166774761Y-97917380D01*
X166679523Y-97965000D01*
X166631904Y-98012619D01*
X166584285Y-98107857D01*
X166584285Y-98345952D01*
X166631904Y-98441190D01*
X166679523Y-98488809D01*
X166774761Y-98536428D01*
X166965238Y-98536428D01*
X167060476Y-98488809D01*
X167108095Y-98441190D01*
X167155714Y-98345952D01*
%TO.C,J3*%
X126666666Y-105092380D02*
X126666666Y-105806666D01*
X126619047Y-105949523D01*
X126523809Y-106044761D01*
X126380952Y-106092380D01*
X126285714Y-106092380D01*
X127047619Y-105092380D02*
X127666666Y-105092380D01*
X127333333Y-105473333D01*
X127476190Y-105473333D01*
X127571428Y-105520952D01*
X127619047Y-105568571D01*
X127666666Y-105663809D01*
X127666666Y-105901904D01*
X127619047Y-105997142D01*
X127571428Y-106044761D01*
X127476190Y-106092380D01*
X127190476Y-106092380D01*
X127095238Y-106044761D01*
X127047619Y-105997142D01*
%TO.C,JP4*%
X143172380Y-68778333D02*
X143886666Y-68778333D01*
X144029523Y-68825952D01*
X144124761Y-68921190D01*
X144172380Y-69064047D01*
X144172380Y-69159285D01*
X144172380Y-68302142D02*
X143172380Y-68302142D01*
X143172380Y-67921190D01*
X143220000Y-67825952D01*
X143267619Y-67778333D01*
X143362857Y-67730714D01*
X143505714Y-67730714D01*
X143600952Y-67778333D01*
X143648571Y-67825952D01*
X143696190Y-67921190D01*
X143696190Y-68302142D01*
X143505714Y-66873571D02*
X144172380Y-66873571D01*
X143124761Y-67111666D02*
X143839047Y-67349761D01*
X143839047Y-66730714D01*
%TO.C,R4*%
X153873333Y-52776380D02*
X153540000Y-52300190D01*
X153301904Y-52776380D02*
X153301904Y-51776380D01*
X153682857Y-51776380D01*
X153778095Y-51824000D01*
X153825714Y-51871619D01*
X153873333Y-51966857D01*
X153873333Y-52109714D01*
X153825714Y-52204952D01*
X153778095Y-52252571D01*
X153682857Y-52300190D01*
X153301904Y-52300190D01*
X154730476Y-52109714D02*
X154730476Y-52776380D01*
X154492380Y-51728761D02*
X154254285Y-52443047D01*
X154873333Y-52443047D01*
%TO.C,SW1*%
X136861666Y-58754761D02*
X137004523Y-58802380D01*
X137242619Y-58802380D01*
X137337857Y-58754761D01*
X137385476Y-58707142D01*
X137433095Y-58611904D01*
X137433095Y-58516666D01*
X137385476Y-58421428D01*
X137337857Y-58373809D01*
X137242619Y-58326190D01*
X137052142Y-58278571D01*
X136956904Y-58230952D01*
X136909285Y-58183333D01*
X136861666Y-58088095D01*
X136861666Y-57992857D01*
X136909285Y-57897619D01*
X136956904Y-57850000D01*
X137052142Y-57802380D01*
X137290238Y-57802380D01*
X137433095Y-57850000D01*
X137766428Y-57802380D02*
X138004523Y-58802380D01*
X138195000Y-58088095D01*
X138385476Y-58802380D01*
X138623571Y-57802380D01*
X139528333Y-58802380D02*
X138956904Y-58802380D01*
X139242619Y-58802380D02*
X139242619Y-57802380D01*
X139147380Y-57945238D01*
X139052142Y-58040476D01*
X138956904Y-58088095D01*
%TO.C,R7*%
X153873333Y-64502380D02*
X153540000Y-64026190D01*
X153301904Y-64502380D02*
X153301904Y-63502380D01*
X153682857Y-63502380D01*
X153778095Y-63550000D01*
X153825714Y-63597619D01*
X153873333Y-63692857D01*
X153873333Y-63835714D01*
X153825714Y-63930952D01*
X153778095Y-63978571D01*
X153682857Y-64026190D01*
X153301904Y-64026190D01*
X154206666Y-63502380D02*
X154873333Y-63502380D01*
X154444761Y-64502380D01*
%TO.C,R2*%
X153497380Y-91225666D02*
X153021190Y-91559000D01*
X153497380Y-91797095D02*
X152497380Y-91797095D01*
X152497380Y-91416142D01*
X152545000Y-91320904D01*
X152592619Y-91273285D01*
X152687857Y-91225666D01*
X152830714Y-91225666D01*
X152925952Y-91273285D01*
X152973571Y-91320904D01*
X153021190Y-91416142D01*
X153021190Y-91797095D01*
X152592619Y-90844714D02*
X152545000Y-90797095D01*
X152497380Y-90701857D01*
X152497380Y-90463761D01*
X152545000Y-90368523D01*
X152592619Y-90320904D01*
X152687857Y-90273285D01*
X152783095Y-90273285D01*
X152925952Y-90320904D01*
X153497380Y-90892333D01*
X153497380Y-90273285D01*
%TO.C,JP3*%
X131532380Y-68778333D02*
X132246666Y-68778333D01*
X132389523Y-68825952D01*
X132484761Y-68921190D01*
X132532380Y-69064047D01*
X132532380Y-69159285D01*
X132532380Y-68302142D02*
X131532380Y-68302142D01*
X131532380Y-67921190D01*
X131580000Y-67825952D01*
X131627619Y-67778333D01*
X131722857Y-67730714D01*
X131865714Y-67730714D01*
X131960952Y-67778333D01*
X132008571Y-67825952D01*
X132056190Y-67921190D01*
X132056190Y-68302142D01*
X131532380Y-67397380D02*
X131532380Y-66778333D01*
X131913333Y-67111666D01*
X131913333Y-66968809D01*
X131960952Y-66873571D01*
X132008571Y-66825952D01*
X132103809Y-66778333D01*
X132341904Y-66778333D01*
X132437142Y-66825952D01*
X132484761Y-66873571D01*
X132532380Y-66968809D01*
X132532380Y-67254523D01*
X132484761Y-67349761D01*
X132437142Y-67397380D01*
%TO.C,J11*%
X165560476Y-80297380D02*
X165560476Y-81011666D01*
X165512857Y-81154523D01*
X165417619Y-81249761D01*
X165274761Y-81297380D01*
X165179523Y-81297380D01*
X166560476Y-81297380D02*
X165989047Y-81297380D01*
X166274761Y-81297380D02*
X166274761Y-80297380D01*
X166179523Y-80440238D01*
X166084285Y-80535476D01*
X165989047Y-80583095D01*
X167512857Y-81297380D02*
X166941428Y-81297380D01*
X167227142Y-81297380D02*
X167227142Y-80297380D01*
X167131904Y-80440238D01*
X167036666Y-80535476D01*
X166941428Y-80583095D01*
%TO.C,JP2*%
X129341666Y-80202380D02*
X129341666Y-80916666D01*
X129294047Y-81059523D01*
X129198809Y-81154761D01*
X129055952Y-81202380D01*
X128960714Y-81202380D01*
X129817857Y-81202380D02*
X129817857Y-80202380D01*
X130198809Y-80202380D01*
X130294047Y-80250000D01*
X130341666Y-80297619D01*
X130389285Y-80392857D01*
X130389285Y-80535714D01*
X130341666Y-80630952D01*
X130294047Y-80678571D01*
X130198809Y-80726190D01*
X129817857Y-80726190D01*
X130770238Y-80297619D02*
X130817857Y-80250000D01*
X130913095Y-80202380D01*
X131151190Y-80202380D01*
X131246428Y-80250000D01*
X131294047Y-80297619D01*
X131341666Y-80392857D01*
X131341666Y-80488095D01*
X131294047Y-80630952D01*
X130722619Y-81202380D01*
X131341666Y-81202380D01*
%TO.C,R1*%
X159218333Y-107132380D02*
X158885000Y-106656190D01*
X158646904Y-107132380D02*
X158646904Y-106132380D01*
X159027857Y-106132380D01*
X159123095Y-106180000D01*
X159170714Y-106227619D01*
X159218333Y-106322857D01*
X159218333Y-106465714D01*
X159170714Y-106560952D01*
X159123095Y-106608571D01*
X159027857Y-106656190D01*
X158646904Y-106656190D01*
X160170714Y-107132380D02*
X159599285Y-107132380D01*
X159885000Y-107132380D02*
X159885000Y-106132380D01*
X159789761Y-106275238D01*
X159694523Y-106370476D01*
X159599285Y-106418095D01*
%TO.C,J8*%
X115657380Y-67643333D02*
X116371666Y-67643333D01*
X116514523Y-67690952D01*
X116609761Y-67786190D01*
X116657380Y-67929047D01*
X116657380Y-68024285D01*
X116085952Y-67024285D02*
X116038333Y-67119523D01*
X115990714Y-67167142D01*
X115895476Y-67214761D01*
X115847857Y-67214761D01*
X115752619Y-67167142D01*
X115705000Y-67119523D01*
X115657380Y-67024285D01*
X115657380Y-66833809D01*
X115705000Y-66738571D01*
X115752619Y-66690952D01*
X115847857Y-66643333D01*
X115895476Y-66643333D01*
X115990714Y-66690952D01*
X116038333Y-66738571D01*
X116085952Y-66833809D01*
X116085952Y-67024285D01*
X116133571Y-67119523D01*
X116181190Y-67167142D01*
X116276428Y-67214761D01*
X116466904Y-67214761D01*
X116562142Y-67167142D01*
X116609761Y-67119523D01*
X116657380Y-67024285D01*
X116657380Y-66833809D01*
X116609761Y-66738571D01*
X116562142Y-66690952D01*
X116466904Y-66643333D01*
X116276428Y-66643333D01*
X116181190Y-66690952D01*
X116133571Y-66738571D01*
X116085952Y-66833809D01*
%TO.C,R6*%
X153830397Y-60532380D02*
X153497064Y-60056190D01*
X153258968Y-60532380D02*
X153258968Y-59532380D01*
X153639921Y-59532380D01*
X153735159Y-59580000D01*
X153782778Y-59627619D01*
X153830397Y-59722857D01*
X153830397Y-59865714D01*
X153782778Y-59960952D01*
X153735159Y-60008571D01*
X153639921Y-60056190D01*
X153258968Y-60056190D01*
X154687540Y-59532380D02*
X154497064Y-59532380D01*
X154401825Y-59580000D01*
X154354206Y-59627619D01*
X154258968Y-59770476D01*
X154211349Y-59960952D01*
X154211349Y-60341904D01*
X154258968Y-60437142D01*
X154306587Y-60484761D01*
X154401825Y-60532380D01*
X154592302Y-60532380D01*
X154687540Y-60484761D01*
X154735159Y-60437142D01*
X154782778Y-60341904D01*
X154782778Y-60103809D01*
X154735159Y-60008571D01*
X154687540Y-59960952D01*
X154592302Y-59913333D01*
X154401825Y-59913333D01*
X154306587Y-59960952D01*
X154258968Y-60008571D01*
X154211349Y-60103809D01*
%TO.C,SW3*%
X161226666Y-58774761D02*
X161369523Y-58822380D01*
X161607619Y-58822380D01*
X161702857Y-58774761D01*
X161750476Y-58727142D01*
X161798095Y-58631904D01*
X161798095Y-58536666D01*
X161750476Y-58441428D01*
X161702857Y-58393809D01*
X161607619Y-58346190D01*
X161417142Y-58298571D01*
X161321904Y-58250952D01*
X161274285Y-58203333D01*
X161226666Y-58108095D01*
X161226666Y-58012857D01*
X161274285Y-57917619D01*
X161321904Y-57870000D01*
X161417142Y-57822380D01*
X161655238Y-57822380D01*
X161798095Y-57870000D01*
X162131428Y-57822380D02*
X162369523Y-58822380D01*
X162560000Y-58108095D01*
X162750476Y-58822380D01*
X162988571Y-57822380D01*
X163274285Y-57822380D02*
X163893333Y-57822380D01*
X163560000Y-58203333D01*
X163702857Y-58203333D01*
X163798095Y-58250952D01*
X163845714Y-58298571D01*
X163893333Y-58393809D01*
X163893333Y-58631904D01*
X163845714Y-58727142D01*
X163798095Y-58774761D01*
X163702857Y-58822380D01*
X163417142Y-58822380D01*
X163321904Y-58774761D01*
X163274285Y-58727142D01*
%TO.C,R5*%
X153873333Y-56702380D02*
X153540000Y-56226190D01*
X153301904Y-56702380D02*
X153301904Y-55702380D01*
X153682857Y-55702380D01*
X153778095Y-55750000D01*
X153825714Y-55797619D01*
X153873333Y-55892857D01*
X153873333Y-56035714D01*
X153825714Y-56130952D01*
X153778095Y-56178571D01*
X153682857Y-56226190D01*
X153301904Y-56226190D01*
X154778095Y-55702380D02*
X154301904Y-55702380D01*
X154254285Y-56178571D01*
X154301904Y-56130952D01*
X154397142Y-56083333D01*
X154635238Y-56083333D01*
X154730476Y-56130952D01*
X154778095Y-56178571D01*
X154825714Y-56273809D01*
X154825714Y-56511904D01*
X154778095Y-56607142D01*
X154730476Y-56654761D01*
X154635238Y-56702380D01*
X154397142Y-56702380D01*
X154301904Y-56654761D01*
X154254285Y-56607142D01*
%TO.C,R11*%
X165727142Y-106244380D02*
X165393809Y-105768190D01*
X165155714Y-106244380D02*
X165155714Y-105244380D01*
X165536666Y-105244380D01*
X165631904Y-105292000D01*
X165679523Y-105339619D01*
X165727142Y-105434857D01*
X165727142Y-105577714D01*
X165679523Y-105672952D01*
X165631904Y-105720571D01*
X165536666Y-105768190D01*
X165155714Y-105768190D01*
X166679523Y-106244380D02*
X166108095Y-106244380D01*
X166393809Y-106244380D02*
X166393809Y-105244380D01*
X166298571Y-105387238D01*
X166203333Y-105482476D01*
X166108095Y-105530095D01*
X167631904Y-106244380D02*
X167060476Y-106244380D01*
X167346190Y-106244380D02*
X167346190Y-105244380D01*
X167250952Y-105387238D01*
X167155714Y-105482476D01*
X167060476Y-105530095D01*
%TO.C,JP5*%
X149026666Y-76922380D02*
X149026666Y-77636666D01*
X148979047Y-77779523D01*
X148883809Y-77874761D01*
X148740952Y-77922380D01*
X148645714Y-77922380D01*
X149502857Y-77922380D02*
X149502857Y-76922380D01*
X149883809Y-76922380D01*
X149979047Y-76970000D01*
X150026666Y-77017619D01*
X150074285Y-77112857D01*
X150074285Y-77255714D01*
X150026666Y-77350952D01*
X149979047Y-77398571D01*
X149883809Y-77446190D01*
X149502857Y-77446190D01*
X150979047Y-76922380D02*
X150502857Y-76922380D01*
X150455238Y-77398571D01*
X150502857Y-77350952D01*
X150598095Y-77303333D01*
X150836190Y-77303333D01*
X150931428Y-77350952D01*
X150979047Y-77398571D01*
X151026666Y-77493809D01*
X151026666Y-77731904D01*
X150979047Y-77827142D01*
X150931428Y-77874761D01*
X150836190Y-77922380D01*
X150598095Y-77922380D01*
X150502857Y-77874761D01*
X150455238Y-77827142D01*
%TO.C,R3*%
X143962380Y-97575666D02*
X143486190Y-97909000D01*
X143962380Y-98147095D02*
X142962380Y-98147095D01*
X142962380Y-97766142D01*
X143010000Y-97670904D01*
X143057619Y-97623285D01*
X143152857Y-97575666D01*
X143295714Y-97575666D01*
X143390952Y-97623285D01*
X143438571Y-97670904D01*
X143486190Y-97766142D01*
X143486190Y-98147095D01*
X142962380Y-97242333D02*
X142962380Y-96623285D01*
X143343333Y-96956619D01*
X143343333Y-96813761D01*
X143390952Y-96718523D01*
X143438571Y-96670904D01*
X143533809Y-96623285D01*
X143771904Y-96623285D01*
X143867142Y-96670904D01*
X143914761Y-96718523D01*
X143962380Y-96813761D01*
X143962380Y-97099476D01*
X143914761Y-97194714D01*
X143867142Y-97242333D01*
%TO.C,J1*%
X148510666Y-87336380D02*
X148510666Y-88050666D01*
X148463047Y-88193523D01*
X148367809Y-88288761D01*
X148224952Y-88336380D01*
X148129714Y-88336380D01*
X149510666Y-88336380D02*
X148939238Y-88336380D01*
X149224952Y-88336380D02*
X149224952Y-87336380D01*
X149129714Y-87479238D01*
X149034476Y-87574476D01*
X148939238Y-87622095D01*
%TO.C,JP1*%
X132516666Y-112482380D02*
X132516666Y-113196666D01*
X132469047Y-113339523D01*
X132373809Y-113434761D01*
X132230952Y-113482380D01*
X132135714Y-113482380D01*
X132992857Y-113482380D02*
X132992857Y-112482380D01*
X133373809Y-112482380D01*
X133469047Y-112530000D01*
X133516666Y-112577619D01*
X133564285Y-112672857D01*
X133564285Y-112815714D01*
X133516666Y-112910952D01*
X133469047Y-112958571D01*
X133373809Y-113006190D01*
X132992857Y-113006190D01*
X134516666Y-113482380D02*
X133945238Y-113482380D01*
X134230952Y-113482380D02*
X134230952Y-112482380D01*
X134135714Y-112625238D01*
X134040476Y-112720476D01*
X133945238Y-112768095D01*
D12*
%TO.C,J9*%
X116014669Y-96980000D02*
X116014669Y-97480000D01*
X100580331Y-87285000D02*
X115120331Y-87285000D01*
X115581656Y-97230000D02*
X116014669Y-96980000D01*
X115120331Y-87285000D02*
X115120331Y-118255000D01*
X116014669Y-97480000D02*
X115581656Y-97230000D01*
X115120331Y-118255000D02*
X100580331Y-118255000D01*
%TO.C,D1*%
X139826000Y-117190000D02*
X142686000Y-117190000D01*
X139826000Y-115270000D02*
X139826000Y-117190000D01*
X142686000Y-115270000D02*
X139826000Y-115270000D01*
%TO.C,J10*%
X121935000Y-54525000D02*
X127075000Y-54525000D01*
X127075000Y-57185000D02*
X127075000Y-54525000D01*
X120665000Y-57185000D02*
X119335000Y-57185000D01*
X121935000Y-57185000D02*
X121935000Y-54525000D01*
X121935000Y-57185000D02*
X127075000Y-57185000D01*
X119335000Y-57185000D02*
X119335000Y-55855000D01*
%TO.C,J2*%
X141030000Y-101600000D02*
X138370000Y-101600000D01*
X141030000Y-101600000D02*
X141030000Y-73600000D01*
X138370000Y-104200000D02*
X138370000Y-102870000D01*
X141030000Y-73600000D02*
X138370000Y-73600000D01*
X138370000Y-101600000D02*
X138370000Y-73600000D01*
X139700000Y-104200000D02*
X138370000Y-104200000D01*
%TO.C,R10*%
X166142936Y-104445000D02*
X166597064Y-104445000D01*
X166142936Y-102975000D02*
X166597064Y-102975000D01*
%TO.C,J6*%
X122234000Y-109160000D02*
X122234000Y-116900000D01*
X117034000Y-109160000D02*
X118364000Y-109160000D01*
X119634000Y-109160000D02*
X122234000Y-109160000D01*
X117034000Y-111760000D02*
X117034000Y-116900000D01*
X117034000Y-116900000D02*
X122234000Y-116900000D01*
X117034000Y-110490000D02*
X117034000Y-109160000D01*
X117034000Y-111760000D02*
X119634000Y-111760000D01*
X119634000Y-111760000D02*
X119634000Y-109160000D01*
%TO.C,R12*%
X141458936Y-113130000D02*
X141913064Y-113130000D01*
X141458936Y-111660000D02*
X141913064Y-111660000D01*
%TO.C,SW4*%
X160310000Y-71830000D02*
X164810000Y-71830000D01*
X166060000Y-69330000D02*
X166060000Y-67830000D01*
X164810000Y-65330000D02*
X160310000Y-65330000D01*
X159060000Y-67830000D02*
X159060000Y-69330000D01*
%TO.C,R8*%
X153812936Y-68775000D02*
X154267064Y-68775000D01*
X153812936Y-70245000D02*
X154267064Y-70245000D01*
%TO.C,R9*%
X166142936Y-99380000D02*
X166597064Y-99380000D01*
X166142936Y-100850000D02*
X166597064Y-100850000D01*
%TO.C,J3*%
X125670000Y-101600000D02*
X125670000Y-91380000D01*
X128330000Y-91380000D02*
X125670000Y-91380000D01*
X127000000Y-104200000D02*
X125670000Y-104200000D01*
X128330000Y-101600000D02*
X125670000Y-101600000D01*
X128330000Y-101600000D02*
X128330000Y-91380000D01*
X125670000Y-104200000D02*
X125670000Y-102870000D01*
%TO.C,JP4*%
X147320000Y-66615000D02*
X149920000Y-66615000D01*
X147320000Y-69275000D02*
X149920000Y-69275000D01*
X147320000Y-69275000D02*
X147320000Y-66615000D01*
X146050000Y-69275000D02*
X144720000Y-69275000D01*
X149920000Y-69275000D02*
X149920000Y-66615000D01*
X144720000Y-69275000D02*
X144720000Y-67945000D01*
%TO.C,R4*%
X153812936Y-53240000D02*
X154267064Y-53240000D01*
X153812936Y-54710000D02*
X154267064Y-54710000D01*
%TO.C,SW1*%
X134695000Y-57600000D02*
X134695000Y-59100000D01*
X141695000Y-59100000D02*
X141695000Y-57600000D01*
X140445000Y-55100000D02*
X135945000Y-55100000D01*
X135945000Y-61600000D02*
X140445000Y-61600000D01*
%TO.C,R7*%
X153812936Y-64965000D02*
X154267064Y-64965000D01*
X153812936Y-66435000D02*
X154267064Y-66435000D01*
%TO.C,R2*%
X152310000Y-93752936D02*
X152310000Y-94207064D01*
X153780000Y-93752936D02*
X153780000Y-94207064D01*
%TO.C,JP3*%
X135890000Y-69275000D02*
X141030000Y-69275000D01*
X135890000Y-66615000D02*
X141030000Y-66615000D01*
X135890000Y-69275000D02*
X135890000Y-66615000D01*
X133290000Y-69275000D02*
X133290000Y-67945000D01*
X141030000Y-69275000D02*
X141030000Y-66615000D01*
X134620000Y-69275000D02*
X133290000Y-69275000D01*
%TO.C,J11*%
X165040000Y-83175000D02*
X165040000Y-81845000D01*
X165040000Y-84445000D02*
X165040000Y-97205000D01*
X165040000Y-81845000D02*
X166370000Y-81845000D01*
X165040000Y-84445000D02*
X167700000Y-84445000D01*
X167700000Y-84445000D02*
X167700000Y-97205000D01*
X165040000Y-97205000D02*
X167700000Y-97205000D01*
%TO.C,JP2*%
X128975000Y-83750000D02*
X129275000Y-84050000D01*
X131575000Y-83550000D02*
X128775000Y-83550000D01*
X132225000Y-82250000D02*
X132225000Y-82850000D01*
X128975000Y-83750000D02*
X128675000Y-84050000D01*
X128775000Y-81550000D02*
X131575000Y-81550000D01*
X128675000Y-84050000D02*
X129275000Y-84050000D01*
X128125000Y-82850000D02*
X128125000Y-82250000D01*
X131525000Y-83550000D02*
G75*
G03*
X132225000Y-82850000I0J700000D01*
G01*
X128825000Y-81550000D02*
G75*
G03*
X128125000Y-82250000I-1J-699999D01*
G01*
X132225000Y-82250000D02*
G75*
G03*
X131525000Y-81550000I-700000J0D01*
G01*
X128125000Y-82850000D02*
G75*
G03*
X128825000Y-83550000I699999J-1D01*
G01*
%TO.C,R1*%
X159612064Y-109320000D02*
X159157936Y-109320000D01*
X159612064Y-107850000D02*
X159157936Y-107850000D01*
%TO.C,J8*%
X115120331Y-51725000D02*
X115120331Y-82695000D01*
X115120331Y-82695000D02*
X100580331Y-82695000D01*
X116014669Y-61420000D02*
X116014669Y-61920000D01*
X116014669Y-61920000D02*
X115581656Y-61670000D01*
X115581656Y-61670000D02*
X116014669Y-61420000D01*
X100580331Y-51725000D02*
X115120331Y-51725000D01*
%TO.C,LO2*%
G36*
X119543634Y-70135829D02*
G01*
X119611836Y-70037447D01*
X119734935Y-69938030D01*
X119870528Y-69888711D01*
X120008955Y-69885568D01*
X120140552Y-69924676D01*
X120255658Y-70002111D01*
X120344611Y-70113949D01*
X120397749Y-70256265D01*
X120408497Y-70361015D01*
X120407276Y-70404726D01*
X120397056Y-70438194D01*
X120368961Y-70468179D01*
X120314116Y-70501440D01*
X120223645Y-70544738D01*
X120088672Y-70604833D01*
X120087989Y-70605134D01*
X119963751Y-70662037D01*
X119861873Y-70712565D01*
X119792767Y-70751280D01*
X119766846Y-70772740D01*
X119766839Y-70772913D01*
X119789685Y-70819644D01*
X119843109Y-70871154D01*
X119904442Y-70908261D01*
X119935515Y-70915632D01*
X120020289Y-70890138D01*
X120093293Y-70826291D01*
X120128913Y-70756094D01*
X120163180Y-70704343D01*
X120230303Y-70645409D01*
X120309208Y-70594496D01*
X120378821Y-70566809D01*
X120393377Y-70565287D01*
X120409763Y-70590321D01*
X120410750Y-70654311D01*
X120398708Y-70740593D01*
X120376007Y-70832501D01*
X120345014Y-70913369D01*
X120343448Y-70916509D01*
X120250181Y-71046734D01*
X120129304Y-71135311D01*
X119992027Y-71178786D01*
X119849560Y-71173706D01*
X119713112Y-71116616D01*
X119707045Y-71112602D01*
X119599710Y-71015326D01*
X119529132Y-70888409D01*
X119490074Y-70721526D01*
X119484832Y-70674639D01*
X119475548Y-70453329D01*
X119486678Y-70350124D01*
X119766839Y-70350124D01*
X119770479Y-70414503D01*
X119790389Y-70433291D01*
X119840026Y-70419235D01*
X119918267Y-70386009D01*
X120005726Y-70344359D01*
X120007899Y-70343256D01*
X120082030Y-70304265D01*
X120111781Y-70278244D01*
X120104445Y-70250965D01*
X120073553Y-70215121D01*
X119994960Y-70163251D01*
X119910323Y-70159439D01*
X119834403Y-70197189D01*
X119781965Y-70270001D01*
X119766839Y-70350124D01*
X119486678Y-70350124D01*
X119494644Y-70276261D01*
X119543634Y-70135829D01*
G37*
D13*
X119543634Y-70135829D02*
X119611836Y-70037447D01*
X119734935Y-69938030D01*
X119870528Y-69888711D01*
X120008955Y-69885568D01*
X120140552Y-69924676D01*
X120255658Y-70002111D01*
X120344611Y-70113949D01*
X120397749Y-70256265D01*
X120408497Y-70361015D01*
X120407276Y-70404726D01*
X120397056Y-70438194D01*
X120368961Y-70468179D01*
X120314116Y-70501440D01*
X120223645Y-70544738D01*
X120088672Y-70604833D01*
X120087989Y-70605134D01*
X119963751Y-70662037D01*
X119861873Y-70712565D01*
X119792767Y-70751280D01*
X119766846Y-70772740D01*
X119766839Y-70772913D01*
X119789685Y-70819644D01*
X119843109Y-70871154D01*
X119904442Y-70908261D01*
X119935515Y-70915632D01*
X120020289Y-70890138D01*
X120093293Y-70826291D01*
X120128913Y-70756094D01*
X120163180Y-70704343D01*
X120230303Y-70645409D01*
X120309208Y-70594496D01*
X120378821Y-70566809D01*
X120393377Y-70565287D01*
X120409763Y-70590321D01*
X120410750Y-70654311D01*
X120398708Y-70740593D01*
X120376007Y-70832501D01*
X120345014Y-70913369D01*
X120343448Y-70916509D01*
X120250181Y-71046734D01*
X120129304Y-71135311D01*
X119992027Y-71178786D01*
X119849560Y-71173706D01*
X119713112Y-71116616D01*
X119707045Y-71112602D01*
X119599710Y-71015326D01*
X119529132Y-70888409D01*
X119490074Y-70721526D01*
X119484832Y-70674639D01*
X119475548Y-70453329D01*
X119486678Y-70350124D01*
X119766839Y-70350124D01*
X119770479Y-70414503D01*
X119790389Y-70433291D01*
X119840026Y-70419235D01*
X119918267Y-70386009D01*
X120005726Y-70344359D01*
X120007899Y-70343256D01*
X120082030Y-70304265D01*
X120111781Y-70278244D01*
X120104445Y-70250965D01*
X120073553Y-70215121D01*
X119994960Y-70163251D01*
X119910323Y-70159439D01*
X119834403Y-70197189D01*
X119781965Y-70270001D01*
X119766839Y-70350124D01*
X119486678Y-70350124D01*
X119494644Y-70276261D01*
X119543634Y-70135829D01*
G36*
X127405124Y-69979840D02*
G01*
X127409579Y-70056653D01*
X127413071Y-70173391D01*
X127415315Y-70320821D01*
X127416035Y-70475455D01*
X127416035Y-70998727D01*
X127323645Y-71091117D01*
X127259978Y-71148047D01*
X127204089Y-71171107D01*
X127127702Y-71169647D01*
X127097380Y-71165934D01*
X127002610Y-71155126D01*
X126924222Y-71148933D01*
X126905115Y-71148361D01*
X126840699Y-71152102D01*
X126748571Y-71161494D01*
X126712850Y-71165934D01*
X126625114Y-71172801D01*
X126566153Y-71157885D01*
X126507690Y-71111835D01*
X126486585Y-71091117D01*
X126394195Y-70998727D01*
X126394195Y-70019947D01*
X126468558Y-69986066D01*
X126532590Y-69960970D01*
X126570052Y-69952184D01*
X126579657Y-69979950D01*
X126588635Y-70057530D01*
X126596386Y-70176348D01*
X126602314Y-70327828D01*
X126605173Y-70455805D01*
X126613161Y-70959425D01*
X126682848Y-70969278D01*
X126746229Y-70962389D01*
X126777286Y-70940083D01*
X126785967Y-70898379D01*
X126793378Y-70809544D01*
X126798931Y-70684834D01*
X126802036Y-70535507D01*
X126802484Y-70458661D01*
X126802931Y-70016287D01*
X126894874Y-69984235D01*
X126959949Y-69962443D01*
X126995347Y-69952281D01*
X126996368Y-69952184D01*
X126999920Y-69979809D01*
X127003823Y-70056411D01*
X127007751Y-70172579D01*
X127011376Y-70318904D01*
X127013908Y-70455805D01*
X127021897Y-70959425D01*
X127197069Y-70959425D01*
X127205107Y-70499965D01*
X127213146Y-70040505D01*
X127298543Y-69996344D01*
X127361593Y-69966019D01*
X127398910Y-69952258D01*
X127399987Y-69952184D01*
X127405124Y-69979840D01*
G37*
X127405124Y-69979840D02*
X127409579Y-70056653D01*
X127413071Y-70173391D01*
X127415315Y-70320821D01*
X127416035Y-70475455D01*
X127416035Y-70998727D01*
X127323645Y-71091117D01*
X127259978Y-71148047D01*
X127204089Y-71171107D01*
X127127702Y-71169647D01*
X127097380Y-71165934D01*
X127002610Y-71155126D01*
X126924222Y-71148933D01*
X126905115Y-71148361D01*
X126840699Y-71152102D01*
X126748571Y-71161494D01*
X126712850Y-71165934D01*
X126625114Y-71172801D01*
X126566153Y-71157885D01*
X126507690Y-71111835D01*
X126486585Y-71091117D01*
X126394195Y-70998727D01*
X126394195Y-70019947D01*
X126468558Y-69986066D01*
X126532590Y-69960970D01*
X126570052Y-69952184D01*
X126579657Y-69979950D01*
X126588635Y-70057530D01*
X126596386Y-70176348D01*
X126602314Y-70327828D01*
X126605173Y-70455805D01*
X126613161Y-70959425D01*
X126682848Y-70969278D01*
X126746229Y-70962389D01*
X126777286Y-70940083D01*
X126785967Y-70898379D01*
X126793378Y-70809544D01*
X126798931Y-70684834D01*
X126802036Y-70535507D01*
X126802484Y-70458661D01*
X126802931Y-70016287D01*
X126894874Y-69984235D01*
X126959949Y-69962443D01*
X126995347Y-69952281D01*
X126996368Y-69952184D01*
X126999920Y-69979809D01*
X127003823Y-70056411D01*
X127007751Y-70172579D01*
X127011376Y-70318904D01*
X127013908Y-70455805D01*
X127021897Y-70959425D01*
X127197069Y-70959425D01*
X127205107Y-70499965D01*
X127213146Y-70040505D01*
X127298543Y-69996344D01*
X127361593Y-69966019D01*
X127398910Y-69952258D01*
X127399987Y-69952184D01*
X127405124Y-69979840D01*
G36*
X121242429Y-69917719D02*
G01*
X121336123Y-69971914D01*
X121401264Y-70025707D01*
X121448907Y-70082066D01*
X121481728Y-70150987D01*
X121502406Y-70242468D01*
X121513620Y-70366506D01*
X121518049Y-70533098D01*
X121518563Y-70652851D01*
X121518563Y-71093659D01*
X121394483Y-71149283D01*
X121270402Y-71204907D01*
X121255805Y-70722095D01*
X121249773Y-70541779D01*
X121243445Y-70410901D01*
X121235606Y-70320511D01*
X121225037Y-70261664D01*
X121210523Y-70225413D01*
X121190848Y-70202810D01*
X121184535Y-70197917D01*
X121088888Y-70159706D01*
X120992207Y-70174827D01*
X120934655Y-70214943D01*
X120911245Y-70243370D01*
X120895039Y-70280672D01*
X120884741Y-70337223D01*
X120879049Y-70423394D01*
X120876664Y-70549558D01*
X120876264Y-70681042D01*
X120876186Y-70845999D01*
X120873361Y-70962761D01*
X120863907Y-71041510D01*
X120843940Y-71092431D01*
X120809576Y-71125706D01*
X120756932Y-71151520D01*
X120686617Y-71178344D01*
X120609820Y-71207542D01*
X120618962Y-70689346D01*
X120622643Y-70502539D01*
X120626950Y-70364490D01*
X120633123Y-70265568D01*
X120642402Y-70196145D01*
X120656027Y-70146590D01*
X120675239Y-70107273D01*
X120698402Y-70072584D01*
X120810152Y-69961770D01*
X120946513Y-69897689D01*
X121094825Y-69882339D01*
X121242429Y-69917719D01*
G37*
X121242429Y-69917719D02*
X121336123Y-69971914D01*
X121401264Y-70025707D01*
X121448907Y-70082066D01*
X121481728Y-70150987D01*
X121502406Y-70242468D01*
X121513620Y-70366506D01*
X121518049Y-70533098D01*
X121518563Y-70652851D01*
X121518563Y-71093659D01*
X121394483Y-71149283D01*
X121270402Y-71204907D01*
X121255805Y-70722095D01*
X121249773Y-70541779D01*
X121243445Y-70410901D01*
X121235606Y-70320511D01*
X121225037Y-70261664D01*
X121210523Y-70225413D01*
X121190848Y-70202810D01*
X121184535Y-70197917D01*
X121088888Y-70159706D01*
X120992207Y-70174827D01*
X120934655Y-70214943D01*
X120911245Y-70243370D01*
X120895039Y-70280672D01*
X120884741Y-70337223D01*
X120879049Y-70423394D01*
X120876664Y-70549558D01*
X120876264Y-70681042D01*
X120876186Y-70845999D01*
X120873361Y-70962761D01*
X120863907Y-71041510D01*
X120843940Y-71092431D01*
X120809576Y-71125706D01*
X120756932Y-71151520D01*
X120686617Y-71178344D01*
X120609820Y-71207542D01*
X120618962Y-70689346D01*
X120622643Y-70502539D01*
X120626950Y-70364490D01*
X120633123Y-70265568D01*
X120642402Y-70196145D01*
X120656027Y-70146590D01*
X120675239Y-70107273D01*
X120698402Y-70072584D01*
X120810152Y-69961770D01*
X120946513Y-69897689D01*
X121094825Y-69882339D01*
X121242429Y-69917719D01*
G36*
X123904944Y-69964360D02*
G01*
X124019343Y-70006842D01*
X124020652Y-70007658D01*
X124091403Y-70059730D01*
X124143636Y-70120584D01*
X124180371Y-70199887D01*
X124204634Y-70307309D01*
X124219445Y-70452517D01*
X124227829Y-70645179D01*
X124228564Y-70672628D01*
X124239120Y-71086521D01*
X124150291Y-71132456D01*
X124086018Y-71163498D01*
X124047210Y-71178206D01*
X124045415Y-71178391D01*
X124038700Y-71151250D01*
X124033365Y-71078041D01*
X124030083Y-70971081D01*
X124029368Y-70884469D01*
X124029351Y-70744162D01*
X124022937Y-70656051D01*
X124000580Y-70614025D01*
X123952732Y-70611975D01*
X123869849Y-70643790D01*
X123744713Y-70702272D01*
X123652697Y-70750845D01*
X123605371Y-70792986D01*
X123591458Y-70838916D01*
X123591437Y-70841189D01*
X123614395Y-70920311D01*
X123682370Y-70963055D01*
X123786398Y-70969246D01*
X123861330Y-70968172D01*
X123900839Y-70989753D01*
X123925478Y-71041591D01*
X123939659Y-71107632D01*
X123919223Y-71145104D01*
X123911528Y-71150467D01*
X123839083Y-71172006D01*
X123737633Y-71175055D01*
X123633157Y-71160778D01*
X123559125Y-71134688D01*
X123456772Y-71047785D01*
X123398591Y-70926816D01*
X123387069Y-70832308D01*
X123395862Y-70747062D01*
X123427680Y-70677476D01*
X123490684Y-70615672D01*
X123593031Y-70553772D01*
X123742882Y-70483897D01*
X123752012Y-70479948D01*
X123886997Y-70417588D01*
X123970294Y-70366446D01*
X124005997Y-70320488D01*
X123998203Y-70273683D01*
X123951007Y-70219998D01*
X123936894Y-70207644D01*
X123842359Y-70159741D01*
X123744406Y-70161758D01*
X123659097Y-70208724D01*
X123602496Y-70295669D01*
X123597237Y-70312734D01*
X123546023Y-70395504D01*
X123481037Y-70435372D01*
X123387069Y-70474882D01*
X123387069Y-70372658D01*
X123415653Y-70224072D01*
X123500495Y-70087784D01*
X123544645Y-70042191D01*
X123645005Y-69983674D01*
X123772635Y-69957184D01*
X123904944Y-69964360D01*
G37*
X123904944Y-69964360D02*
X124019343Y-70006842D01*
X124020652Y-70007658D01*
X124091403Y-70059730D01*
X124143636Y-70120584D01*
X124180371Y-70199887D01*
X124204634Y-70307309D01*
X124219445Y-70452517D01*
X124227829Y-70645179D01*
X124228564Y-70672628D01*
X124239120Y-71086521D01*
X124150291Y-71132456D01*
X124086018Y-71163498D01*
X124047210Y-71178206D01*
X124045415Y-71178391D01*
X124038700Y-71151250D01*
X124033365Y-71078041D01*
X124030083Y-70971081D01*
X124029368Y-70884469D01*
X124029351Y-70744162D01*
X124022937Y-70656051D01*
X124000580Y-70614025D01*
X123952732Y-70611975D01*
X123869849Y-70643790D01*
X123744713Y-70702272D01*
X123652697Y-70750845D01*
X123605371Y-70792986D01*
X123591458Y-70838916D01*
X123591437Y-70841189D01*
X123614395Y-70920311D01*
X123682370Y-70963055D01*
X123786398Y-70969246D01*
X123861330Y-70968172D01*
X123900839Y-70989753D01*
X123925478Y-71041591D01*
X123939659Y-71107632D01*
X123919223Y-71145104D01*
X123911528Y-71150467D01*
X123839083Y-71172006D01*
X123737633Y-71175055D01*
X123633157Y-71160778D01*
X123559125Y-71134688D01*
X123456772Y-71047785D01*
X123398591Y-70926816D01*
X123387069Y-70832308D01*
X123395862Y-70747062D01*
X123427680Y-70677476D01*
X123490684Y-70615672D01*
X123593031Y-70553772D01*
X123742882Y-70483897D01*
X123752012Y-70479948D01*
X123886997Y-70417588D01*
X123970294Y-70366446D01*
X124005997Y-70320488D01*
X123998203Y-70273683D01*
X123951007Y-70219998D01*
X123936894Y-70207644D01*
X123842359Y-70159741D01*
X123744406Y-70161758D01*
X123659097Y-70208724D01*
X123602496Y-70295669D01*
X123597237Y-70312734D01*
X123546023Y-70395504D01*
X123481037Y-70435372D01*
X123387069Y-70474882D01*
X123387069Y-70372658D01*
X123415653Y-70224072D01*
X123500495Y-70087784D01*
X123544645Y-70042191D01*
X123645005Y-69983674D01*
X123772635Y-69957184D01*
X123904944Y-69964360D01*
G36*
X128139406Y-69975156D02*
G01*
X128223469Y-70013393D01*
X128289450Y-70059726D01*
X128337794Y-70111532D01*
X128371172Y-70178363D01*
X128392253Y-70269769D01*
X128403707Y-70395301D01*
X128408203Y-70564508D01*
X128408678Y-70675933D01*
X128408678Y-71110627D01*
X128334316Y-71144509D01*
X128275746Y-71169272D01*
X128246730Y-71178391D01*
X128241179Y-71151257D01*
X128236775Y-71078094D01*
X128234078Y-70971263D01*
X128233506Y-70886437D01*
X128231046Y-70763887D01*
X128224412Y-70666668D01*
X128214726Y-70607134D01*
X128207032Y-70594483D01*
X128155311Y-70607402D01*
X128074117Y-70640539D01*
X127980102Y-70685461D01*
X127889917Y-70733735D01*
X127820215Y-70776928D01*
X127787648Y-70806608D01*
X127787519Y-70806929D01*
X127790320Y-70861857D01*
X127815439Y-70914292D01*
X127859541Y-70956881D01*
X127923909Y-70971126D01*
X127978921Y-70969466D01*
X128056835Y-70968245D01*
X128097732Y-70986498D01*
X128122295Y-71034726D01*
X128125392Y-71043820D01*
X128136040Y-71112598D01*
X128107565Y-71154360D01*
X128033344Y-71174263D01*
X127953168Y-71177944D01*
X127808890Y-71150658D01*
X127734203Y-71111690D01*
X127641963Y-71020148D01*
X127593043Y-70907782D01*
X127588654Y-70789051D01*
X127630001Y-70678411D01*
X127692197Y-70609080D01*
X127754294Y-70570265D01*
X127851895Y-70521125D01*
X127965632Y-70471292D01*
X127984590Y-70463677D01*
X128109521Y-70408545D01*
X128181539Y-70359954D01*
X128204700Y-70311647D01*
X128183064Y-70257370D01*
X128145920Y-70214943D01*
X128058127Y-70162702D01*
X127961530Y-70158784D01*
X127872944Y-70199041D01*
X127809186Y-70279326D01*
X127800817Y-70300040D01*
X127752096Y-70376225D01*
X127680965Y-70432785D01*
X127591207Y-70479201D01*
X127591207Y-70347584D01*
X127596490Y-70267168D01*
X127619142Y-70203786D01*
X127669367Y-70136163D01*
X127717582Y-70084076D01*
X127792554Y-70010322D01*
X127850806Y-69970702D01*
X127913372Y-69954810D01*
X127984193Y-69952184D01*
X128139406Y-69975156D01*
G37*
X128139406Y-69975156D02*
X128223469Y-70013393D01*
X128289450Y-70059726D01*
X128337794Y-70111532D01*
X128371172Y-70178363D01*
X128392253Y-70269769D01*
X128403707Y-70395301D01*
X128408203Y-70564508D01*
X128408678Y-70675933D01*
X128408678Y-71110627D01*
X128334316Y-71144509D01*
X128275746Y-71169272D01*
X128246730Y-71178391D01*
X128241179Y-71151257D01*
X128236775Y-71078094D01*
X128234078Y-70971263D01*
X128233506Y-70886437D01*
X128231046Y-70763887D01*
X128224412Y-70666668D01*
X128214726Y-70607134D01*
X128207032Y-70594483D01*
X128155311Y-70607402D01*
X128074117Y-70640539D01*
X127980102Y-70685461D01*
X127889917Y-70733735D01*
X127820215Y-70776928D01*
X127787648Y-70806608D01*
X127787519Y-70806929D01*
X127790320Y-70861857D01*
X127815439Y-70914292D01*
X127859541Y-70956881D01*
X127923909Y-70971126D01*
X127978921Y-70969466D01*
X128056835Y-70968245D01*
X128097732Y-70986498D01*
X128122295Y-71034726D01*
X128125392Y-71043820D01*
X128136040Y-71112598D01*
X128107565Y-71154360D01*
X128033344Y-71174263D01*
X127953168Y-71177944D01*
X127808890Y-71150658D01*
X127734203Y-71111690D01*
X127641963Y-71020148D01*
X127593043Y-70907782D01*
X127588654Y-70789051D01*
X127630001Y-70678411D01*
X127692197Y-70609080D01*
X127754294Y-70570265D01*
X127851895Y-70521125D01*
X127965632Y-70471292D01*
X127984590Y-70463677D01*
X128109521Y-70408545D01*
X128181539Y-70359954D01*
X128204700Y-70311647D01*
X128183064Y-70257370D01*
X128145920Y-70214943D01*
X128058127Y-70162702D01*
X127961530Y-70158784D01*
X127872944Y-70199041D01*
X127809186Y-70279326D01*
X127800817Y-70300040D01*
X127752096Y-70376225D01*
X127680965Y-70432785D01*
X127591207Y-70479201D01*
X127591207Y-70347584D01*
X127596490Y-70267168D01*
X127619142Y-70203786D01*
X127669367Y-70136163D01*
X127717582Y-70084076D01*
X127792554Y-70010322D01*
X127850806Y-69970702D01*
X127913372Y-69954810D01*
X127984193Y-69952184D01*
X128139406Y-69975156D01*
G36*
X118381247Y-70365382D02*
G01*
X118386826Y-70270087D01*
X118394746Y-70202364D01*
X118405731Y-70154507D01*
X118420501Y-70118813D01*
X118439782Y-70087578D01*
X118448049Y-70075824D01*
X118557712Y-69964797D01*
X118696365Y-69901847D01*
X118856754Y-69884297D01*
X118996900Y-69901903D01*
X119108450Y-69957522D01*
X119206908Y-70059931D01*
X119234023Y-70097864D01*
X119263562Y-70147500D01*
X119282728Y-70201412D01*
X119293693Y-70273364D01*
X119298629Y-70377122D01*
X119299713Y-70514101D01*
X119294818Y-70701815D01*
X119277804Y-70842758D01*
X119245177Y-70947908D01*
X119193442Y-71028243D01*
X119119104Y-71094741D01*
X119113642Y-71098678D01*
X119040380Y-71138953D01*
X118952160Y-71158880D01*
X118839962Y-71163793D01*
X118657567Y-71163793D01*
X118657491Y-71340857D01*
X118655793Y-71439470D01*
X118645450Y-71497314D01*
X118618422Y-71532006D01*
X118566668Y-71561164D01*
X118554239Y-71567121D01*
X118496077Y-71595039D01*
X118451044Y-71612672D01*
X118417559Y-71614194D01*
X118394038Y-71593781D01*
X118378900Y-71545607D01*
X118370563Y-71463846D01*
X118367444Y-71342672D01*
X118367960Y-71176260D01*
X118370529Y-70958785D01*
X118371332Y-70893736D01*
X118374222Y-70669502D01*
X118376812Y-70522821D01*
X118657414Y-70522821D01*
X118658991Y-70647326D01*
X118666000Y-70728787D01*
X118681858Y-70782515D01*
X118709981Y-70823823D01*
X118729075Y-70843971D01*
X118807135Y-70902921D01*
X118876247Y-70907720D01*
X118947560Y-70859038D01*
X118949368Y-70857241D01*
X118978383Y-70819618D01*
X118996033Y-70768484D01*
X119004936Y-70689738D01*
X119007709Y-70569276D01*
X119007759Y-70542588D01*
X119001058Y-70376583D01*
X118979248Y-70261505D01*
X118939765Y-70191254D01*
X118880044Y-70159729D01*
X118845528Y-70156552D01*
X118763611Y-70171460D01*
X118707421Y-70220548D01*
X118673598Y-70310362D01*
X118658780Y-70447445D01*
X118657414Y-70522821D01*
X118376812Y-70522821D01*
X118377287Y-70495952D01*
X118381247Y-70365382D01*
G37*
X118381247Y-70365382D02*
X118386826Y-70270087D01*
X118394746Y-70202364D01*
X118405731Y-70154507D01*
X118420501Y-70118813D01*
X118439782Y-70087578D01*
X118448049Y-70075824D01*
X118557712Y-69964797D01*
X118696365Y-69901847D01*
X118856754Y-69884297D01*
X118996900Y-69901903D01*
X119108450Y-69957522D01*
X119206908Y-70059931D01*
X119234023Y-70097864D01*
X119263562Y-70147500D01*
X119282728Y-70201412D01*
X119293693Y-70273364D01*
X119298629Y-70377122D01*
X119299713Y-70514101D01*
X119294818Y-70701815D01*
X119277804Y-70842758D01*
X119245177Y-70947908D01*
X119193442Y-71028243D01*
X119119104Y-71094741D01*
X119113642Y-71098678D01*
X119040380Y-71138953D01*
X118952160Y-71158880D01*
X118839962Y-71163793D01*
X118657567Y-71163793D01*
X118657491Y-71340857D01*
X118655793Y-71439470D01*
X118645450Y-71497314D01*
X118618422Y-71532006D01*
X118566668Y-71561164D01*
X118554239Y-71567121D01*
X118496077Y-71595039D01*
X118451044Y-71612672D01*
X118417559Y-71614194D01*
X118394038Y-71593781D01*
X118378900Y-71545607D01*
X118370563Y-71463846D01*
X118367444Y-71342672D01*
X118367960Y-71176260D01*
X118370529Y-70958785D01*
X118371332Y-70893736D01*
X118374222Y-70669502D01*
X118376812Y-70522821D01*
X118657414Y-70522821D01*
X118658991Y-70647326D01*
X118666000Y-70728787D01*
X118681858Y-70782515D01*
X118709981Y-70823823D01*
X118729075Y-70843971D01*
X118807135Y-70902921D01*
X118876247Y-70907720D01*
X118947560Y-70859038D01*
X118949368Y-70857241D01*
X118978383Y-70819618D01*
X118996033Y-70768484D01*
X119004936Y-70689738D01*
X119007709Y-70569276D01*
X119007759Y-70542588D01*
X119001058Y-70376583D01*
X118979248Y-70261505D01*
X118939765Y-70191254D01*
X118880044Y-70159729D01*
X118845528Y-70156552D01*
X118763611Y-70171460D01*
X118707421Y-70220548D01*
X118673598Y-70310362D01*
X118658780Y-70447445D01*
X118657414Y-70522821D01*
X118376812Y-70522821D01*
X118377287Y-70495952D01*
X118381247Y-70365382D01*
G36*
X122569598Y-69763857D02*
G01*
X122578154Y-69883188D01*
X122587981Y-69953506D01*
X122601599Y-69984179D01*
X122621527Y-69984571D01*
X122627989Y-69980910D01*
X122713940Y-69954398D01*
X122825745Y-69955946D01*
X122939414Y-69983199D01*
X123010510Y-70018455D01*
X123083405Y-70074778D01*
X123136693Y-70138519D01*
X123173275Y-70219510D01*
X123196050Y-70327586D01*
X123207919Y-70472580D01*
X123211782Y-70664326D01*
X123211851Y-70701109D01*
X123211897Y-71114288D01*
X123119954Y-71146339D01*
X123054652Y-71168144D01*
X123018824Y-71178297D01*
X123017770Y-71178391D01*
X123014242Y-71150860D01*
X123011239Y-71074923D01*
X123008990Y-70960565D01*
X123007724Y-70817769D01*
X123007529Y-70730951D01*
X123007123Y-70559773D01*
X123005032Y-70437088D01*
X122999947Y-70353000D01*
X122990560Y-70297614D01*
X122975561Y-70261032D01*
X122953642Y-70233359D01*
X122939957Y-70220032D01*
X122845949Y-70166328D01*
X122743364Y-70162307D01*
X122650290Y-70207725D01*
X122633078Y-70224123D01*
X122607832Y-70254957D01*
X122590320Y-70291531D01*
X122579142Y-70344415D01*
X122572896Y-70424177D01*
X122570182Y-70541385D01*
X122569598Y-70702991D01*
X122569598Y-71114288D01*
X122477655Y-71146339D01*
X122412353Y-71168144D01*
X122376525Y-71178297D01*
X122375471Y-71178391D01*
X122372775Y-71150448D01*
X122370345Y-71071630D01*
X122368278Y-70949453D01*
X122366671Y-70791432D01*
X122365623Y-70605083D01*
X122365231Y-70397920D01*
X122365230Y-70388706D01*
X122365230Y-69599020D01*
X122460115Y-69558997D01*
X122555000Y-69518973D01*
X122569598Y-69763857D01*
G37*
X122569598Y-69763857D02*
X122578154Y-69883188D01*
X122587981Y-69953506D01*
X122601599Y-69984179D01*
X122621527Y-69984571D01*
X122627989Y-69980910D01*
X122713940Y-69954398D01*
X122825745Y-69955946D01*
X122939414Y-69983199D01*
X123010510Y-70018455D01*
X123083405Y-70074778D01*
X123136693Y-70138519D01*
X123173275Y-70219510D01*
X123196050Y-70327586D01*
X123207919Y-70472580D01*
X123211782Y-70664326D01*
X123211851Y-70701109D01*
X123211897Y-71114288D01*
X123119954Y-71146339D01*
X123054652Y-71168144D01*
X123018824Y-71178297D01*
X123017770Y-71178391D01*
X123014242Y-71150860D01*
X123011239Y-71074923D01*
X123008990Y-70960565D01*
X123007724Y-70817769D01*
X123007529Y-70730951D01*
X123007123Y-70559773D01*
X123005032Y-70437088D01*
X122999947Y-70353000D01*
X122990560Y-70297614D01*
X122975561Y-70261032D01*
X122953642Y-70233359D01*
X122939957Y-70220032D01*
X122845949Y-70166328D01*
X122743364Y-70162307D01*
X122650290Y-70207725D01*
X122633078Y-70224123D01*
X122607832Y-70254957D01*
X122590320Y-70291531D01*
X122579142Y-70344415D01*
X122572896Y-70424177D01*
X122570182Y-70541385D01*
X122569598Y-70702991D01*
X122569598Y-71114288D01*
X122477655Y-71146339D01*
X122412353Y-71168144D01*
X122376525Y-71178297D01*
X122375471Y-71178391D01*
X122372775Y-71150448D01*
X122370345Y-71071630D01*
X122368278Y-70949453D01*
X122366671Y-70791432D01*
X122365623Y-70605083D01*
X122365231Y-70397920D01*
X122365230Y-70388706D01*
X122365230Y-69599020D01*
X122460115Y-69558997D01*
X122555000Y-69518973D01*
X122569598Y-69763857D01*
G36*
X129160690Y-69980018D02*
G01*
X129195585Y-69995269D01*
X129278877Y-70061235D01*
X129350103Y-70156618D01*
X129394153Y-70258406D01*
X129401322Y-70308587D01*
X129377285Y-70378647D01*
X129324561Y-70415717D01*
X129268031Y-70438164D01*
X129242146Y-70442300D01*
X129229542Y-70412283D01*
X129204654Y-70346961D01*
X129193735Y-70317445D01*
X129132508Y-70215348D01*
X129043861Y-70164423D01*
X128930193Y-70165989D01*
X128921774Y-70167994D01*
X128861088Y-70196767D01*
X128816474Y-70252859D01*
X128786002Y-70343163D01*
X128767744Y-70474571D01*
X128759771Y-70653974D01*
X128759023Y-70749433D01*
X128758652Y-70899913D01*
X128756223Y-71002495D01*
X128749760Y-71067672D01*
X128737288Y-71105938D01*
X128716833Y-71127785D01*
X128686419Y-71143707D01*
X128684661Y-71144509D01*
X128626091Y-71169272D01*
X128597075Y-71178391D01*
X128592616Y-71150822D01*
X128588799Y-71074620D01*
X128585899Y-70959541D01*
X128584191Y-70815341D01*
X128583851Y-70709814D01*
X128585588Y-70505613D01*
X128592382Y-70350697D01*
X128606607Y-70236024D01*
X128630638Y-70152551D01*
X128666848Y-70091236D01*
X128717612Y-70043034D01*
X128767739Y-70009393D01*
X128888275Y-69964619D01*
X129028557Y-69954521D01*
X129160690Y-69980018D01*
G37*
X129160690Y-69980018D02*
X129195585Y-69995269D01*
X129278877Y-70061235D01*
X129350103Y-70156618D01*
X129394153Y-70258406D01*
X129401322Y-70308587D01*
X129377285Y-70378647D01*
X129324561Y-70415717D01*
X129268031Y-70438164D01*
X129242146Y-70442300D01*
X129229542Y-70412283D01*
X129204654Y-70346961D01*
X129193735Y-70317445D01*
X129132508Y-70215348D01*
X129043861Y-70164423D01*
X128930193Y-70165989D01*
X128921774Y-70167994D01*
X128861088Y-70196767D01*
X128816474Y-70252859D01*
X128786002Y-70343163D01*
X128767744Y-70474571D01*
X128759771Y-70653974D01*
X128759023Y-70749433D01*
X128758652Y-70899913D01*
X128756223Y-71002495D01*
X128749760Y-71067672D01*
X128737288Y-71105938D01*
X128716833Y-71127785D01*
X128686419Y-71143707D01*
X128684661Y-71144509D01*
X128626091Y-71169272D01*
X128597075Y-71178391D01*
X128592616Y-71150822D01*
X128588799Y-71074620D01*
X128585899Y-70959541D01*
X128584191Y-70815341D01*
X128583851Y-70709814D01*
X128585588Y-70505613D01*
X128592382Y-70350697D01*
X128606607Y-70236024D01*
X128630638Y-70152551D01*
X128666848Y-70091236D01*
X128717612Y-70043034D01*
X128767739Y-70009393D01*
X128888275Y-69964619D01*
X129028557Y-69954521D01*
X129160690Y-69980018D01*
G36*
X117261688Y-70280549D02*
G01*
X117271688Y-70207714D01*
X117289079Y-70154108D01*
X117315816Y-70106681D01*
X117321724Y-70097864D01*
X117421032Y-69979007D01*
X117529242Y-69910008D01*
X117660981Y-69882619D01*
X117705717Y-69881281D01*
X117873221Y-69906015D01*
X118010061Y-69977968D01*
X118111051Y-70093766D01*
X118146925Y-70168213D01*
X118174839Y-70279992D01*
X118189129Y-70421227D01*
X118190484Y-70575371D01*
X118179595Y-70725879D01*
X118157153Y-70856205D01*
X118123850Y-70949803D01*
X118113615Y-70965922D01*
X117992382Y-71086249D01*
X117848387Y-71158317D01*
X117692139Y-71179408D01*
X117534148Y-71146802D01*
X117490180Y-71127253D01*
X117404556Y-71067012D01*
X117329408Y-70987135D01*
X117322306Y-70977004D01*
X117293439Y-70928181D01*
X117274357Y-70875990D01*
X117263084Y-70807285D01*
X117257645Y-70708918D01*
X117256062Y-70567744D01*
X117256035Y-70536092D01*
X117256107Y-70526019D01*
X117547989Y-70526019D01*
X117549687Y-70659256D01*
X117556372Y-70747674D01*
X117570425Y-70804785D01*
X117594229Y-70844102D01*
X117606379Y-70857241D01*
X117676236Y-70907172D01*
X117744059Y-70904895D01*
X117812635Y-70861584D01*
X117853535Y-70815346D01*
X117877758Y-70747857D01*
X117891361Y-70641433D01*
X117892294Y-70629020D01*
X117894616Y-70436147D01*
X117870350Y-70292900D01*
X117819824Y-70200160D01*
X117743368Y-70158807D01*
X117716076Y-70156552D01*
X117644411Y-70167893D01*
X117595390Y-70207184D01*
X117565418Y-70282326D01*
X117550899Y-70401222D01*
X117547989Y-70526019D01*
X117256107Y-70526019D01*
X117257122Y-70385659D01*
X117261688Y-70280549D01*
G37*
X117261688Y-70280549D02*
X117271688Y-70207714D01*
X117289079Y-70154108D01*
X117315816Y-70106681D01*
X117321724Y-70097864D01*
X117421032Y-69979007D01*
X117529242Y-69910008D01*
X117660981Y-69882619D01*
X117705717Y-69881281D01*
X117873221Y-69906015D01*
X118010061Y-69977968D01*
X118111051Y-70093766D01*
X118146925Y-70168213D01*
X118174839Y-70279992D01*
X118189129Y-70421227D01*
X118190484Y-70575371D01*
X118179595Y-70725879D01*
X118157153Y-70856205D01*
X118123850Y-70949803D01*
X118113615Y-70965922D01*
X117992382Y-71086249D01*
X117848387Y-71158317D01*
X117692139Y-71179408D01*
X117534148Y-71146802D01*
X117490180Y-71127253D01*
X117404556Y-71067012D01*
X117329408Y-70987135D01*
X117322306Y-70977004D01*
X117293439Y-70928181D01*
X117274357Y-70875990D01*
X117263084Y-70807285D01*
X117257645Y-70708918D01*
X117256062Y-70567744D01*
X117256035Y-70536092D01*
X117256107Y-70526019D01*
X117547989Y-70526019D01*
X117549687Y-70659256D01*
X117556372Y-70747674D01*
X117570425Y-70804785D01*
X117594229Y-70844102D01*
X117606379Y-70857241D01*
X117676236Y-70907172D01*
X117744059Y-70904895D01*
X117812635Y-70861584D01*
X117853535Y-70815346D01*
X117877758Y-70747857D01*
X117891361Y-70641433D01*
X117892294Y-70629020D01*
X117894616Y-70436147D01*
X117870350Y-70292900D01*
X117819824Y-70200160D01*
X117743368Y-70158807D01*
X117716076Y-70156552D01*
X117644411Y-70167893D01*
X117595390Y-70207184D01*
X117565418Y-70282326D01*
X117550899Y-70401222D01*
X117547989Y-70526019D01*
X117256107Y-70526019D01*
X117257122Y-70385659D01*
X117261688Y-70280549D01*
G36*
X129594359Y-70254853D02*
G01*
X129621894Y-70156916D01*
X129666572Y-70084811D01*
X129731901Y-70027813D01*
X129760383Y-70009393D01*
X129889763Y-69961422D01*
X130031412Y-69958403D01*
X130168439Y-69996540D01*
X130283950Y-70072034D01*
X130339664Y-70139617D01*
X130383804Y-70262255D01*
X130387309Y-70359298D01*
X130379368Y-70489056D01*
X130080115Y-70620039D01*
X129934611Y-70686958D01*
X129839537Y-70740790D01*
X129790101Y-70787416D01*
X129781511Y-70832720D01*
X129808972Y-70882582D01*
X129839253Y-70915632D01*
X129927363Y-70968633D01*
X130023196Y-70972347D01*
X130111212Y-70931041D01*
X130175869Y-70848983D01*
X130187433Y-70820008D01*
X130242825Y-70729509D01*
X130306553Y-70690940D01*
X130393966Y-70657946D01*
X130393966Y-70783034D01*
X130386238Y-70868156D01*
X130355966Y-70939938D01*
X130292518Y-71022356D01*
X130283088Y-71033066D01*
X130212513Y-71106391D01*
X130151847Y-71145742D01*
X130075950Y-71163845D01*
X130013030Y-71169774D01*
X129900487Y-71171251D01*
X129820370Y-71152535D01*
X129770390Y-71124747D01*
X129691838Y-71063641D01*
X129637463Y-70997554D01*
X129603052Y-70914441D01*
X129584388Y-70802254D01*
X129577256Y-70648946D01*
X129576687Y-70571136D01*
X129578622Y-70477853D01*
X129754899Y-70477853D01*
X129756944Y-70527896D01*
X129762039Y-70536092D01*
X129795666Y-70524958D01*
X129868030Y-70495493D01*
X129964747Y-70453601D01*
X129984973Y-70444597D01*
X130107203Y-70382442D01*
X130174547Y-70327815D01*
X130189348Y-70276649D01*
X130153947Y-70224876D01*
X130124711Y-70202000D01*
X130019216Y-70156250D01*
X129920476Y-70163808D01*
X129837812Y-70219651D01*
X129780548Y-70318753D01*
X129762188Y-70397414D01*
X129754899Y-70477853D01*
X129578622Y-70477853D01*
X129580459Y-70389351D01*
X129594359Y-70254853D01*
G37*
X129594359Y-70254853D02*
X129621894Y-70156916D01*
X129666572Y-70084811D01*
X129731901Y-70027813D01*
X129760383Y-70009393D01*
X129889763Y-69961422D01*
X130031412Y-69958403D01*
X130168439Y-69996540D01*
X130283950Y-70072034D01*
X130339664Y-70139617D01*
X130383804Y-70262255D01*
X130387309Y-70359298D01*
X130379368Y-70489056D01*
X130080115Y-70620039D01*
X129934611Y-70686958D01*
X129839537Y-70740790D01*
X129790101Y-70787416D01*
X129781511Y-70832720D01*
X129808972Y-70882582D01*
X129839253Y-70915632D01*
X129927363Y-70968633D01*
X130023196Y-70972347D01*
X130111212Y-70931041D01*
X130175869Y-70848983D01*
X130187433Y-70820008D01*
X130242825Y-70729509D01*
X130306553Y-70690940D01*
X130393966Y-70657946D01*
X130393966Y-70783034D01*
X130386238Y-70868156D01*
X130355966Y-70939938D01*
X130292518Y-71022356D01*
X130283088Y-71033066D01*
X130212513Y-71106391D01*
X130151847Y-71145742D01*
X130075950Y-71163845D01*
X130013030Y-71169774D01*
X129900487Y-71171251D01*
X129820370Y-71152535D01*
X129770390Y-71124747D01*
X129691838Y-71063641D01*
X129637463Y-70997554D01*
X129603052Y-70914441D01*
X129584388Y-70802254D01*
X129577256Y-70648946D01*
X129576687Y-70571136D01*
X129578622Y-70477853D01*
X129754899Y-70477853D01*
X129756944Y-70527896D01*
X129762039Y-70536092D01*
X129795666Y-70524958D01*
X129868030Y-70495493D01*
X129964747Y-70453601D01*
X129984973Y-70444597D01*
X130107203Y-70382442D01*
X130174547Y-70327815D01*
X130189348Y-70276649D01*
X130153947Y-70224876D01*
X130124711Y-70202000D01*
X130019216Y-70156250D01*
X129920476Y-70163808D01*
X129837812Y-70219651D01*
X129780548Y-70318753D01*
X129762188Y-70397414D01*
X129754899Y-70477853D01*
X129578622Y-70477853D01*
X129580459Y-70389351D01*
X129594359Y-70254853D01*
G36*
X124890943Y-69961920D02*
G01*
X125023565Y-70010859D01*
X125131010Y-70097419D01*
X125173032Y-70158352D01*
X125218843Y-70270161D01*
X125217891Y-70351006D01*
X125169808Y-70405378D01*
X125152017Y-70414624D01*
X125075204Y-70443450D01*
X125035976Y-70436065D01*
X125022689Y-70387658D01*
X125022012Y-70360920D01*
X124997686Y-70262548D01*
X124934281Y-70193734D01*
X124846154Y-70160498D01*
X124747663Y-70168861D01*
X124667602Y-70212296D01*
X124640561Y-70237072D01*
X124621394Y-70267129D01*
X124608446Y-70312565D01*
X124600064Y-70383476D01*
X124594593Y-70489960D01*
X124590378Y-70642112D01*
X124589287Y-70690287D01*
X124585307Y-70855095D01*
X124580781Y-70971088D01*
X124573995Y-71047833D01*
X124563231Y-71094893D01*
X124546773Y-71121835D01*
X124522906Y-71138223D01*
X124507626Y-71145463D01*
X124442733Y-71170220D01*
X124404534Y-71178391D01*
X124391912Y-71151103D01*
X124384208Y-71068603D01*
X124381380Y-70929941D01*
X124383386Y-70734162D01*
X124384011Y-70703965D01*
X124388421Y-70525349D01*
X124393635Y-70394923D01*
X124401055Y-70302492D01*
X124412082Y-70237858D01*
X124428117Y-70190825D01*
X124450561Y-70151196D01*
X124462302Y-70134215D01*
X124529619Y-70059080D01*
X124604910Y-70000638D01*
X124614128Y-69995536D01*
X124749133Y-69955260D01*
X124890943Y-69961920D01*
G37*
X124890943Y-69961920D02*
X125023565Y-70010859D01*
X125131010Y-70097419D01*
X125173032Y-70158352D01*
X125218843Y-70270161D01*
X125217891Y-70351006D01*
X125169808Y-70405378D01*
X125152017Y-70414624D01*
X125075204Y-70443450D01*
X125035976Y-70436065D01*
X125022689Y-70387658D01*
X125022012Y-70360920D01*
X124997686Y-70262548D01*
X124934281Y-70193734D01*
X124846154Y-70160498D01*
X124747663Y-70168861D01*
X124667602Y-70212296D01*
X124640561Y-70237072D01*
X124621394Y-70267129D01*
X124608446Y-70312565D01*
X124600064Y-70383476D01*
X124594593Y-70489960D01*
X124590378Y-70642112D01*
X124589287Y-70690287D01*
X124585307Y-70855095D01*
X124580781Y-70971088D01*
X124573995Y-71047833D01*
X124563231Y-71094893D01*
X124546773Y-71121835D01*
X124522906Y-71138223D01*
X124507626Y-71145463D01*
X124442733Y-71170220D01*
X124404534Y-71178391D01*
X124391912Y-71151103D01*
X124384208Y-71068603D01*
X124381380Y-70929941D01*
X124383386Y-70734162D01*
X124384011Y-70703965D01*
X124388421Y-70525349D01*
X124393635Y-70394923D01*
X124401055Y-70302492D01*
X124412082Y-70237858D01*
X124428117Y-70190825D01*
X124450561Y-70151196D01*
X124462302Y-70134215D01*
X124529619Y-70059080D01*
X124604910Y-70000638D01*
X124614128Y-69995536D01*
X124749133Y-69955260D01*
X124890943Y-69961920D01*
G36*
X124034014Y-60492998D02*
G01*
X124192006Y-60493863D01*
X124306347Y-60496205D01*
X124384407Y-60500762D01*
X124433554Y-60508270D01*
X124461159Y-60519466D01*
X124474592Y-60535088D01*
X124481221Y-60555873D01*
X124481865Y-60558563D01*
X124491935Y-60607113D01*
X124510575Y-60702905D01*
X124535845Y-60835743D01*
X124565807Y-60995431D01*
X124598522Y-61171774D01*
X124599664Y-61177967D01*
X124632433Y-61350782D01*
X124663093Y-61503469D01*
X124689664Y-61626871D01*
X124710167Y-61711831D01*
X124722626Y-61749190D01*
X124723220Y-61749852D01*
X124759919Y-61768095D01*
X124835586Y-61798497D01*
X124933878Y-61834493D01*
X124934425Y-61834685D01*
X125058233Y-61881222D01*
X125204196Y-61940504D01*
X125341781Y-62000109D01*
X125348293Y-62003056D01*
X125572390Y-62104765D01*
X126068619Y-61765897D01*
X126220846Y-61662592D01*
X126358741Y-61570237D01*
X126474315Y-61494084D01*
X126559579Y-61439385D01*
X126606544Y-61411393D01*
X126611004Y-61409317D01*
X126645134Y-61418560D01*
X126708881Y-61463156D01*
X126804731Y-61545209D01*
X126935169Y-61666821D01*
X127068328Y-61796205D01*
X127196694Y-61923702D01*
X127311581Y-62040046D01*
X127406073Y-62138052D01*
X127473253Y-62210536D01*
X127506206Y-62250313D01*
X127507432Y-62252361D01*
X127511074Y-62279656D01*
X127497350Y-62324234D01*
X127462869Y-62392112D01*
X127404239Y-62489311D01*
X127318070Y-62621851D01*
X127203200Y-62792476D01*
X127101254Y-62942655D01*
X127010123Y-63077350D01*
X126935073Y-63188740D01*
X126881369Y-63269005D01*
X126854280Y-63310325D01*
X126852574Y-63313130D01*
X126855882Y-63352721D01*
X126880953Y-63429669D01*
X126922798Y-63529432D01*
X126937712Y-63561291D01*
X127002786Y-63703226D01*
X127072212Y-63864273D01*
X127128609Y-64003621D01*
X127169247Y-64107044D01*
X127201526Y-64185642D01*
X127220178Y-64226720D01*
X127222497Y-64229885D01*
X127256803Y-64235128D01*
X127337669Y-64249494D01*
X127454343Y-64270937D01*
X127596075Y-64297413D01*
X127752110Y-64326877D01*
X127911698Y-64357283D01*
X128064085Y-64386588D01*
X128198521Y-64412745D01*
X128304252Y-64433710D01*
X128370526Y-64447439D01*
X128386782Y-64451320D01*
X128403573Y-64460900D01*
X128416249Y-64482536D01*
X128425378Y-64523531D01*
X128431531Y-64591189D01*
X128435280Y-64692812D01*
X128437192Y-64835703D01*
X128437840Y-65027165D01*
X128437874Y-65105645D01*
X128437874Y-65743906D01*
X128284598Y-65774160D01*
X128199322Y-65790564D01*
X128072070Y-65814509D01*
X127918315Y-65843107D01*
X127753534Y-65873467D01*
X127707989Y-65881806D01*
X127555932Y-65911370D01*
X127423468Y-65940442D01*
X127321714Y-65966329D01*
X127261788Y-65986337D01*
X127251805Y-65992301D01*
X127227293Y-66034534D01*
X127192148Y-66116370D01*
X127153173Y-66221683D01*
X127145442Y-66244368D01*
X127094360Y-66385018D01*
X127030954Y-66543714D01*
X126968904Y-66686225D01*
X126968598Y-66686886D01*
X126865267Y-66910440D01*
X127544961Y-67910232D01*
X127108621Y-68347300D01*
X126976649Y-68477381D01*
X126856279Y-68592048D01*
X126754273Y-68685181D01*
X126677391Y-68750658D01*
X126632393Y-68782357D01*
X126625938Y-68784368D01*
X126588040Y-68768529D01*
X126510708Y-68724496D01*
X126402389Y-68657490D01*
X126271532Y-68572734D01*
X126130052Y-68477816D01*
X125986461Y-68380998D01*
X125858435Y-68296751D01*
X125754105Y-68230258D01*
X125681600Y-68186702D01*
X125649158Y-68171264D01*
X125609576Y-68184328D01*
X125534519Y-68218750D01*
X125439468Y-68267380D01*
X125429392Y-68272785D01*
X125301391Y-68336980D01*
X125213618Y-68368463D01*
X125159028Y-68368798D01*
X125130575Y-68339548D01*
X125130410Y-68339138D01*
X125116188Y-68304498D01*
X125082269Y-68222269D01*
X125031284Y-68098814D01*
X124965862Y-67940498D01*
X124888634Y-67753686D01*
X124802229Y-67544742D01*
X124718551Y-67342446D01*
X124626588Y-67119200D01*
X124542150Y-66912392D01*
X124467769Y-66728362D01*
X124405974Y-66573451D01*
X124359297Y-66453996D01*
X124330268Y-66376339D01*
X124321322Y-66347356D01*
X124343756Y-66314110D01*
X124402439Y-66261123D01*
X124480689Y-66202704D01*
X124703534Y-66017952D01*
X124877718Y-65806182D01*
X125001154Y-65571856D01*
X125071754Y-65319434D01*
X125087431Y-65053377D01*
X125076036Y-64930575D01*
X125013950Y-64675793D01*
X124907023Y-64450801D01*
X124761889Y-64257817D01*
X124585178Y-64099061D01*
X124383522Y-63976750D01*
X124163554Y-63893105D01*
X123931906Y-63850344D01*
X123695209Y-63850687D01*
X123460095Y-63896352D01*
X123233196Y-63989559D01*
X123021144Y-64132527D01*
X122932636Y-64213383D01*
X122762889Y-64421007D01*
X122644699Y-64647895D01*
X122577278Y-64887433D01*
X122559840Y-65133007D01*
X122591598Y-65378003D01*
X122671765Y-65615808D01*
X122799555Y-65839807D01*
X122974180Y-66043387D01*
X123169312Y-66202704D01*
X123250591Y-66263602D01*
X123308009Y-66316015D01*
X123328678Y-66347406D01*
X123317856Y-66381639D01*
X123287077Y-66463419D01*
X123238874Y-66586407D01*
X123175778Y-66744263D01*
X123100322Y-66930649D01*
X123015038Y-67139226D01*
X122931219Y-67342496D01*
X122838745Y-67565933D01*
X122753089Y-67772984D01*
X122676882Y-67957286D01*
X122612753Y-68112475D01*
X122563332Y-68232188D01*
X122531248Y-68310061D01*
X122519359Y-68339138D01*
X122491274Y-68368677D01*
X122436949Y-68368591D01*
X122349395Y-68337326D01*
X122221619Y-68273329D01*
X122220608Y-68272785D01*
X122124402Y-68223121D01*
X122046631Y-68186945D01*
X122002777Y-68171408D01*
X122000842Y-68171264D01*
X121967829Y-68187024D01*
X121894946Y-68230850D01*
X121790322Y-68297557D01*
X121662090Y-68381964D01*
X121519948Y-68477816D01*
X121375233Y-68574867D01*
X121244804Y-68659270D01*
X121137110Y-68725801D01*
X121060598Y-68769238D01*
X121024062Y-68784368D01*
X120990418Y-68764482D01*
X120922776Y-68708903D01*
X120827893Y-68623754D01*
X120712530Y-68515153D01*
X120583445Y-68389221D01*
X120541229Y-68347149D01*
X120104739Y-67909931D01*
X120436977Y-67422340D01*
X120537946Y-67272605D01*
X120626562Y-67138220D01*
X120697854Y-67026969D01*
X120746850Y-66946639D01*
X120768578Y-66905014D01*
X120769215Y-66902053D01*
X120757760Y-66862818D01*
X120726949Y-66783895D01*
X120682116Y-66678509D01*
X120650647Y-66607954D01*
X120591808Y-66472876D01*
X120536396Y-66336409D01*
X120493436Y-66221103D01*
X120481766Y-66185977D01*
X120448611Y-66092174D01*
X120416201Y-66019694D01*
X120398399Y-65992301D01*
X120359114Y-65975536D01*
X120273374Y-65951770D01*
X120152303Y-65923697D01*
X120007027Y-65894009D01*
X119942012Y-65881806D01*
X119776913Y-65851468D01*
X119618552Y-65822093D01*
X119482404Y-65796569D01*
X119383943Y-65777785D01*
X119365402Y-65774160D01*
X119212127Y-65743906D01*
X119212127Y-65105645D01*
X119212471Y-64895770D01*
X119213884Y-64736980D01*
X119216936Y-64621973D01*
X119222197Y-64543446D01*
X119230237Y-64494096D01*
X119241627Y-64466619D01*
X119256937Y-64453713D01*
X119263218Y-64451320D01*
X119301104Y-64442833D01*
X119384805Y-64425900D01*
X119503567Y-64402566D01*
X119646639Y-64374875D01*
X119803268Y-64344873D01*
X119962703Y-64314604D01*
X120114191Y-64286115D01*
X120246981Y-64261449D01*
X120350319Y-64242651D01*
X120413455Y-64231767D01*
X120427503Y-64229885D01*
X120440230Y-64204704D01*
X120468400Y-64137622D01*
X120506748Y-64041333D01*
X120521391Y-64003621D01*
X120580452Y-63857921D01*
X120650000Y-63696951D01*
X120712288Y-63561291D01*
X120758121Y-63457561D01*
X120788613Y-63372326D01*
X120798792Y-63320126D01*
X120797169Y-63313130D01*
X120775657Y-63280102D01*
X120726535Y-63206643D01*
X120655077Y-63100577D01*
X120566555Y-62969726D01*
X120466241Y-62821912D01*
X120446406Y-62792734D01*
X120330012Y-62619863D01*
X120244452Y-62488226D01*
X120186316Y-62391761D01*
X120152192Y-62324408D01*
X120138669Y-62280106D01*
X120142336Y-62252794D01*
X120142430Y-62252620D01*
X120171293Y-62216746D01*
X120235133Y-62147391D01*
X120327031Y-62051745D01*
X120440067Y-61936999D01*
X120567321Y-61810341D01*
X120581672Y-61796205D01*
X120742043Y-61640903D01*
X120865805Y-61526870D01*
X120955445Y-61452002D01*
X121013448Y-61414196D01*
X121038996Y-61409317D01*
X121076282Y-61430603D01*
X121153657Y-61479773D01*
X121263133Y-61551575D01*
X121396720Y-61640755D01*
X121546430Y-61742063D01*
X121581382Y-61765897D01*
X122077610Y-62104765D01*
X122301707Y-62003056D01*
X122437989Y-61943783D01*
X122584276Y-61884170D01*
X122710035Y-61836640D01*
X122715575Y-61834685D01*
X122813943Y-61798677D01*
X122889771Y-61768229D01*
X122926718Y-61749905D01*
X122926780Y-61749852D01*
X122938504Y-61716729D01*
X122958432Y-61635267D01*
X122984587Y-61514625D01*
X123014990Y-61363959D01*
X123047663Y-61192428D01*
X123050336Y-61177967D01*
X123083110Y-61001235D01*
X123113198Y-60840810D01*
X123138661Y-60706888D01*
X123157559Y-60609663D01*
X123167953Y-60559332D01*
X123168135Y-60558563D01*
X123174461Y-60537153D01*
X123186761Y-60520988D01*
X123212406Y-60509331D01*
X123258765Y-60501445D01*
X123333208Y-60496593D01*
X123443105Y-60494039D01*
X123595825Y-60493045D01*
X123798738Y-60492874D01*
X123825000Y-60492874D01*
X124034014Y-60492998D01*
G37*
X124034014Y-60492998D02*
X124192006Y-60493863D01*
X124306347Y-60496205D01*
X124384407Y-60500762D01*
X124433554Y-60508270D01*
X124461159Y-60519466D01*
X124474592Y-60535088D01*
X124481221Y-60555873D01*
X124481865Y-60558563D01*
X124491935Y-60607113D01*
X124510575Y-60702905D01*
X124535845Y-60835743D01*
X124565807Y-60995431D01*
X124598522Y-61171774D01*
X124599664Y-61177967D01*
X124632433Y-61350782D01*
X124663093Y-61503469D01*
X124689664Y-61626871D01*
X124710167Y-61711831D01*
X124722626Y-61749190D01*
X124723220Y-61749852D01*
X124759919Y-61768095D01*
X124835586Y-61798497D01*
X124933878Y-61834493D01*
X124934425Y-61834685D01*
X125058233Y-61881222D01*
X125204196Y-61940504D01*
X125341781Y-62000109D01*
X125348293Y-62003056D01*
X125572390Y-62104765D01*
X126068619Y-61765897D01*
X126220846Y-61662592D01*
X126358741Y-61570237D01*
X126474315Y-61494084D01*
X126559579Y-61439385D01*
X126606544Y-61411393D01*
X126611004Y-61409317D01*
X126645134Y-61418560D01*
X126708881Y-61463156D01*
X126804731Y-61545209D01*
X126935169Y-61666821D01*
X127068328Y-61796205D01*
X127196694Y-61923702D01*
X127311581Y-62040046D01*
X127406073Y-62138052D01*
X127473253Y-62210536D01*
X127506206Y-62250313D01*
X127507432Y-62252361D01*
X127511074Y-62279656D01*
X127497350Y-62324234D01*
X127462869Y-62392112D01*
X127404239Y-62489311D01*
X127318070Y-62621851D01*
X127203200Y-62792476D01*
X127101254Y-62942655D01*
X127010123Y-63077350D01*
X126935073Y-63188740D01*
X126881369Y-63269005D01*
X126854280Y-63310325D01*
X126852574Y-63313130D01*
X126855882Y-63352721D01*
X126880953Y-63429669D01*
X126922798Y-63529432D01*
X126937712Y-63561291D01*
X127002786Y-63703226D01*
X127072212Y-63864273D01*
X127128609Y-64003621D01*
X127169247Y-64107044D01*
X127201526Y-64185642D01*
X127220178Y-64226720D01*
X127222497Y-64229885D01*
X127256803Y-64235128D01*
X127337669Y-64249494D01*
X127454343Y-64270937D01*
X127596075Y-64297413D01*
X127752110Y-64326877D01*
X127911698Y-64357283D01*
X128064085Y-64386588D01*
X128198521Y-64412745D01*
X128304252Y-64433710D01*
X128370526Y-64447439D01*
X128386782Y-64451320D01*
X128403573Y-64460900D01*
X128416249Y-64482536D01*
X128425378Y-64523531D01*
X128431531Y-64591189D01*
X128435280Y-64692812D01*
X128437192Y-64835703D01*
X128437840Y-65027165D01*
X128437874Y-65105645D01*
X128437874Y-65743906D01*
X128284598Y-65774160D01*
X128199322Y-65790564D01*
X128072070Y-65814509D01*
X127918315Y-65843107D01*
X127753534Y-65873467D01*
X127707989Y-65881806D01*
X127555932Y-65911370D01*
X127423468Y-65940442D01*
X127321714Y-65966329D01*
X127261788Y-65986337D01*
X127251805Y-65992301D01*
X127227293Y-66034534D01*
X127192148Y-66116370D01*
X127153173Y-66221683D01*
X127145442Y-66244368D01*
X127094360Y-66385018D01*
X127030954Y-66543714D01*
X126968904Y-66686225D01*
X126968598Y-66686886D01*
X126865267Y-66910440D01*
X127544961Y-67910232D01*
X127108621Y-68347300D01*
X126976649Y-68477381D01*
X126856279Y-68592048D01*
X126754273Y-68685181D01*
X126677391Y-68750658D01*
X126632393Y-68782357D01*
X126625938Y-68784368D01*
X126588040Y-68768529D01*
X126510708Y-68724496D01*
X126402389Y-68657490D01*
X126271532Y-68572734D01*
X126130052Y-68477816D01*
X125986461Y-68380998D01*
X125858435Y-68296751D01*
X125754105Y-68230258D01*
X125681600Y-68186702D01*
X125649158Y-68171264D01*
X125609576Y-68184328D01*
X125534519Y-68218750D01*
X125439468Y-68267380D01*
X125429392Y-68272785D01*
X125301391Y-68336980D01*
X125213618Y-68368463D01*
X125159028Y-68368798D01*
X125130575Y-68339548D01*
X125130410Y-68339138D01*
X125116188Y-68304498D01*
X125082269Y-68222269D01*
X125031284Y-68098814D01*
X124965862Y-67940498D01*
X124888634Y-67753686D01*
X124802229Y-67544742D01*
X124718551Y-67342446D01*
X124626588Y-67119200D01*
X124542150Y-66912392D01*
X124467769Y-66728362D01*
X124405974Y-66573451D01*
X124359297Y-66453996D01*
X124330268Y-66376339D01*
X124321322Y-66347356D01*
X124343756Y-66314110D01*
X124402439Y-66261123D01*
X124480689Y-66202704D01*
X124703534Y-66017952D01*
X124877718Y-65806182D01*
X125001154Y-65571856D01*
X125071754Y-65319434D01*
X125087431Y-65053377D01*
X125076036Y-64930575D01*
X125013950Y-64675793D01*
X124907023Y-64450801D01*
X124761889Y-64257817D01*
X124585178Y-64099061D01*
X124383522Y-63976750D01*
X124163554Y-63893105D01*
X123931906Y-63850344D01*
X123695209Y-63850687D01*
X123460095Y-63896352D01*
X123233196Y-63989559D01*
X123021144Y-64132527D01*
X122932636Y-64213383D01*
X122762889Y-64421007D01*
X122644699Y-64647895D01*
X122577278Y-64887433D01*
X122559840Y-65133007D01*
X122591598Y-65378003D01*
X122671765Y-65615808D01*
X122799555Y-65839807D01*
X122974180Y-66043387D01*
X123169312Y-66202704D01*
X123250591Y-66263602D01*
X123308009Y-66316015D01*
X123328678Y-66347406D01*
X123317856Y-66381639D01*
X123287077Y-66463419D01*
X123238874Y-66586407D01*
X123175778Y-66744263D01*
X123100322Y-66930649D01*
X123015038Y-67139226D01*
X122931219Y-67342496D01*
X122838745Y-67565933D01*
X122753089Y-67772984D01*
X122676882Y-67957286D01*
X122612753Y-68112475D01*
X122563332Y-68232188D01*
X122531248Y-68310061D01*
X122519359Y-68339138D01*
X122491274Y-68368677D01*
X122436949Y-68368591D01*
X122349395Y-68337326D01*
X122221619Y-68273329D01*
X122220608Y-68272785D01*
X122124402Y-68223121D01*
X122046631Y-68186945D01*
X122002777Y-68171408D01*
X122000842Y-68171264D01*
X121967829Y-68187024D01*
X121894946Y-68230850D01*
X121790322Y-68297557D01*
X121662090Y-68381964D01*
X121519948Y-68477816D01*
X121375233Y-68574867D01*
X121244804Y-68659270D01*
X121137110Y-68725801D01*
X121060598Y-68769238D01*
X121024062Y-68784368D01*
X120990418Y-68764482D01*
X120922776Y-68708903D01*
X120827893Y-68623754D01*
X120712530Y-68515153D01*
X120583445Y-68389221D01*
X120541229Y-68347149D01*
X120104739Y-67909931D01*
X120436977Y-67422340D01*
X120537946Y-67272605D01*
X120626562Y-67138220D01*
X120697854Y-67026969D01*
X120746850Y-66946639D01*
X120768578Y-66905014D01*
X120769215Y-66902053D01*
X120757760Y-66862818D01*
X120726949Y-66783895D01*
X120682116Y-66678509D01*
X120650647Y-66607954D01*
X120591808Y-66472876D01*
X120536396Y-66336409D01*
X120493436Y-66221103D01*
X120481766Y-66185977D01*
X120448611Y-66092174D01*
X120416201Y-66019694D01*
X120398399Y-65992301D01*
X120359114Y-65975536D01*
X120273374Y-65951770D01*
X120152303Y-65923697D01*
X120007027Y-65894009D01*
X119942012Y-65881806D01*
X119776913Y-65851468D01*
X119618552Y-65822093D01*
X119482404Y-65796569D01*
X119383943Y-65777785D01*
X119365402Y-65774160D01*
X119212127Y-65743906D01*
X119212127Y-65105645D01*
X119212471Y-64895770D01*
X119213884Y-64736980D01*
X119216936Y-64621973D01*
X119222197Y-64543446D01*
X119230237Y-64494096D01*
X119241627Y-64466619D01*
X119256937Y-64453713D01*
X119263218Y-64451320D01*
X119301104Y-64442833D01*
X119384805Y-64425900D01*
X119503567Y-64402566D01*
X119646639Y-64374875D01*
X119803268Y-64344873D01*
X119962703Y-64314604D01*
X120114191Y-64286115D01*
X120246981Y-64261449D01*
X120350319Y-64242651D01*
X120413455Y-64231767D01*
X120427503Y-64229885D01*
X120440230Y-64204704D01*
X120468400Y-64137622D01*
X120506748Y-64041333D01*
X120521391Y-64003621D01*
X120580452Y-63857921D01*
X120650000Y-63696951D01*
X120712288Y-63561291D01*
X120758121Y-63457561D01*
X120788613Y-63372326D01*
X120798792Y-63320126D01*
X120797169Y-63313130D01*
X120775657Y-63280102D01*
X120726535Y-63206643D01*
X120655077Y-63100577D01*
X120566555Y-62969726D01*
X120466241Y-62821912D01*
X120446406Y-62792734D01*
X120330012Y-62619863D01*
X120244452Y-62488226D01*
X120186316Y-62391761D01*
X120152192Y-62324408D01*
X120138669Y-62280106D01*
X120142336Y-62252794D01*
X120142430Y-62252620D01*
X120171293Y-62216746D01*
X120235133Y-62147391D01*
X120327031Y-62051745D01*
X120440067Y-61936999D01*
X120567321Y-61810341D01*
X120581672Y-61796205D01*
X120742043Y-61640903D01*
X120865805Y-61526870D01*
X120955445Y-61452002D01*
X121013448Y-61414196D01*
X121038996Y-61409317D01*
X121076282Y-61430603D01*
X121153657Y-61479773D01*
X121263133Y-61551575D01*
X121396720Y-61640755D01*
X121546430Y-61742063D01*
X121581382Y-61765897D01*
X122077610Y-62104765D01*
X122301707Y-62003056D01*
X122437989Y-61943783D01*
X122584276Y-61884170D01*
X122710035Y-61836640D01*
X122715575Y-61834685D01*
X122813943Y-61798677D01*
X122889771Y-61768229D01*
X122926718Y-61749905D01*
X122926780Y-61749852D01*
X122938504Y-61716729D01*
X122958432Y-61635267D01*
X122984587Y-61514625D01*
X123014990Y-61363959D01*
X123047663Y-61192428D01*
X123050336Y-61177967D01*
X123083110Y-61001235D01*
X123113198Y-60840810D01*
X123138661Y-60706888D01*
X123157559Y-60609663D01*
X123167953Y-60559332D01*
X123168135Y-60558563D01*
X123174461Y-60537153D01*
X123186761Y-60520988D01*
X123212406Y-60509331D01*
X123258765Y-60501445D01*
X123333208Y-60496593D01*
X123443105Y-60494039D01*
X123595825Y-60493045D01*
X123798738Y-60492874D01*
X123825000Y-60492874D01*
X124034014Y-60492998D01*
G36*
X125403472Y-70244195D02*
G01*
X125448548Y-70140632D01*
X125518928Y-70059856D01*
X125573743Y-70018455D01*
X125673376Y-69973728D01*
X125788855Y-69952967D01*
X125896199Y-69958525D01*
X125956264Y-69980943D01*
X125979835Y-69987323D01*
X125995477Y-69963535D01*
X126006395Y-69899788D01*
X126014655Y-69802687D01*
X126023699Y-69694541D01*
X126036261Y-69629475D01*
X126059119Y-69592268D01*
X126099051Y-69567699D01*
X126124138Y-69556819D01*
X126219023Y-69517072D01*
X126218914Y-70194455D01*
X126218543Y-70412661D01*
X126217108Y-70580519D01*
X126214002Y-70706070D01*
X126208622Y-70797355D01*
X126200362Y-70862415D01*
X126188616Y-70909291D01*
X126172781Y-70946024D01*
X126160790Y-70966991D01*
X126061490Y-71080694D01*
X125935588Y-71151965D01*
X125796291Y-71177538D01*
X125656805Y-71154150D01*
X125573743Y-71112119D01*
X125486545Y-71039411D01*
X125427117Y-70950612D01*
X125391261Y-70834320D01*
X125374781Y-70679135D01*
X125372447Y-70565287D01*
X125372761Y-70557106D01*
X125576724Y-70557106D01*
X125577970Y-70687657D01*
X125583678Y-70774080D01*
X125596804Y-70830618D01*
X125620306Y-70871514D01*
X125648386Y-70902362D01*
X125742688Y-70961905D01*
X125843940Y-70966992D01*
X125939636Y-70917279D01*
X125947084Y-70910543D01*
X125978874Y-70875502D01*
X125998808Y-70833811D01*
X126009600Y-70771762D01*
X126013965Y-70675644D01*
X126014655Y-70569379D01*
X126013159Y-70435880D01*
X126006964Y-70346822D01*
X125993514Y-70288293D01*
X125970251Y-70246382D01*
X125951175Y-70224123D01*
X125862563Y-70167985D01*
X125760508Y-70161235D01*
X125663095Y-70204114D01*
X125644296Y-70220032D01*
X125612293Y-70255382D01*
X125592318Y-70297502D01*
X125581593Y-70360251D01*
X125577339Y-70457487D01*
X125576724Y-70557106D01*
X125372761Y-70557106D01*
X125379504Y-70381947D01*
X125403472Y-70244195D01*
G37*
X125403472Y-70244195D02*
X125448548Y-70140632D01*
X125518928Y-70059856D01*
X125573743Y-70018455D01*
X125673376Y-69973728D01*
X125788855Y-69952967D01*
X125896199Y-69958525D01*
X125956264Y-69980943D01*
X125979835Y-69987323D01*
X125995477Y-69963535D01*
X126006395Y-69899788D01*
X126014655Y-69802687D01*
X126023699Y-69694541D01*
X126036261Y-69629475D01*
X126059119Y-69592268D01*
X126099051Y-69567699D01*
X126124138Y-69556819D01*
X126219023Y-69517072D01*
X126218914Y-70194455D01*
X126218543Y-70412661D01*
X126217108Y-70580519D01*
X126214002Y-70706070D01*
X126208622Y-70797355D01*
X126200362Y-70862415D01*
X126188616Y-70909291D01*
X126172781Y-70946024D01*
X126160790Y-70966991D01*
X126061490Y-71080694D01*
X125935588Y-71151965D01*
X125796291Y-71177538D01*
X125656805Y-71154150D01*
X125573743Y-71112119D01*
X125486545Y-71039411D01*
X125427117Y-70950612D01*
X125391261Y-70834320D01*
X125374781Y-70679135D01*
X125372447Y-70565287D01*
X125372761Y-70557106D01*
X125576724Y-70557106D01*
X125577970Y-70687657D01*
X125583678Y-70774080D01*
X125596804Y-70830618D01*
X125620306Y-70871514D01*
X125648386Y-70902362D01*
X125742688Y-70961905D01*
X125843940Y-70966992D01*
X125939636Y-70917279D01*
X125947084Y-70910543D01*
X125978874Y-70875502D01*
X125998808Y-70833811D01*
X126009600Y-70771762D01*
X126013965Y-70675644D01*
X126014655Y-70569379D01*
X126013159Y-70435880D01*
X126006964Y-70346822D01*
X125993514Y-70288293D01*
X125970251Y-70246382D01*
X125951175Y-70224123D01*
X125862563Y-70167985D01*
X125760508Y-70161235D01*
X125663095Y-70204114D01*
X125644296Y-70220032D01*
X125612293Y-70255382D01*
X125592318Y-70297502D01*
X125581593Y-70360251D01*
X125577339Y-70457487D01*
X125576724Y-70557106D01*
X125372761Y-70557106D01*
X125379504Y-70381947D01*
X125403472Y-70244195D01*
D12*
%TO.C,R6*%
X153770000Y-62465000D02*
X154224128Y-62465000D01*
X153770000Y-60995000D02*
X154224128Y-60995000D01*
%TO.C,SW3*%
X166060000Y-59120000D02*
X166060000Y-57620000D01*
X160310000Y-61620000D02*
X164810000Y-61620000D01*
X159060000Y-57620000D02*
X159060000Y-59120000D01*
X164810000Y-55120000D02*
X160310000Y-55120000D01*
%TO.C,R5*%
X153812936Y-58635000D02*
X154267064Y-58635000D01*
X153812936Y-57165000D02*
X154267064Y-57165000D01*
%TO.C,R11*%
X166142936Y-108177000D02*
X166597064Y-108177000D01*
X166142936Y-106707000D02*
X166597064Y-106707000D01*
%TO.C,JP5*%
X151190000Y-78680000D02*
X148530000Y-78680000D01*
X151190000Y-81280000D02*
X148530000Y-81280000D01*
X148530000Y-81280000D02*
X148530000Y-78680000D01*
X151190000Y-83880000D02*
X149860000Y-83880000D01*
X151190000Y-81280000D02*
X151190000Y-78680000D01*
X151190000Y-82550000D02*
X151190000Y-83880000D01*
%TO.C,R3*%
X142775000Y-94572064D02*
X142775000Y-94117936D01*
X144245000Y-94572064D02*
X144245000Y-94117936D01*
%TO.C,J1*%
X145990000Y-104200000D02*
X145990000Y-88840000D01*
X145990000Y-88840000D02*
X151190000Y-88840000D01*
X149860000Y-104200000D02*
X151190000Y-104200000D01*
X148590000Y-101600000D02*
X151190000Y-101600000D01*
X151190000Y-101600000D02*
X151190000Y-88840000D01*
X148590000Y-104200000D02*
X148590000Y-101600000D01*
X151190000Y-104200000D02*
X151190000Y-102870000D01*
X145990000Y-104200000D02*
X148590000Y-104200000D01*
%TO.C,JP1*%
X133350000Y-109160000D02*
X135950000Y-109160000D01*
X133350000Y-111820000D02*
X135950000Y-111820000D01*
X135950000Y-111820000D02*
X135950000Y-109160000D01*
X133350000Y-111820000D02*
X133350000Y-109160000D01*
X130750000Y-111820000D02*
X130750000Y-110490000D01*
X132080000Y-111820000D02*
X130750000Y-111820000D01*
%TD*%
%LPC*%
D14*
%TO.C,J9*%
X111840331Y-115270000D03*
X111840331Y-90270000D03*
D15*
X113260331Y-97230000D03*
D16*
X113260331Y-100000000D03*
X113260331Y-102770000D03*
X113260331Y-105540000D03*
X113260331Y-108310000D03*
X110420331Y-98615000D03*
X110420331Y-101385000D03*
X110420331Y-104155000D03*
X110420331Y-106925000D03*
%TD*%
D17*
%TO.C,D1*%
X140661000Y-116230000D03*
X142711000Y-116230000D03*
%TD*%
D18*
%TO.C,J10*%
X120665000Y-55855000D03*
D19*
X123205000Y-55855000D03*
X125745000Y-55855000D03*
%TD*%
D20*
%TO.C,J2*%
X139700000Y-102870000D03*
D19*
X139700000Y-100330000D03*
X139700000Y-97790000D03*
X139700000Y-95250000D03*
X139700000Y-92710000D03*
X139700000Y-90170000D03*
X139700000Y-87630000D03*
X139700000Y-85090000D03*
X139700000Y-82550000D03*
X139700000Y-80010000D03*
X139700000Y-77470000D03*
X139700000Y-74930000D03*
%TD*%
D21*
%TO.C,R10*%
X165370000Y-103710000D03*
X167370000Y-103710000D03*
%TD*%
D22*
%TO.C,J6*%
X118364000Y-110490000D03*
D19*
X120904000Y-110490000D03*
X118364000Y-113030000D03*
X120904000Y-113030000D03*
X118364000Y-115570000D03*
X120904000Y-115570000D03*
%TD*%
D21*
%TO.C,R12*%
X140686000Y-112395000D03*
X142686000Y-112395000D03*
%TD*%
D23*
%TO.C,SW4*%
X165810000Y-66330000D03*
X159310000Y-66330000D03*
X165810000Y-70830000D03*
X159310000Y-70830000D03*
%TD*%
D21*
%TO.C,R8*%
X153040000Y-69510000D03*
X155040000Y-69510000D03*
%TD*%
%TO.C,R9*%
X165370000Y-100115000D03*
X167370000Y-100115000D03*
%TD*%
D20*
%TO.C,J3*%
X127000000Y-102870000D03*
D19*
X127000000Y-100330000D03*
X127000000Y-97790000D03*
X127000000Y-95250000D03*
X127000000Y-92710000D03*
%TD*%
D18*
%TO.C,JP4*%
X146050000Y-67945000D03*
D19*
X148590000Y-67945000D03*
%TD*%
D21*
%TO.C,R4*%
X153040000Y-53975000D03*
X155040000Y-53975000D03*
%TD*%
D23*
%TO.C,SW1*%
X134945000Y-56100000D03*
X141445000Y-56100000D03*
X134945000Y-60600000D03*
X141445000Y-60600000D03*
%TD*%
D21*
%TO.C,R7*%
X153040000Y-65700000D03*
X155040000Y-65700000D03*
%TD*%
D24*
%TO.C,R2*%
X153045000Y-94980000D03*
X153045000Y-92980000D03*
%TD*%
D18*
%TO.C,JP3*%
X134620000Y-67945000D03*
D19*
X137160000Y-67945000D03*
X139700000Y-67945000D03*
%TD*%
D22*
%TO.C,J11*%
X166370000Y-83175000D03*
D19*
X166370000Y-85715000D03*
X166370000Y-88255000D03*
X166370000Y-90795000D03*
X166370000Y-93335000D03*
X166370000Y-95875000D03*
%TD*%
D25*
%TO.C,JP2*%
X128875000Y-82550000D03*
D26*
X130175000Y-82550000D03*
D27*
X131475000Y-82550000D03*
%TD*%
D28*
%TO.C,R1*%
X160385000Y-108585000D03*
X158385000Y-108585000D03*
%TD*%
D14*
%TO.C,J8*%
X111840331Y-79710000D03*
X111840331Y-54710000D03*
D15*
X113260331Y-61670000D03*
D16*
X113260331Y-64440000D03*
X113260331Y-67210000D03*
X113260331Y-69980000D03*
X113260331Y-72750000D03*
X110420331Y-63055000D03*
X110420331Y-65825000D03*
X110420331Y-68595000D03*
X110420331Y-71365000D03*
%TD*%
D21*
%TO.C,R6*%
X152997064Y-61730000D03*
X154997064Y-61730000D03*
%TD*%
D23*
%TO.C,SW3*%
X165810000Y-56120000D03*
X159310000Y-56120000D03*
X159310000Y-60620000D03*
X165810000Y-60620000D03*
%TD*%
D21*
%TO.C,R5*%
X153040000Y-57900000D03*
X155040000Y-57900000D03*
%TD*%
%TO.C,R11*%
X165370000Y-107442000D03*
X167370000Y-107442000D03*
%TD*%
D20*
%TO.C,JP5*%
X149860000Y-82550000D03*
D19*
X149860000Y-80010000D03*
%TD*%
D29*
%TO.C,R3*%
X143510000Y-95345000D03*
X143510000Y-93345000D03*
%TD*%
D19*
%TO.C,J1*%
X147320000Y-90170000D03*
X147320000Y-92710000D03*
X147320000Y-95250000D03*
X147320000Y-97790000D03*
X147320000Y-100330000D03*
X147320000Y-102870000D03*
X149860000Y-90170000D03*
X149860000Y-92710000D03*
X149860000Y-95250000D03*
X149860000Y-97790000D03*
X149860000Y-100330000D03*
D20*
X149860000Y-102870000D03*
%TD*%
D18*
%TO.C,JP1*%
X132080000Y-110490000D03*
D19*
X134620000Y-110490000D03*
%TD*%
D18*
%TO.C,J7*%
X153035000Y-113340000D03*
D19*
X155575000Y-113340000D03*
X158115000Y-113340000D03*
X160655000Y-113340000D03*
X163195000Y-113340000D03*
X165735000Y-113340000D03*
X153035000Y-115880000D03*
X155575000Y-115880000D03*
X158115000Y-115880000D03*
X160655000Y-115880000D03*
X163195000Y-115880000D03*
X165735000Y-115880000D03*
%TD*%
D20*
%TO.C,J4*%
X123190000Y-80010000D03*
D19*
X120650000Y-80010000D03*
X123190000Y-82550000D03*
X120650000Y-82550000D03*
X123190000Y-85090000D03*
X120650000Y-85090000D03*
X123190000Y-87630000D03*
X120650000Y-87630000D03*
X123190000Y-90170000D03*
X120650000Y-90170000D03*
X123190000Y-92710000D03*
X120650000Y-92710000D03*
X123190000Y-95250000D03*
X120650000Y-95250000D03*
X123190000Y-97790000D03*
X120650000Y-97790000D03*
X123190000Y-100330000D03*
X120650000Y-100330000D03*
X123190000Y-102870000D03*
X120650000Y-102870000D03*
%TD*%
D20*
%TO.C,J5*%
X158750000Y-80010000D03*
D19*
X156210000Y-80010000D03*
X158750000Y-82550000D03*
X156210000Y-82550000D03*
X158750000Y-85090000D03*
X156210000Y-85090000D03*
X158750000Y-87630000D03*
X156210000Y-87630000D03*
X158750000Y-90170000D03*
X156210000Y-90170000D03*
X158750000Y-92710000D03*
X156210000Y-92710000D03*
X158750000Y-95250000D03*
X156210000Y-95250000D03*
X158750000Y-97790000D03*
X156210000Y-97790000D03*
X158750000Y-100330000D03*
X156210000Y-100330000D03*
X158750000Y-102870000D03*
X156210000Y-102870000D03*
%TD*%
M02*
