M48
; DRILL file {KiCad 6.0.11-2627ca5db0~126~ubuntu22.04.1} date Sat 25 Feb 2023 20:18:11 CET
; FORMAT={-:-/ absolute / inch / decimal}
; #@! TF.CreationDate,2023-02-25T20:18:11+01:00
; #@! TF.GenerationSoftware,Kicad,Pcbnew,6.0.11-2627ca5db0~126~ubuntu22.04.1
; #@! TF.FileFunction,Plated,1,2,PTH
FMAT,2
INCH
; #@! TA.AperFunction,Plated,PTH,ViaDrill
T1C0.0118
; #@! TA.AperFunction,Plated,PTH,ViaDrill
T2C0.0157
; #@! TA.AperFunction,Plated,PTH,ComponentDrill
T3C0.0394
; #@! TA.AperFunction,Plated,PTH,ComponentDrill
T4C0.0433
; #@! TA.AperFunction,Plated,PTH,ComponentDrill
T5C0.1260
%
G90
G05
T1
X4.63Y-3.736
X4.645Y-3.86
X4.93Y-3.64
X4.935Y-3.55
X4.96Y-3.115
X4.96Y-3.33
X4.995Y-3.55
X5.26Y-3.25
X5.335Y-3.405
X5.365Y-4.165
X5.585Y-4.2007
X5.5925Y-3.5925
X5.6725Y-3.5475
X5.735Y-3.35
X5.785Y-3.38
X5.95Y-2.355
X5.975Y-3.44
X5.995Y-2.68
X6.0Y-2.345
X6.025Y-2.485
X6.04Y-3.915
X6.04Y-3.95
X6.04Y-3.985
X6.0757Y-3.8707
X6.1051Y-3.7151
X6.285Y-3.8
X6.44Y-4.02
X6.44Y-4.16
X6.455Y-3.51
T2
X5.16Y-4.18
X5.59Y-3.16
X5.895Y-4.64
X6.0575Y-2.7975
T3
X4.3473Y-2.4825
X4.3473Y-2.5915
X4.3473Y-2.7006
X4.3473Y-2.8096
X4.3473Y-3.8825
X4.3473Y-3.9915
X4.3473Y-4.1006
X4.3473Y-4.2096
X4.4591Y-2.428
X4.4591Y-2.537
X4.4591Y-2.6461
X4.4591Y-2.7551
X4.4591Y-2.8642
X4.4591Y-3.828
X4.4591Y-3.937
X4.4591Y-4.0461
X4.4591Y-4.1551
X4.4591Y-4.2642
X4.75Y-3.15
X4.75Y-3.25
X4.75Y-3.35
X4.75Y-3.45
X4.75Y-3.55
X4.75Y-3.65
X4.75Y-3.75
X4.75Y-3.85
X4.75Y-3.95
X4.75Y-4.05
X4.75Y-4.35
X4.75Y-4.45
X4.75Y-4.55
X4.7506Y-2.199
X4.85Y-3.15
X4.85Y-3.25
X4.85Y-3.35
X4.85Y-3.45
X4.85Y-3.55
X4.85Y-3.65
X4.85Y-3.75
X4.85Y-3.85
X4.85Y-3.95
X4.85Y-4.05
X4.85Y-4.35
X4.85Y-4.45
X4.85Y-4.55
X4.8506Y-2.199
X4.9506Y-2.199
X5.0Y-3.65
X5.0Y-3.75
X5.0Y-3.85
X5.0Y-3.95
X5.0Y-4.05
X5.2Y-4.35
X5.3Y-2.675
X5.3Y-4.35
X5.4Y-2.675
X5.5Y-2.675
X5.5Y-2.95
X5.5Y-3.05
X5.5Y-3.15
X5.5Y-3.25
X5.5Y-3.35
X5.5Y-3.45
X5.5Y-3.55
X5.5Y-3.65
X5.5Y-3.75
X5.5Y-3.85
X5.5Y-3.95
X5.5Y-4.05
X5.75Y-2.675
X5.8Y-3.55
X5.8Y-3.65
X5.8Y-3.75
X5.8Y-3.85
X5.8Y-3.95
X5.8Y-4.05
X5.85Y-2.675
X5.9Y-3.15
X5.9Y-3.25
X5.9Y-3.55
X5.9Y-3.65
X5.9Y-3.75
X5.9Y-3.85
X5.9Y-3.95
X5.9Y-4.05
X6.025Y-4.4622
X6.025Y-4.5622
X6.125Y-4.4622
X6.125Y-4.5622
X6.15Y-3.15
X6.15Y-3.25
X6.15Y-3.35
X6.15Y-3.45
X6.15Y-3.55
X6.15Y-3.65
X6.15Y-3.75
X6.15Y-3.85
X6.15Y-3.95
X6.15Y-4.05
X6.225Y-4.4622
X6.225Y-4.5622
X6.25Y-3.15
X6.25Y-3.25
X6.25Y-3.35
X6.25Y-3.45
X6.25Y-3.55
X6.25Y-3.65
X6.25Y-3.75
X6.25Y-3.85
X6.25Y-3.95
X6.25Y-4.05
X6.325Y-4.4622
X6.325Y-4.5622
X6.425Y-4.4622
X6.425Y-4.5622
X6.525Y-4.4622
X6.525Y-4.5622
X6.55Y-3.2746
X6.55Y-3.3746
X6.55Y-3.4746
X6.55Y-3.5746
X6.55Y-3.6746
X6.55Y-3.7746
T4
X5.3128Y-2.2087
X5.3128Y-2.3858
X5.5687Y-2.2087
X5.5687Y-2.3858
X6.272Y-2.2094
X6.272Y-2.3866
X6.272Y-2.6114
X6.272Y-2.7886
X6.528Y-2.2094
X6.528Y-2.3866
X6.528Y-2.6114
X6.528Y-2.7886
T5
X4.4032Y-2.1539
X4.4032Y-3.1382
X4.4032Y-3.5539
X4.4032Y-4.5382
T0
M30
