%TF.GenerationSoftware,KiCad,Pcbnew,6.0.11-2627ca5db0~126~ubuntu22.04.1*%
%TF.CreationDate,2023-02-25T20:17:50+01:00*%
%TF.ProjectId,MiSTdon,4d695354-646f-46e2-9e6b-696361645f70,rev?*%
%TF.SameCoordinates,Original*%
%TF.FileFunction,Soldermask,Bot*%
%TF.FilePolarity,Negative*%
%FSLAX46Y46*%
G04 Gerber Fmt 4.6, Leading zero omitted, Abs format (unit mm)*
G04 Created by KiCad (PCBNEW 6.0.11-2627ca5db0~126~ubuntu22.04.1) date 2023-02-25 20:17:50*
%MOMM*%
%LPD*%
G01*
G04 APERTURE LIST*
G04 Aperture macros list*
%AMRoundRect*
0 Rectangle with rounded corners*
0 $1 Rounding radius*
0 $2 $3 $4 $5 $6 $7 $8 $9 X,Y pos of 4 corners*
0 Add a 4 corners polygon primitive as box body*
4,1,4,$2,$3,$4,$5,$6,$7,$8,$9,$2,$3,0*
0 Add four circle primitives for the rounded corners*
1,1,$1+$1,$2,$3*
1,1,$1+$1,$4,$5*
1,1,$1+$1,$6,$7*
1,1,$1+$1,$8,$9*
0 Add four rect primitives between the rounded corners*
20,1,$1+$1,$2,$3,$4,$5,0*
20,1,$1+$1,$4,$5,$6,$7,0*
20,1,$1+$1,$6,$7,$8,$9,0*
20,1,$1+$1,$8,$9,$2,$3,0*%
G04 Aperture macros list end*
%ADD10RoundRect,0.050000X0.850000X-0.850000X0.850000X0.850000X-0.850000X0.850000X-0.850000X-0.850000X0*%
%ADD11O,1.800000X1.800000*%
%ADD12C,4.100000*%
%ADD13RoundRect,0.050000X-0.800000X0.800000X-0.800000X-0.800000X0.800000X-0.800000X0.800000X0.800000X0*%
%ADD14C,1.700000*%
%ADD15RoundRect,0.050000X0.850000X0.850000X-0.850000X0.850000X-0.850000X-0.850000X0.850000X-0.850000X0*%
%ADD16RoundRect,0.050000X-0.850000X-0.850000X0.850000X-0.850000X0.850000X0.850000X-0.850000X0.850000X0*%
%ADD17C,2.100000*%
G04 APERTURE END LIST*
D10*
%TO.C,J7*%
X153035000Y-113340000D03*
D11*
X155575000Y-113340000D03*
X158115000Y-113340000D03*
X160655000Y-113340000D03*
X163195000Y-113340000D03*
X165735000Y-113340000D03*
X153035000Y-115880000D03*
X155575000Y-115880000D03*
X158115000Y-115880000D03*
X160655000Y-115880000D03*
X163195000Y-115880000D03*
X165735000Y-115880000D03*
%TD*%
D12*
%TO.C,J9*%
X111840331Y-115270000D03*
X111840331Y-90270000D03*
D13*
X113260331Y-97230000D03*
D14*
X113260331Y-100000000D03*
X113260331Y-102770000D03*
X113260331Y-105540000D03*
X113260331Y-108310000D03*
X110420331Y-98615000D03*
X110420331Y-101385000D03*
X110420331Y-104155000D03*
X110420331Y-106925000D03*
%TD*%
D10*
%TO.C,J10*%
X120665000Y-55855000D03*
D11*
X123205000Y-55855000D03*
X125745000Y-55855000D03*
%TD*%
D15*
%TO.C,J2*%
X139700000Y-102870000D03*
D11*
X139700000Y-100330000D03*
X139700000Y-97790000D03*
X139700000Y-95250000D03*
X139700000Y-92710000D03*
X139700000Y-90170000D03*
X139700000Y-87630000D03*
X139700000Y-85090000D03*
X139700000Y-82550000D03*
X139700000Y-80010000D03*
X139700000Y-77470000D03*
X139700000Y-74930000D03*
%TD*%
D16*
%TO.C,J6*%
X120650000Y-110490000D03*
D11*
X123190000Y-110490000D03*
X120650000Y-113030000D03*
X123190000Y-113030000D03*
X120650000Y-115570000D03*
X123190000Y-115570000D03*
%TD*%
D17*
%TO.C,SW4*%
X165810000Y-66330000D03*
X159310000Y-66330000D03*
X165810000Y-70830000D03*
X159310000Y-70830000D03*
%TD*%
D15*
%TO.C,J3*%
X127000000Y-102870000D03*
D11*
X127000000Y-100330000D03*
X127000000Y-97790000D03*
X127000000Y-95250000D03*
X127000000Y-92710000D03*
%TD*%
D10*
%TO.C,JP4*%
X146050000Y-67945000D03*
D11*
X148590000Y-67945000D03*
%TD*%
D17*
%TO.C,SW1*%
X134945000Y-56100000D03*
X141445000Y-56100000D03*
X134945000Y-60600000D03*
X141445000Y-60600000D03*
%TD*%
D10*
%TO.C,JP3*%
X134620000Y-67945000D03*
D11*
X137160000Y-67945000D03*
X139700000Y-67945000D03*
%TD*%
D16*
%TO.C,J11*%
X166370000Y-83175000D03*
D11*
X166370000Y-85715000D03*
X166370000Y-88255000D03*
X166370000Y-90795000D03*
X166370000Y-93335000D03*
X166370000Y-95875000D03*
%TD*%
D12*
%TO.C,J8*%
X111840331Y-79710000D03*
X111840331Y-54710000D03*
D13*
X113260331Y-61670000D03*
D14*
X113260331Y-64440000D03*
X113260331Y-67210000D03*
X113260331Y-69980000D03*
X113260331Y-72750000D03*
X110420331Y-63055000D03*
X110420331Y-65825000D03*
X110420331Y-68595000D03*
X110420331Y-71365000D03*
%TD*%
D17*
%TO.C,SW3*%
X165810000Y-56120000D03*
X159310000Y-56120000D03*
X159310000Y-60620000D03*
X165810000Y-60620000D03*
%TD*%
D15*
%TO.C,JP5*%
X149860000Y-82550000D03*
D11*
X149860000Y-80010000D03*
%TD*%
D15*
%TO.C,J1*%
X149860000Y-102870000D03*
D11*
X149860000Y-100330000D03*
X149860000Y-97790000D03*
X149860000Y-95250000D03*
X149860000Y-92710000D03*
X149860000Y-90170000D03*
X147320000Y-102870000D03*
X147320000Y-100330000D03*
X147320000Y-97790000D03*
X147320000Y-95250000D03*
X147320000Y-92710000D03*
X147320000Y-90170000D03*
%TD*%
D10*
%TO.C,JP1*%
X132080000Y-110490000D03*
D11*
X134620000Y-110490000D03*
%TD*%
D15*
%TO.C,J4*%
X123190000Y-80010000D03*
D11*
X120650000Y-80010000D03*
X123190000Y-82550000D03*
X120650000Y-82550000D03*
X123190000Y-85090000D03*
X120650000Y-85090000D03*
X123190000Y-87630000D03*
X120650000Y-87630000D03*
X123190000Y-90170000D03*
X120650000Y-90170000D03*
X123190000Y-92710000D03*
X120650000Y-92710000D03*
X123190000Y-95250000D03*
X120650000Y-95250000D03*
X123190000Y-97790000D03*
X120650000Y-97790000D03*
X123190000Y-100330000D03*
X120650000Y-100330000D03*
X123190000Y-102870000D03*
X120650000Y-102870000D03*
%TD*%
D15*
%TO.C,J5*%
X158750000Y-80010000D03*
D11*
X156210000Y-80010000D03*
X158750000Y-82550000D03*
X156210000Y-82550000D03*
X158750000Y-85090000D03*
X156210000Y-85090000D03*
X158750000Y-87630000D03*
X156210000Y-87630000D03*
X158750000Y-90170000D03*
X156210000Y-90170000D03*
X158750000Y-92710000D03*
X156210000Y-92710000D03*
X158750000Y-95250000D03*
X156210000Y-95250000D03*
X158750000Y-97790000D03*
X156210000Y-97790000D03*
X158750000Y-100330000D03*
X156210000Y-100330000D03*
X158750000Y-102870000D03*
X156210000Y-102870000D03*
%TD*%
M02*
